SplineFontDB: 3.2
FontName: Untitled1
FullName: Untitled1
FamilyName: Untitled1
Weight: Regular
Copyright: Copyright (c) 2023, iktkrkve
UComments: "2023-5-23: Created with FontForge (http://fontforge.org)"
Version: 001.000
ItalicAngle: 0
UnderlinePosition: -100
UnderlineWidth: 50
Ascent: 800
Descent: 200
InvalidEm: 0
LayerCount: 2
Layer: 0 0 "Back" 1
Layer: 1 0 "Fore" 0
XUID: [1021 220 562087419 21493]
OS2Version: 0
OS2_WeightWidthSlopeOnly: 0
OS2_UseTypoMetrics: 1
CreationTime: 1684845983
ModificationTime: 1685449008
OS2TypoAscent: 0
OS2TypoAOffset: 1
OS2TypoDescent: 0
OS2TypoDOffset: 1
OS2TypoLinegap: 0
OS2WinAscent: 0
OS2WinAOffset: 1
OS2WinDescent: 0
OS2WinDOffset: 1
HheadAscent: 0
HheadAOffset: 1
HheadDescent: 0
HheadDOffset: 1
OS2Vendor: 'PfEd'
DEI: 91125
Encoding: ISO8859-1
UnicodeInterp: none
NameList: AGL For New Fonts
DisplaySize: -48
AntiAlias: 1
FitToEm: 0
WinInfo: 0 32 11
BeginChars: 256 68

StartChar: A
Encoding: 65 65 0
Width: 1000
Flags: H
LayerCount: 2
Fore
SplineSet
347.990636476 482.997818252 m 0
 347.990636476 496.797685913 359.194379265 508.001428702 372.994246926 508.001428702 c 0
 376.253062606 508.001428702 379.3671027 507.376640412 382.263028764 506.224497784 c 0
 660.101603791 395.686570085 660.101603791 395.686570085 660.101603791 395.686570085 c 1
 763.897879805 366.030491224 l 2
 774.358943948 363.041615755 782.026045229 353.40298554 782.026045229 341.987739 c 0
 782.026045229 328.189374945 770.823523179 316.986852894 757.025159123 316.986852894 c 0
 754.642041608 316.986852894 752.336354934 317.321010635 750.102120195 317.969508776 c 0
 643.898396209 348.313429915 643.898396209 348.313429915 642.736971236 348.775502216 c 2
 363.736971236 459.775502216 l 2
 354.527677293 463.430473648 347.990636476 472.45676627 347.990636476 482.997818252 c 0
706.28368655 122.940220995 m 0
 706.334077228 122.733108902 710.003972928 105.842932339 710.003972928 101.951989426 c 0
 710.003972928 88.1549965772 698.802564123 76.9535877721 685.005571274 76.9535877721 c 0
 672.893118681 76.9535877721 662.781128511 85.5867111905 660.492794638 97.0686889661 c 2
 657.593317159 111.566076364 l 1
 615.541870135 284.927810919 631.176932736 494.851112539 561.861245129 669.001645919 c 1
 472.741448615 513.040313004 414.459899085 333.217317833 379.481271956 162.940755236 c 0
 377.144157687 151.523400551 367.062121454 142.953940187 354.994374764 142.953940187 c 0
 341.197297232 142.953940187 329.995819674 154.155417745 329.995819674 167.952495277 c 0
 329.995819674 169.68182612 330.171797229 171.370379545 330.518728044 173.059244764 c 0
 369.446746895 362.561514653 436.481831178 564.461295167 543.785970817 736.235825229 c 0
 545.418405342 738.849057807 552.0561823 747.995097764 565 747.995097764 c 0
 567.498443637 747.995097764 580.718877743 747.360908631 587.32380815 734.264521376 c 0
 684.790479566 541.005668565 661.472977792 307.117933335 706.28368655 122.940220995 c 0
EndSplineSet
EndChar

StartChar: B
Encoding: 66 66 1
Width: 1000
Flags: H
LayerCount: 2
Fore
SplineSet
469.123158028 718.688105418 m 0
 457.547604018 718.688105418 447.355388623 719.368751019 435.888663237 719.368751019 c 0
 425.658009182 719.368751019 416.827471648 718.789583703 409.345501551 716.815842112 c 0
 409.343032954 716.815842112 409.340793062 716.816107345 409.338878532 716.816704568 c 0
 407.319735964 716.274903695 405.182184121 715.989142246 402.978415798 715.989142246 c 0
 389.180406275 715.989142246 377.978172059 727.191376461 377.978172059 740.989385984 c 0
 377.978172059 752.583627184 385.887806821 762.34505234 396.600825199 765.167410305 c 0
 409.799349057 768.644577769 422.474583017 769.461146834 434.309935735 769.461146834 c 0
 445.430409784 769.461146834 457.637785116 768.689710086 469.294996676 768.689710086 c 0
 482.421895716 768.689710086 483.990606471 769.773720617 498.845055419 769.773720617 c 0
 603.492395515 769.773720617 706.997764623 699.918143994 706.997764623 591.872385094 c 0
 706.997764623 590.866390023 703.60327034 541.883302924 663.08370155 501.363734134 c 0
 645.750183122 484.030215705 625.255669342 471.395768929 603.397619139 461.910384255 c 1
 634.330584639 450.533987202 668.507612794 442.368884639 700.188862948 427.626556519 c 0
 720.313230994 418.262025906 776.131921493 391.050579671 776.131921493 323.133382827 c 0
 776.131921493 301.086400053 771.228604338 240.775938368 721.938073658 191.485407689 c 0
 665.321286074 134.868620122 578.299472223 115.950846611 502.794869538 115.950846611 c 0
 500.861570047 115.950846611 498.935821456 115.96324946 497.018327521 115.987739873 c 0
 491.31946989 115.467805614 485.721461593 115.239703736 480.225590444 115.239703736 c 0
 441.985404658 115.239703736 407.097351867 126.474852894 374.80211132 128.033405782 c 0
 374.786040296 128.034176216 311.80211132 131.033405782 311.80211132 131.033405782 c 2
 298.566159508 131.663689202 288.013223822 142.609212404 288.013223822 156.00005583 c 0
 288.013223822 169.795344128 299.213248749 180.995369055 313.008537048 180.995369055 c 0
 313.593617092 180.995369055 313.593617092 180.995369055 377.19788868 177.966594218 c 0
 413.681161215 176.205928906 447.79233263 165.267965287 480.863381168 165.267965287 c 0
 489.661571373 165.267965287 493.205523555 165.995097764 496 165.995097764 c 0
 496.519032925 165.995097764 498.729141493 165.944910131 502.317936645 165.944910131 c 0
 540.053786715 165.944910131 718.599623806 173.656961076 726.037685218 319.284609426 c 0
 726.119891942 320.851086479 726.160478003 322.366936807 726.160478003 323.835486875 c 0
 726.160478003 367.228403096 685.595767586 382.77230693 621.890751545 402.999116947 c 0
 601.065302322 409.611349771 579.87837966 416.155327546 560.774912239 425.610863973 c 1
 542.120685755 427.391793498 504.46297218 429.806151158 469.225265047 431.657725166 c 0
 460.765965134 430.764817685 432.562347175 428.004902236 430 428.004902236 c 0
 429.493168817 428.004902236 389.57368715 431.303656712 379.782187558 434.856894383 c 0
 378.243815177 435.415154396 375.622062991 435.463200878 370.149346775 440.935917094 c 0
 367.122270241 443.962993627 362.801001112 449.796249294 362.801001112 458.433875785 c 0
 362.801001112 462.168349733 363.983455799 483.134085695 390.469271718 484.291898118 c 0
 392.577508712 484.384058503 394.89420089 484.421820494 397.502220807 484.421820494 c 0
 409.717762695 484.421820494 433.38361958 483.640123155 468.077230253 481.859394894 c 1
 565.240874133 492.603519765 641.730859768 515.189540308 656.999463682 593.306670405 c 1
 656.042476468 675.469266703 569.711162592 719.750818238 498.153738593 719.750818238 c 0
 485.760319065 719.750818238 484.421415837 718.688105418 469.123158028 718.688105418 c 0
321.996001977 130.95489248 m 0
 308.199932401 130.95489248 296.999273176 142.155551705 296.999273176 155.951621282 c 0
 296.999273176 156.487324084 362.518915331 645.498207608 363.585014292 650.371802862 c 0
 384.585014292 746.371802862 384.585014292 746.371802862 384.585014292 746.371802862 c 2
 387.040683879 757.597720973 397.049076728 766.012148492 409.007255911 766.012148492 c 0
 422.804544483 766.012148492 434.006193378 754.810499597 434.006193378 741.013211025 c 0
 434.006193378 738.330860775 426.010716572 739.742535908 412.632653317 640.623249066 c 0
 346.769045 152.63378745 346.769045 152.63378745 346.769045 152.63378745 c 2
 345.119856549 140.377286273 334.649605114 130.95489248 321.996001977 130.95489248 c 0
EndSplineSet
EndChar

StartChar: C
Encoding: 67 67 2
Width: 1000
Flags: H
LayerCount: 2
Fore
SplineSet
262.337446322 232.534709378 m 0
 262.337446322 387.127065366 395.985391002 511.33858809 550.214402369 511.33858809 c 0
 564.648076222 511.33858809 579.261842506 510.249925358 593.962867018 507.995097764 c 1
 622 507.995097764 l 2
 635.795169382 507.995097764 646.995097764 496.795169382 646.995097764 483 c 0
 646.995097764 469.204830618 635.795169382 458.004902236 622 458.004902236 c 2
 592 458.004902236 l 2
 587.184124373 458.004902236 573.956077403 461.329248206 550.382081493 461.329248206 c 0
 423.818075412 461.329248206 312.326490688 359.776052253 312.326490688 232.571476477 c 0
 312.326490688 227.761685622 312.326490688 227.761685622 313.928194158 205.834471975 c 0
 323.175066306 79.2454092094 484.84880081 27.313764403 596.207991386 21.9661111026 c 0
 598.645509376 21.84905744 599.927881689 21.3864636314 603.755629965 21.3864636314 c 0
 623.627281458 21.3864636314 647.471549381 35.5307684811 673.76483246 41.7671577633 c 1
 728.286521317 67.593220906 l 2
 731.545035831 69.1367277813 735.166469092 69.9953704205 738.986866534 69.9953704205 c 0
 752.787303835 69.9953704205 763.991509099 58.7911651571 763.991509099 44.9907278564 c 0
 763.991509099 35.0106879978 758.132017829 26.3884061061 749.713478683 22.406779094 c 0
 690.105105088 -5.82876629334 690.105105088 -5.82876629334 687.273561711 -6.43626947971 c 0
 662.849894084 -11.6763290283 637.20694439 -28.6676775207 604.533191307 -28.6676775207 c 0
 600.689956269 -28.6676775207 596.743109622 -28.4330394508 592.693649062 -27.9121247396 c 0
 556.672674295 -26.1009518595 411.892366854 -13.3995344556 323.784075291 74.7087571073 c 0
 280.365334051 118.127498347 262.337446322 168.305815752 262.337446322 232.534709378 c 0
EndSplineSet
EndChar

StartChar: D
Encoding: 68 68 3
Width: 1000
Flags: H
LayerCount: 2
Fore
SplineSet
359.444652197 680.64871144 m 0
 348.389006183 680.64871144 342.051420293 680.004902236 340 680.004902236 c 2
 310 680.004902236 l 2
 296.204830618 680.004902236 285.004902236 691.204830618 285.004902236 705 c 0
 285.004902236 718.795169382 296.204830618 729.995097764 310 729.995097764 c 2
 339.179556227 729.995097764 l 2
 346.049119801 730.434143179 352.912430883 730.650395659 359.761093047 730.650395659 c 0
 542.140185293 730.650395659 716.571352015 576.715385077 716.571352015 389.844802227 c 0
 716.571352015 375.680357971 715.958123803 368.007550649 714.832003253 364.442056847 c 0
 672.213301091 229.503822751 520.451570217 137.116930091 406.063721448 74.0976935607 c 0
 404.468863691 73.2190450039 402.798087861 72.5276116207 401.083745948 72.0233934112 c 2
 401.083745948 72.0233934112 299.083745948 42.0233934112 299.025204426 42.0061753164 c 0
 296.78674415 41.3478046469 294.418220624 40.9945192343 291.967834004 40.9945192343 c 0
 278.169338784 40.9945192343 266.966710244 52.1971477744 266.966710244 65.9956429946 c 0
 266.966710244 77.3437515951 274.543817719 86.9360971837 284.916254052 89.9766065888 c 2
 384.304104741 119.20832738 l 1
 496.502294207 181.166627312 629.088699662 264.802436648 666.235877481 376.68043403 c 1
 666.464656437 381.054760831 666.577658027 385.412846292 666.577658027 389.752482835 c 0
 666.577658027 549.54117119 513.838858752 680.64871144 359.444652197 680.64871144 c 0
334.413551923 98.0667638024 m 0
 334.413551923 81.4140402723 340.998915871 56.2609944227 340.998915871 48.0027904189 c 0
 340.998915871 34.2067120442 329.798249503 23.0060456761 316.002171128 23.0060456761 c 0
 303.354487484 23.0060456761 292.888111837 32.4196197323 291.233291615 44.6165204185 c 0
 290.592801277 49.3372731254 289.700259767 54.3985602268 288.740811622 59.7951111023 c 0
 286.796031056 70.7338026071 284.365055439 83.2971585539 284.365055439 97.3042114449 c 0
 284.365055439 101.147882768 284.548109578 105.100265466 284.974496054 109.157620163 c 0
 284.525846015 130.568514968 284.374174557 151.922904935 284.374174557 173.22066358 c 0
 284.374174557 195.621060577 284.996219253 285.749877845 285.000570642 286.886545596 c 0
 281.611281787 324.176675929 283.23106636 363.19696662 276.487774437 397.093856962 c 0
 276.165859637 398.712044462 276.004902236 400.356022231 276.004902236 402 c 0
 276.004902236 402.373970727 276.004902236 402.373970727 285.016004936 705.747761617 c 0
 285.415416193 719.194607273 296.457119319 729.98858846 309.999997593 729.98858846 c 0
 323.795213484 729.98858846 334.995179624 718.78862232 334.995179624 704.993406429 c 0
 334.995179624 704.628785242 334.995179624 704.628785242 326.066649077 404.034923488 c 1
 333.359185771 365.105891637 331.496654457 326.445291617 334.884904756 290.353203825 c 0
 334.958366761 289.570676885 334.995097764 288.785338443 334.995097764 288 c 0
 334.995097764 286.852143494 334.365704776 195.327868766 334.365704776 173.216074965 c 0
 334.365704776 131.020426463 334.995097764 110.062276602 334.995097764 108 c 0
 334.995097764 104.910404237 334.413551923 103.607179588 334.413551923 98.0667638024 c 0
EndSplineSet
EndChar

StartChar: E
Encoding: 69 69 4
Width: 1000
Flags: H
LayerCount: 2
Fore
SplineSet
762.995097764 84 m 0
 762.995097764 70.1870313421 751.812835975 59.0049022365 738 59.0049022365 c 0
 737.068548709 59.0049022365 737.068548709 59.0049022365 656.879948586 64.9447985419 c 1
 471.811555852 53.0049022365 471.811555852 53.0049022365 471 53.0049022365 c 0
 467.478243082 53.0049022365 467.478243082 53.0049022365 401.102120195 71.9695087759 c 0
 390.548303368 74.984885012 383.004902236 84.6790665673 383.004902236 96 c 0
 383.004902236 109.812968658 394.187164025 120.995097764 408 120.995097764 c 0
 411.521756918 120.995097764 411.521756918 120.995097764 473.723515092 103.223166857 c 1
 656.188444148 114.995097764 656.188444148 114.995097764 657 114.995097764 c 0
 657.931451291 114.995097764 657.931451291 114.995097764 739.860129041 108.926306819 c 0
 752.88758969 107.961309734 762.995097764 97.1166293527 762.995097764 84 c 0
573.227618099 456.860442976 m 0
 584.598460465 456.860442976 590.164980658 456.995097764 591 456.995097764 c 0
 604.812968658 456.995097764 615.995097764 445.812835975 615.995097764 432 c 0
 615.995097764 418.348140582 605.065240557 407.238565961 591.424773442 407.008484407 c 0
 585.309337901 406.905331861 579.23605679 406.869365813 573.20498637 406.869365813 c 0
 559.189230005 406.869365813 545.187242879 407.064764644 531.263482634 407.064764644 c 0
 524.045133331 407.064764644 519.122636287 407.004902236 519 407.004902236 c 0
 518.880360487 407.004902236 513.751748472 407.153860192 507.036976054 407.153860192 c 0
 506.883855976 407.153860192 474.455595192 406.850747006 474.126476236 406.850747006 c 0
 471.054181659 406.850747006 467.948426105 406.873834938 464.809293995 406.933067662 c 0
 417.096632292 395.004902236 417.096632292 395.004902236 414 395.004902236 c 0
 400.187031342 395.004902236 389.004902236 406.187164025 389.004902236 420 c 0
 389.004902236 431.601919776 396.928572246 441.501398898 407.906428378 444.245862931 c 0
 458.903367708 456.995097764 458.903367708 456.995097764 462 456.995097764 c 0
 462.120598232 456.995097764 467.287170263 456.843524703 474.058870607 456.843524703 c 0
 474.212048757 456.843524703 506.639328115 457.146597552 506.968437741 457.146597552 c 0
 510.99091904 457.146597552 515.07076007 457.107026898 519.207774117 456.998590727 c 0
 523.259251204 457.039500179 527.292035379 457.055381337 531.306118269 457.055381337 c 0
 545.337931383 457.055381337 559.287190208 456.860442976 573.227618099 456.860442976 c 0
924.995097764 615 m 0
 924.995097764 601.187031342 913.812835975 590.004902236 900 590.004902236 c 0
 897.947164704 590.004902236 824.63645272 599.076878824 821.950716467 599.743107972 c 2
 434.950716467 695.743107972 l 2
 423.950773903 698.471775895 416.004902236 708.381571292 416.004902236 720 c 0
 416.004902236 733.812968658 427.187164025 744.995097764 441 744.995097764 c 0
 443.03267781 744.995097764 445.065355619 744.749029185 447.049283533 744.256892028 c 2
 832.602971014 648.615667227 l 1
 903.121888143 639.800802586 l 2
 915.573714566 638.244324283 924.995097764 627.656767971 924.995097764 615 c 0
423.995097764 90 m 0
 423.995097764 76.1870313421 412.812835975 65.0049022365 399 65.0049022365 c 0
 386.036725616 65.0049022365 375.27549349 74.8812115121 374.108281788 87.7205402318 c 0
 371.004902236 121.8577153 371.004902236 121.8577153 371.004902236 123 c 0
 371.004902236 124.294546978 381.388984987 123.410101767 401.091764356 416.137109533 c 0
 422.061743811 727.691090015 422.061743811 727.691090015 422.061743811 727.691090015 c 2
 422.943619975 740.793250162 433.821169904 750.995097764 447 750.995097764 c 0
 460.812968658 750.995097764 471.995097764 739.812835975 471.995097764 726 c 0
 471.995097764 725.153413379 471.995097764 725.153413379 450.938256189 412.308909985 c 0
 450.908235644 411.862890467 450.908235644 411.862890467 421.112819101 122.847349992 c 1
 423.995097764 91.1422846995 423.995097764 91.1422846995 423.995097764 90 c 0
EndSplineSet
EndChar

StartChar: F
Encoding: 70 70 5
Width: 1000
Flags: H
LayerCount: 2
Fore
SplineSet
237.004902236 441 m 0
 237.004902236 454.812968658 248.187164025 465.995097764 262 465.995097764 c 0
 262.732335368 465.995097764 332.427184538 460.085449324 334.960878131 459.681527157 c 2
 541.960878131 426.681527157 l 2
 554.011389098 424.760431206 562.995097764 414.356627281 562.995097764 402 c 0
 562.995097764 388.187031342 551.812835975 377.004902236 538 377.004902236 c 0
 536.006064763 377.004902236 536.006064763 377.004902236 327.924736217 410.177287947 c 1
 259.818819307 416.099541591 l 2
 246.935144663 417.219861125 237.004902236 428.000797436 237.004902236 441 c 0
605.077460436 660.662660492 m 0
 605.149529641 660.662747866 617.771582789 661.005770963 617.899852609 661.005770963 c 0
 634.101808264 661.005770963 651.269325725 656.306064421 657.584614126 638.300422275 c 0
 658.524936551 635.619450636 658.995097764 632.809725318 658.995097764 630 c 0
 658.995097764 616.187031342 647.812835975 605.004902236 634 605.004902236 c 0
 623.803835916 605.004902236 618.207155117 610.935335516 617.590229531 610.935335516 c 0
 614.124760954 610.935335516 605.285279227 610.492947786 605.160907301 610.492947786 c 0
 604.005048266 610.492947786 602.753148982 610.541386223 601.361142894 610.673941063 c 0
 534.84322557 599.016091378 439.808449647 593.434547464 390.2312896 587.79085204 c 1
 363.956962601 573.69021625 324.40039976 576.563974663 311.10831541 568.362625961 c 1
 316.938909407 466.235244831 400.387246902 383.848352445 412.517175889 270.047570035 c 1
 436.229445806 209.790939508 438.630068663 131.345399876 466.069837069 88.463882373 c 0
 467.845682984 85.6886779132 469.018964707 82.6381986919 469.58968224 79.4992522611 c 0
 481.995097764 11.2694668826 481.995097764 11.2694668826 481.995097764 9 c 0
 481.995097764 -4.81296865792 470.812835975 -15.9950977635 457 -15.9950977635 c 0
 444.836045885 -15.9950977635 434.553550919 -7.28703463843 432.41031776 4.50074773893 c 2
 421.25204227 65.871262934 l 1
 388.096161236 121.46983472 387.966739146 198.31480812 364.88129122 254.475401981 c 0
 363.928599263 256.793041485 363.338687348 259.225267539 363.111555474 261.684812242 c 0
 353.478000009 366.003769902 266.167504173 450.040489305 261.028403745 568.912226641 c 0
 261.012736073 569.274633148 261.004902236 569.637316574 261.004902236 570 c 0
 261.004902236 577.565656848 263.58511207 606.912810302 302.556481688 618.697117225 c 0
 325.743012235 625.708346113 357.590349947 625.621101862 367.933392104 632.671682707 c 0
 373.693421411 636.59814377 374.765716865 637.329099486 459.718503613 644.596908328 c 0
 505.918330202 648.549356753 551.737467182 652.504507119 596.529356026 660.594866621 c 0
 598.006596563 660.86168752 599.503298496 660.995097953 601.000000427 660.995097953 c 0
 602.364064552 660.995097953 603.728128676 660.884285458 605.077460436 660.662660492 c 0
EndSplineSet
EndChar

StartChar: G
Encoding: 71 71 6
Width: 1000
Flags: H
LayerCount: 2
Fore
SplineSet
712.995097764 696 m 0
 712.995097764 695.817528992 712.263606791 682.49788352 712.263606791 677.767567109 c 0
 712.263606791 667.637649162 714.451295836 648.284226178 726.269334401 618.149520851 c 0
 727.419843309 615.215849012 727.995097764 612.107924506 727.995097764 609 c 2
 727.995097764 603 l 2
 727.995097764 589.187031342 716.812835975 578.004902236 703 578.004902236 c 0
 689.187031342 578.004902236 678.004902236 589.187164025 678.004902236 603 c 2
 678.004902236 604.32678513 l 1
 670.70647892 623.601648127 662.219505611 651.65571771 662.219505611 677.92229021 c 0
 662.219505611 682.22120569 662.422466226 686.232034232 662.631633357 689.931053134 c 0
 657.075746477 698.451662791 643.761756725 713.621250365 619.390423327 713.621250365 c 0
 611.706822345 713.621250365 603.562683894 712.051327376 595.200248243 708.750623748 c 0
 592.338656053 707.621136106 577.128913474 703.631809091 553.568534513 703.631809091 c 0
 540.914298329 703.631809091 528.986004108 704.700919676 518.03384071 705.602550553 c 0
 512.747427258 706.03775168 507.662167999 706.453215309 502.80260651 706.758311205 c 0
 489.244628519 701.830273554 475.153140305 697.165913873 460.920280011 692.449092409 c 0
 358.496361793 658.505434849 281.752417838 627.366410674 281.752417838 542.200364406 c 0
 281.752417838 526.728674005 283.995097764 517.219582157 283.995097764 513 c 0
 283.995097764 512.562238927 283.979708225 512.146473087 283.979708225 511.115827797 c 0
 283.979708225 469.685300641 311.191805615 426.48164754 313.84466066 376.061719618 c 1
 321.706807258 348.686835772 329.931870353 320.31080485 329.931870353 287.669762764 c 0
 329.931870353 281.557646073 329.643470868 275.295983171 329.010285561 268.863344414 c 0
 330.318691159 179.190657983 380.618996015 84.8303443839 484.806250877 84.8303443839 c 0
 488.285163424 84.8303443839 492.918045947 84.9950977635 493 84.9950977635 c 0
 501.885518574 84.9950977635 530.270037499 72.4119365802 573.584597374 72.4119365802 c 0
 706.095988015 72.4119365802 782.441261812 198.991166307 788.813460525 337.663602603 c 1
 782.788909512 353.076278768 777.125523803 370.081065926 772.299764403 384.790151334 c 1
 769.322069201 383.599985269 766.160984253 383.001730319 762.999949652 383.001730319 c 0
 572.6583607 386.023025382 572.6583607 386.023025382 571.720540232 386.108281788 c 2
 538.720540232 389.108281788 l 2
 525.881347563 390.275481122 516.004902236 401.036589156 516.004902236 414 c 0
 516.004902236 427.812968658 527.187164025 438.995097764 541 438.995097764 c 0
 542.1422847 438.995097764 542.009578349 436.506054951 575.3416393 435.976974618 c 0
 738.904762952 433.38073456 738.904762952 433.38073456 738.904762952 433.38073456 c 1
 739.628054596 442.172866544 741.917367133 470.001112764 767.695599037 470.001112764 c 0
 770.20330393 470.001112764 778.631615845 470.001112764 786.61644648 462.016282129 c 0
 792.341272405 456.291456205 792.476323476 455.939935472 801.141576347 433.385386295 c 0
 804.184538544 431.871829619 810.784352908 427.69900832 813.70704206 418.942693818 c 0
 832.030391779 364.046328 832.030391779 364.046328 837.156445985 351.432267078 c 0
 838.382213837 348.415929414 838.995097764 345.207964707 838.995097764 342 c 0
 838.995097764 329.472302842 836.886549064 187.283293837 742.514122344 92.910867117 c 0
 698.634693248 49.0314385975 640.491265588 22.7234470785 572.437027185 22.7234470785 c 0
 546.262502859 22.7234470785 518.621902742 26.6151074564 489.762899606 34.8954907703 c 0
 488.196705041 34.8624751311 486.637471326 34.8460581058 485.085272082 34.8460581058 c 0
 351.238658815 34.8460581058 279.004902236 153.698139861 279.004902236 270 c 0
 279.004902236 273.008961308 279.936614192 277.71988199 279.936614192 287.552548195 c 0
 279.936614192 324.879289931 264.345256109 360.887661636 264.017604386 371.200202659 c 0
 262.679049377 413.330008337 233.988079597 457.733332274 233.988079597 510.943951589 c 0
 233.988079597 511.074743611 233.988249073 511.205605106 233.988588881 511.33653614 c 0
 232.592385581 521.46906714 231.921545455 531.215577496 231.921545455 540.579519719 c 0
 231.921545455 589.123639197 249.950678258 627.386066468 278.41243913 655.84782734 c 0
 323.346821577 700.782209787 389.093020541 721.32395779 445.136106314 739.896839449 c 0
 461.103622014 745.188531999 476.386058232 750.26025191 490.252884062 755.423138562 c 0
 493.067599412 756.471111363 496.033799706 756.995097764 499 756.995097764 c 0
 507.812626829 756.995097764 534.867716809 753.731669372 553.700999265 753.731669372 c 0
 562.493422774 753.731669372 570.835261389 754.341095238 578.759116791 756.003213299 c 0
 591.94832599 760.946756682 605.638677002 763.449888705 619.129392149 763.449888705 c 0
 657.06906271 763.449888705 691.376754942 743.768563913 710.19170031 707.522700821 c 0
 712.060631946 703.922316186 712.995097764 699.961158093 712.995097764 696 c 0
EndSplineSet
EndChar

StartChar: H
Encoding: 72 72 7
Width: 1000
Flags: H
LayerCount: 2
Fore
SplineSet
703.995097764 261 m 0
 703.995097764 247.187031342 692.812835975 236.004902236 679 236.004902236 c 0
 676.489773031 236.004902236 673.979546063 236.380173276 671.561132696 237.130715355 c 0
 582.36782744 264.811396297 582.36782744 264.811396297 580.340429904 265.879889593 c 2
 358.340429904 382.879889593 l 2
 356.018499558 384.10360964 345.004902236 390.663855595 345.004902236 405 c 0
 345.004902236 418.812968658 356.187164025 429.995097764 370 429.995097764 c 0
 374.011416976 429.995097764 378.022833953 429.036768645 381.659570096 427.120110407 c 2
 601.63217256 311.188603703 l 1
 686.438867304 284.869284645 l 2
 687.313212089 284.597936263 703.995097764 279.182574339 703.995097764 261 c 0
580 2.00490223649 m 0
 566.187031342 2.00490223649 555.004902236 13.187164025 555.004902236 27 c 0
 555.004902236 29.4067076189 558.127326181 89.5595769188 558.207443988 90.1871664059 c 0
 561.61230507 116.858578214 576.21056284 231.520152042 576.492794638 232.931311034 c 2
 585.004902236 275.491849024 l 1
 585.004902236 591 l 2
 585.004902236 604.812968658 596.187164025 615.995097764 610 615.995097764 c 0
 623.812968658 615.995097764 634.995097764 604.812835975 634.995097764 591 c 2
 634.995097764 273 l 2
 634.995097764 270.508150976 631.694934034 271.048128097 625.680535527 223.935339791 c 0
 607.915260841 84.7740214183 607.915260841 84.7740214183 607.915260841 84.7740214183 c 1
 604.963678563 25.7423758625 l 2
 604.29912479 12.4513004012 593.338946985 2.00490223649 580 2.00490223649 c 0
280 29.0049022365 m 0
 266.187031342 29.0049022365 255.004902236 40.187164025 255.004902236 54 c 0
 255.004902236 54.6623093556 255.004902236 54.6623093556 261.039708087 169.323620515 c 0
 261.153118261 171.478413822 261.543677264 173.621284611 262.211385095 175.693961003 c 2
 406.211385095 622.693961003 l 2
 409.473904252 632.82136422 418.958870077 639.995097764 430 639.995097764 c 0
 443.812968658 639.995097764 454.995097764 628.812835975 454.995097764 615 c 0
 454.995097764 612.401394122 454.592936811 609.802788245 453.788614905 607.306038997 c 2
 310.788343723 163.409363867 l 1
 304.960291913 52.6763794851 l 2
 304.262286569 39.4142779416 293.314969188 29.0049022365 280 29.0049022365 c 0
EndSplineSet
EndChar

StartChar: I
Encoding: 73 73 8
Width: 1000
Flags: H
LayerCount: 2
Fore
SplineSet
340 704.004902236 m 0
 326.187031342 704.004902236 315.004902236 715.187164025 315.004902236 729 c 0
 315.004902236 731.285708765 315.583555715 745.148264688 329.347866281 751.622176417 c 0
 351.296277275 761.945401448 374.42016826 759.504245773 385.545382302 767.401750572 c 0
 387.992304112 769.138757758 410.808189998 781.673035397 448.334301342 781.673035397 c 0
 499.855193227 781.673035397 550.151484029 762.091025363 597.758012527 756.843596405 c 0
 610.378654071 755.452486362 619.995097764 744.789011828 619.995097764 732 c 0
 619.995097764 718.187031342 608.812835975 707.004902236 595 707.004902236 c 0
 567.759074074 707.004902236 492.917535602 731.707554382 447.965987119 731.707554382 c 0
 434.633307584 731.707554382 422.966930514 729.555515284 412.105691696 724.998519735 c 0
 388.922149473 709.860487487 363.643181213 712.488038427 350.652133719 706.377823583 c 0
 347.288724009 704.795876019 343.644362005 704.004902236 340 704.004902236 c 0
568.995097764 36 m 0
 568.995097764 22.1870313421 557.812835975 11.0049022365 544 11.0049022365 c 0
 540.903367708 11.0049022365 540.903367708 11.0049022365 503.786597654 20.2840947498 c 1
 470.07004992 23.3492354529 470.07004992 23.3492354529 467.536579594 24.1383491608 c 2
 284.536579594 81.1383491608 l 2
 283.650802835 81.4142468399 267.004902236 86.840601904 267.004902236 105 c 0
 267.004902236 118.812968658 278.187164025 129.995097764 292 129.995097764 c 0
 294.518723143 129.995097764 297.037446287 129.617282122 299.463420406 128.861650839 c 2
 479.92995008 72.6507645471 l 1
 512.213402346 69.7159052502 512.213402346 69.7159052502 514.093571622 69.2458629311 c 2
 550.093571622 60.2458629311 l 2
 561.069589491 57.5018584638 568.995097764 47.6037999747 568.995097764 36 c 0
412 38.0049022365 m 0
 398.187031342 38.0049022365 387.004902236 49.187164025 387.004902236 63 c 0
 387.004902236 64.8411853283 405.505073024 62.6854264097 432.162764748 371.914650409 c 0
 462.097926702 719.162529068 462.097926702 719.162529068 462.097926702 719.162529068 c 2
 463.209357074 732.055121386 473.994498403 741.995097764 487 741.995097764 c 0
 500.812968658 741.995097764 511.995097764 730.812835975 511.995097764 717 c 0
 511.995097764 716.973640481 482.241002583 368.830967443 481.727465164 365.338912992 c 2
 436.727465164 59.3389129921 l 2
 434.934060147 47.1437588782 424.463791869 38.0049022365 412 38.0049022365 c 0
EndSplineSet
EndChar

StartChar: J
Encoding: 74 74 9
Width: 1000
Flags: H
LayerCount: 2
Fore
SplineSet
499.004902236 754 m 0
 499.004902236 767.812968658 510.187164025 778.995097764 524 778.995097764 c 0
 524.292826037 778.995097764 524.292826037 778.995097764 653.585565726 775.988289864 c 0
 659.796635525 775.84384638 658.94716634 774.622121276 669.505952954 772.327421059 c 0
 672.008619217 771.783525666 675.195878851 771.279742273 679.154689484 769.915322928 c 0
 681.170898292 769.892515092 683.120758302 769.882826311 685.028047631 769.882826311 c 0
 690.764912917 769.882826311 697.870275618 769.995097764 698 769.995097764 c 0
 704.657410809 769.995097764 704.657410809 769.995097764 731.400840108 754.713138164 c 0
 733.876100696 753.298703542 743.995097764 746.679855115 743.995097764 733 c 0
 743.995097764 719.187031342 732.812835975 708.004902236 719 708.004902236 c 0
 712.342589191 708.004902236 712.342589191 708.004902236 691.484490255 719.923815914 c 1
 689.137403745 719.923815914 686.721897243 719.914536978 684.210571697 719.914536978 c 0
 671.520056107 719.914536978 668.516193557 719.914536978 663.234252637 722.43161261 c 0
 658.968771447 723.598416441 654.488238416 724.188122267 648.438647035 726.104170305 c 1
 523.414434274 729.011710136 l 2
 509.839520076 729.327405815 499.004902236 740.409588516 499.004902236 754 c 0
223 338.004902236 m 0
 209.187031342 338.004902236 198.004902236 349.187164025 198.004902236 363 c 2
 198.004902236 369 l 2
 198.004902236 382.812968658 209.187164025 393.995097764 223 393.995097764 c 0
 226.713325866 393.995097764 234.594600332 393.086589932 241.124378936 386.219584038 c 0
 244.584821657 385.398344441 244.584821657 385.398344441 261.281485427 379.576618932 c 1
 299.210837251 384.995097764 299.210837251 384.995097764 301 384.995097764 c 0
 314.812968658 384.995097764 325.995097764 373.812835975 325.995097764 360 c 0
 325.995097764 347.499839471 316.803202986 337.006907985 304.558786073 335.257705569 c 0
 260.789162749 329.004902236 260.789162749 329.004902236 259 329.004902236 c 0
 248.475789889 329.004902236 234.697301845 338.004902236 223 338.004902236 c 0
691.995097764 753 m 0
 691.995097764 739.187031342 680.812835975 728.004902236 667 728.004902236 c 0
 666.23752799 728.004902236 666.23752799 728.004902236 566.476578438 734.051020391 c 0
 553.300495924 734.849570847 543.004902236 745.75973774 543.004902236 759 c 0
 543.004902236 772.812968658 554.187164025 783.995097764 568 783.995097764 c 0
 568.76247201 783.995097764 568.76247201 783.995097764 668.523421562 777.948979609 c 0
 681.699504076 777.150429153 691.995097764 766.24026226 691.995097764 753 c 0
591.004902236 744 m 0
 591.004902236 757.812968658 602.187164025 768.995097764 616 768.995097764 c 0
 628.359941639 768.995097764 638.765128494 760.006820831 640.682795563 747.952913542 c 0
 661.995097764 613.989871136 661.995097764 613.989871136 661.995097764 612 c 0
 661.995097764 598.187031342 650.812835975 587.004902236 637 587.004902236 c 0
 624.640058361 587.004902236 614.234871506 595.993179169 612.317204437 608.047086458 c 0
 591.004902236 742.010128864 591.004902236 742.010128864 591.004902236 744 c 0
637 630.995097764 m 0
 650.812968658 630.995097764 661.995097764 619.812835975 661.995097764 606 c 2
 661.995097764 601.215618487 l 1
 670.995097764 508.215618487 670.995097764 508.215618487 670.995097764 507 c 0
 670.995097764 493.187031342 659.812835975 482.004902236 646 482.004902236 c 0
 633.090104757 482.004902236 622.358091841 491.801422262 621.121947038 504.57491856 c 0
 612.004902236 598.784381513 612.004902236 598.784381513 612.004902236 600 c 2
 612.004902236 606 l 2
 612.004902236 619.812968658 623.187164025 630.995097764 637 630.995097764 c 0
621.004902236 498 m 0
 621.004902236 511.812968658 632.187164025 522.995097764 646 522.995097764 c 0
 658.012428849 522.995097764 668.193015654 514.50225957 670.507205362 502.931311034 c 0
 673.937228738 485.781194154 673.937228738 485.781194154 673.988289864 483.585565726 c 0
 676.995097764 354.292826037 676.995097764 354.292826037 676.995097764 354 c 0
 676.995097764 340.187031342 665.812835975 329.004902236 652 329.004902236 c 0
 638.408200899 329.004902236 627.32737355 339.840907484 627.011710136 353.414434274 c 2
 624.062771262 480.218805846 l 1
 621.004902236 495.508150976 621.004902236 495.508150976 621.004902236 498 c 0
652 372.995097764 m 0
 665.812968658 372.995097764 676.995097764 361.812835975 676.995097764 348 c 2
 676.995097764 219 l 2
 676.995097764 205.187031342 665.812835975 194.004902236 652 194.004902236 c 0
 638.187031342 194.004902236 627.004902236 205.187164025 627.004902236 219 c 2
 627.004902236 348 l 2
 627.004902236 361.812968658 638.187164025 372.995097764 652 372.995097764 c 0
646 228.995097764 m 0
 659.812968658 228.995097764 670.995097764 217.812835975 670.995097764 204 c 0
 670.995097764 201.19568041 670.526743929 198.39136082 669.590036261 195.715053197 c 0
 654.842747921 154.763114127 641.004773543 112.901861094 627.815959626 70.3914476007 c 0
 624.57877001 60.2174230922 615.070653916 53.0049022365 604 53.0049022365 c 0
 590.187031342 53.0049022365 579.004902236 64.187164025 579.004902236 78 c 0
 579.004902236 80.5689886271 579.397948282 83.1379772542 580.184040374 85.6085523993 c 0
 601.29218714 151.948442236 601.29218714 151.948442236 622.409963739 212.284946803 c 0
 625.84277463 222.092977923 635.169205138 228.995097764 646 228.995097764 c 0
589 90.9950977635 m 0
 602.812968658 90.9950977635 613.995097764 79.812835975 613.995097764 66 c 0
 613.995097764 62.873046242 613.19989575 51.7620786717 602.411334341 44.8966305029 c 0
 566.586903368 22.0992653381 566.586903368 22.0992653381 563.381164616 21.1128841836 c 2
 485.381164616 -2.88711581637 l 2
 482.980537064 -3.6257704478 480.490268532 -3.99509776351 478 -3.99509776351 c 2
 466 -3.99509776351 l 2
 452.187031342 -3.99509776351 441.004902236 7.18716402497 441.004902236 21 c 0
 441.004902236 34.8129686579 452.187164025 45.9950977635 466 45.9950977635 c 2
 474.219776712 45.9950977635 l 1
 545.413096632 67.9007346619 l 1
 575.588665659 87.1033694971 l 2
 579.665714319 89.697855008 584.332857159 90.9950977635 589 90.9950977635 c 0
487.995097764 18 m 0
 487.995097764 4.18703134208 476.812835975 -6.99509776351 463 -6.99509776351 c 0
 457.843762907 -6.99509776351 431.176957348 0.251061257834 430.865122418 0.357976091036 c 2
 325.865122418 36.357976091 l 2
 315.976316304 39.7484239015 309.004902236 49.1150088097 309.004902236 60 c 0
 309.004902236 73.8129686579 320.187164025 84.9950977635 334 84.9950977635 c 0
 336.751950321 84.9950977635 339.503900643 84.5440731453 342.134877582 83.642023909 c 2
 446.127819544 47.9873009507 l 1
 475.781444297 40.5738947624 475.781444297 40.5738947624 480.67766953 35.6776695297 c 0
 485.555955019 30.7993840404 487.995097764 24.3996920202 487.995097764 18 c 0
355.995097764 60 m 2
 355.995097764 46.1870313421 344.812835975 35.0049022365 331 35.0049022365 c 0
 319.187200331 35.0049022365 309.140742739 43.2188972555 306.612272388 54.5050744322 c 1
 266.466374716 114.723920939 266.466374716 114.723920939 265.433609802 117.647801937 c 0
 257.705904168 139.525860861 234.004902236 181.680657997 234.004902236 198 c 2
 234.004902236 204 l 2
 234.004902236 217.812968658 245.187164025 228.995097764 259 228.995097764 c 0
 272.812968658 228.995097764 283.995097764 217.812835975 283.995097764 204 c 2
 283.995097764 201.710411667 l 1
 290.933562127 179.713609524 302.658253316 161.181680511 311.478934331 137.35811549 c 1
 351.815020238 76.8539866293 l 2
 354.601738588 72.6739091039 355.995097764 67.836954552 355.995097764 63 c 2
 355.995097764 60 l 2
244 164.004902236 m 0
 230.187031342 164.004902236 219.004902236 175.187164025 219.004902236 189 c 0
 219.004902236 189.867385293 219.004902236 189.867385293 231.064567404 364.732530221 c 0
 231.966865573 377.815853669 242.835852904 387.995097764 256 387.995097764 c 0
 269.812968658 387.995097764 280.995097764 376.812835975 280.995097764 363 c 0
 280.995097764 362.132614707 280.995097764 362.132614707 268.935432596 187.267469779 c 0
 268.033134427 174.184146331 257.164147096 164.004902236 244 164.004902236 c 0
EndSplineSet
EndChar

StartChar: K
Encoding: 75 75 10
Width: 1000
Flags: H
LayerCount: 2
Fore
SplineSet
715 52.9950977635 m 0
 716.17351267 52.9950977635 716.620537284 52.9152674251 718.369722316 52.9152674251 c 0
 736.597557745 52.9152674251 761.610890246 62.3611214299 761.997606841 75.5578433202 c 1
 752.769004613 82.8469582032 752.769004613 82.8469582032 747.754137069 102.906428378 c 0
 747.254647181 104.904387931 747.004902236 106.952193966 747.004902236 109 c 0
 747.004902236 122.812968658 758.187164025 133.995097764 772 133.995097764 c 0
 783.601919776 133.995097764 793.501398898 126.071427754 796.245862931 115.093571622 c 0
 797.214636617 111.218476879 797.214636617 111.218476879 798.60166837 109.831445126 c 0
 803.303695117 105.129417849 812.614029666 94.6812438973 812.614029666 79.8209735285 c 0
 812.614029666 77.5333024913 812.393382165 75.141068289 811.901306607 72.64913805 c 0
 809.434625204 27.9454864201 761.498307455 2.91293131728 718.824098464 2.91293131728 c 0
 717.550821708 2.91293131728 716.284124902 2.93584040801 715.025075752 2.98162010394 c 0
 713.12780465 2.90560789144 711.247406648 2.8679813753 709.384244217 2.8679813753 c 0
 625.901175486 2.8679813753 581.810481303 75.5365133007 581.810481303 167.911366757 c 0
 581.810481303 187.534930034 583.914073817 206.752871862 587.695219829 224.392554112 c 1
 574.125608954 346.519051986 l 1
 538.32233047 382.32233047 l 2
 533.444044981 387.20061596 531.004902236 393.60030798 531.004902236 400 c 0
 531.004902236 413.812968658 542.187164025 424.995097764 556 424.995097764 c 0
 562.39969202 424.995097764 568.79938404 422.555955019 573.67766953 417.67766953 c 2
 615.67766953 375.67766953 l 2
 619.848434007 371.506905052 622.236269178 366.22404482 622.841175043 360.779892037 c 0
 637.995097764 224.394587554 637.995097764 224.394587554 637.995097764 223 c 0
 637.995097764 216.475789238 631.900649865 199.897735119 631.900649865 167.705883261 c 0
 631.900649865 142.040364008 637.06363893 52.8436562137 708.835206371 52.8436562137 c 0
 710.903517701 52.8436562137 714.938333465 52.9950977635 715 52.9950977635 c 0
367 64.9950977635 m 0
 369.094808428 64.9950977635 370.5010144 64.6953469791 373.918616068 64.6953469791 c 0
 388.930970021 64.6953469791 397.84531985 71.7374886384 410.350175805 90.1143537987 c 1
 431.930635289 154.855732252 l 1
 430.33802655 242.449212899 l 1
 397.260580832 212.065295218 397.260580832 212.065295218 393.193183167 207.997897553 c 0
 374.451742461 189.256456688 359.362633799 170.049210728 350.08953516 144.106706341 c 1
 349.963051283 125.341586129 343.38697022 110.655060174 343.38697022 98.7322021142 c 0
 343.38697022 95.2181461281 343.995097764 94.5137928325 343.995097764 91 c 0
 343.995097764 86.5264760095 342.91162029 84.9353562009 342.91162029 80.8834943164 c 0
 342.91162029 69.924992134 353.393883456 64.7672620322 362.233066959 64.7672620322 c 0
 364.298753085 64.7672620322 364.911420431 64.9950977635 367 64.9950977635 c 0
396.112707801 679.246220692 m 0
 396.112707801 681.756845654 396.004902236 684.942452108 396.004902236 685 c 0
 396.004902236 698.812968658 407.187164025 709.995097764 421 709.995097764 c 0
 434.415884441 709.995097764 445.412101387 699.431308931 445.97298712 686.055110108 c 0
 446.073560405 683.656603284 446.108707125 681.353956855 446.108707125 679.147938451 c 0
 446.108707125 673.80213804 445.895300687 668.632749399 445.895300687 663.550721852 c 0
 445.895300687 591.210448473 463.339888601 536.071207284 463.931112694 527.794069984 c 2
 474.382343128 381.476843904 l 1
 500.009660061 406.539588955 531.866761883 418.855557313 557.865478991 428.889540477 c 0
 630.339253408 465.248124667 680.371872913 507.643290687 699.320652863 569.723960318 c 1
 704.047360111 624.081093673 l 1
 702.685721528 627.237825273 702.004902236 630.618912637 702.004902236 634 c 0
 702.004902236 647.812968658 713.187164025 658.995097764 727 658.995097764 c 2
 730 658.995097764 l 2
 743.812968658 658.995097764 754.995097764 647.812835975 754.995097764 634 c 0
 754.995097764 633.236689318 749.238504568 562.25577775 747.998257272 557.99028876 c 0
 721.219981735 465.893785234 643.382778735 415.697681568 579.177495304 383.632515916 c 0
 578.472675764 383.280517543 577.754637467 382.963884773 577.026036613 382.682617605 c 0
 532.184916725 365.37226896 501.225226728 349.693250741 489.781426003 314.283759297 c 0
 488.876058554 311.482364749 486.147939521 306.274689232 479.355812954 296.389614378 c 1
 481.999259112 151.000075661 l 2
 481.999259112 148.318368381 481.566803941 145.63658544 480.710216297 143.066822507 c 0
 455.67629547 67.9650600257 455.67629547 67.9650600257 453.877248079 65.2398148585 c 0
 439.47779343 43.4271353291 417.540689662 14.7325524938 373.431411729 14.7325524938 c 0
 371.339193442 14.7325524938 369.222127254 14.7989979024 367.082573503 14.9330352938 c 0
 365.419918997 14.8244833831 363.761256117 14.7705263242 362.109230516 14.7705263242 c 0
 323.989387156 14.7705263242 293.016332918 43.1867842885 293.016332918 81.5296064771 c 0
 293.016332918 84.8134138575 293.248806959 88.1503382173 293.727888232 91.5220451363 c 0
 293.456432073 94.2030735929 293.33807956 96.8028596019 293.33807956 99.3159994007 c 0
 293.33807956 117.995903806 300.088364139 133.141344423 300.088364139 145.082736081 c 0
 300.088364139 146.396870426 300.004902236 146.72192318 300.004902236 148 c 0
 300.004902236 150.631221082 300.417221617 153.262442163 301.241860377 155.787923058 c 0
 313.57623249 193.562306966 335.363953006 220.879345512 357.837844107 243.353236613 c 0
 382.279946616 267.795339121 408.825408553 287.971227244 429.061497734 312.658297817 c 1
 424.33643825 382.695530721 419.127473676 452.248858534 414.219111671 522.102788917 c 1
 403.267375062 567.34538699 395.899689808 613.283287627 395.899689808 663.655097651 c 0
 395.899689808 669.004835319 396.112707801 674.158885054 396.112707801 679.246220692 c 0
EndSplineSet
EndChar

StartChar: L
Encoding: 76 76 11
Width: 1000
Flags: H
LayerCount: 2
Fore
SplineSet
691 81.9950977635 m 0
 704.812968658 81.9950977635 715.995097764 70.812835975 715.995097764 57 c 0
 715.995097764 43.403141641 705.151253877 32.3200177156 691.572264996 32.0114043319 c 0
 559.286172796 29.0049022365 559.286172796 29.0049022365 559 29.0049022365 c 0
 545.187031342 29.0049022365 534.004902236 40.187164025 534.004902236 54 c 0
 534.004902236 67.596858359 544.848746123 78.6799822844 558.427735004 78.9885956681 c 0
 690.713827204 81.9950977635 690.713827204 81.9950977635 691 81.9950977635 c 0
568.995097764 54 m 0
 568.995097764 40.1870313421 557.812835975 29.0049022365 544 29.0049022365 c 0
 543.700204044 29.0049022365 543.700204044 29.0049022365 417.40050075 32.0120380292 c 0
 403.832002416 32.3350975133 393.004902236 43.4141975149 393.004902236 57 c 0
 393.004902236 70.8129686579 404.187164025 81.9950977635 418 81.9950977635 c 0
 418.299795956 81.9950977635 418.299795956 81.9950977635 544.59949925 78.9879619708 c 0
 558.167997584 78.6649024867 568.995097764 67.5858024851 568.995097764 54 c 0
436.995097764 57 m 0
 436.995097764 43.1870313421 425.812835975 32.0049022365 412 32.0049022365 c 0
 411.16145655 32.0049022365 411.16145655 32.0049022365 365.463960145 35.0514019968 c 2
 257.603085183 41.043672828 l 2
 244.37204784 41.7787304582 234.004902236 52.7128548501 234.004902236 66 c 0
 234.004902236 79.8129686579 245.187164025 90.9950977635 259 90.9950977635 c 0
 260.549399299 90.9950977635 341.25217509 86.7700098839 413.675062416 81.9393298324 c 0
 426.783549082 81.0654307214 436.995097764 70.1854622356 436.995097764 57 c 0
340 32.0049022365 m 0
 326.187031342 32.0049022365 315.004902236 43.187164025 315.004902236 57 c 0
 315.004902236 57.8586553776 320.991216497 168.767635976 321.076301426 169.895011291 c 0
 333.127785507 329.577175361 333.127785507 329.577175361 333.216224455 330.255207294 c 0
 351.287658778 468.802870439 351.287658778 468.802870439 351.383044814 469.346570843 c 2
 381.383044814 640.346570843 l 2
 383.463981524 652.207910093 393.780022328 660.995097764 406 660.995097764 c 0
 419.812968658 660.995097764 430.995097764 649.812835975 430.995097764 636 c 0
 430.995097764 633.808841847 430.995097764 633.808841847 400.712341222 461.197129561 c 1
 382.872214493 324.422824639 l 1
 370.943899573 166.372651948 l 1
 364.958389634 55.6407180791 l 2
 364.242343487 42.3938643514 353.30157554 32.0049022365 340 32.0049022365 c 0
EndSplineSet
EndChar

StartChar: M
Encoding: 77 77 12
Width: 1000
Flags: H
LayerCount: 2
Fore
SplineSet
635.427089598 250.501025708 m 0
 635.427089598 217.505282407 627.850784972 175.869740613 627.850784972 162.606525857 c 0
 627.850784972 141.819672869 636.023021038 119.177366994 637.811995981 93.6999659086 c 0
 642.409114301 73.5290062593 642.540416622 52.6486000371 648.003447844 39.8002697833 c 0
 649.331214457 36.6775375025 649.995097764 33.3387687513 649.995097764 30 c 0
 649.995097764 16.1870313421 638.812835975 5.00490223649 625 5.00490223649 c 0
 614.715485261 5.00490223649 605.812652087 11.2247655508 601.996552156 20.1997302167 c 0
 592.361751264 42.8595135447 593.44082447 64.6978826761 588.720280343 84.0434983093 c 0
 586.825289761 91.8095012166 590.047477513 85.4189334389 583.478404203 118.270822811 c 0
 580.940920179 130.960765064 577.784348746 145.596496348 577.784348746 161.905329308 c 0
 577.784348746 180.67382112 585.418169456 220.421426128 585.418169456 250.97906663 c 0
 585.418169456 254.193500893 585.339793499 257.377673301 585.168344042 260.532975425 c 2
 565.571790309 350.11722106 l 1
 493.10134118 460.272303737 l 2
 490.370381884 464.423361866 489.004902236 469.211680933 489.004902236 474 c 0
 489.004902236 487.812968658 500.187164025 498.995097764 514 498.995097764 c 0
 517.204276483 498.995097764 528.021621382 498.180793168 534.89865882 487.727696263 c 2
 609.89865882 373.727696263 l 2
 611.601914393 371.138747792 612.774023356 368.30191647 613.414985708 365.371802862 c 0
 634.816421879 267.53666608 634.816421879 267.53666608 634.940393775 265.659026146 c 0
 635.279028367 260.530171531 635.427089598 255.477022049 635.427089598 250.501025708 c 0
409 209.004902236 m 0
 395.187031342 209.004902236 384.004902236 220.187164025 384.004902236 234 c 0
 384.004902236 237.560860599 384.760044909 241.121721199 386.270330254 244.420502348 c 2
 500.270330254 493.420502348 l 2
 504.223561669 502.055192016 512.949175404 507.995097764 523 507.995097764 c 0
 536.812968658 507.995097764 547.995097764 496.812835975 547.995097764 483 c 0
 547.995097764 479.439139401 547.239955091 475.878278801 545.729669746 472.579497652 c 2
 431.729669746 223.579497652 l 2
 427.776438331 214.944807984 419.050824596 209.004902236 409 209.004902236 c 0
436.995097764 252 m 0
 436.995097764 238.187031342 425.812835975 227.004902236 412 227.004902236 c 0
 401.041866863 227.004902236 391.621989662 234.070204631 388.289783703 244.066822507 c 0
 370.118454588 298.580809853 370.118454588 298.580809853 369.969508776 299.102120195 c 2
 352.642266011 359.74746987 l 1
 296.75820134 468.574332651 l 2
 294.922668604 472.148791136 294.004902236 476.074395568 294.004902236 480 c 0
 294.004902236 493.812968658 305.187164025 504.995097764 319 504.995097764 c 0
 321.551520552 504.995097764 334.606422794 504.347188772 341.24179866 491.425667349 c 0
 399.357733989 378.25253013 399.357733989 378.25253013 400.030491224 375.897879805 c 2
 417.881545412 313.419190147 l 1
 436.995097764 256.078533093 436.995097764 256.078533093 436.995097764 252 c 0
163 -15.9950977635 m 0
 149.187031342 -15.9950977635 138.004902236 -4.81283597503 138.004902236 9 c 0
 138.004902236 14.410425486 154.348838078 77.1392496582 154.597343565 77.8019309573 c 2
 181.331112297 149.091980908 l 1
 286.108365919 490.366464136 l 2
 286.366525265 491.207326007 291.749255365 507.995097764 310 507.995097764 c 0
 323.812968658 507.995097764 334.995097764 496.812835975 334.995097764 483 c 0
 334.995097764 480.514814216 334.627276536 478.029628432 333.891634081 475.633535864 c 0
 228.668887703 132.908019092 228.668887703 132.908019092 228.402656435 132.198069043 c 2
 201.901006422 61.5270023411 l 1
 187.245862931 2.9064283781 l 2
 184.501858464 -8.06958949135 174.603799975 -15.9950977635 163 -15.9950977635 c 0
EndSplineSet
EndChar

StartChar: N
Encoding: 78 78 13
Width: 1000
Flags: H
LayerCount: 2
Fore
SplineSet
590.238036812 771.101595894 m 0
 590.238036812 732.224853292 625.576232872 696.098557152 625.576232872 640.81580249 c 0
 625.576232872 632.678570306 624.794404614 624.163357302 622.979594902 615.25943172 c 1
 621.47680379 404.982741485 552.91103859 211.414689685 483.558996362 15.6268987453 c 0
 483.104993935 14.345199599 477.30966181 -0.995097763512 460 -0.995097763512 c 0
 446.187031342 -0.995097763512 435.004902236 10.187164025 435.004902236 24 c 0
 435.004902236 26.0758991944 435.004902236 28.3188425474 436.899214751 33.6666773132 c 0
 504.750356009 225.216927819 572.106804345 416.638264831 573.005152609 618.112303456 c 0
 573.030998453 623.908793301 575.649670126 628.883370029 575.649670126 641.155701025 c 0
 575.649670126 682.255348177 540.480807575 717.598774445 540.480807575 771.772760115 c 0
 540.480807575 783.027736547 543.170350576 811.525689635 553.32233047 821.67766953 c 0
 558.20061596 826.555955019 564.60030798 828.995097764 571 828.995097764 c 0
 584.812968658 828.995097764 595.995097764 817.812835975 595.995097764 804 c 0
 595.995097764 795.228472883 590.238036812 788.359637724 590.238036812 771.101595894 c 0
478.995097764 2.7386946877e-14 m 0
 478.995097764 -13.8129686579 467.812835975 -24.9950977635 454 -24.9950977635 c 0
 442.48416934 -24.9950977635 432.647237285 -17.1889461507 429.8172774 -6.34076658983 c 0
 411.023836727 65.7007559916 411.023836727 65.7007559916 411.00533624 68.852141732 c 0
 410.725886831 116.453747951 389.118376162 180.280560304 387.060032061 211.334536824 c 0
 379.00846155 332.807560452 300.655471806 427.760056128 300.005854008 569.726817929 c 0
 299.683244711 588.345350174 299.402684393 607.06833536 299.402684393 625.895174229 c 0
 299.402684393 639.105331529 299.540814202 652.366619686 299.899468805 665.678831682 c 0
 297.456075541 673.655991132 294.566994323 681.897562613 291.55714116 690.453306318 c 0
 283.134244092 714.396051915 273.004902236 743.189500672 273.004902236 771 c 0
 273.004902236 784.812968658 284.187164025 795.995097764 298 795.995097764 c 0
 311.603313774 795.995097764 322.690571878 785.14078412 322.989024403 771.553078868 c 0
 323.425142911 751.697828069 330.371004363 730.80499743 338.710887413 707.098225691 c 0
 349.552758188 676.279357588 349.995097764 673.072232698 349.995097764 669 c 0
 349.995097764 667.349718099 349.3951866 652.841895667 349.3951866 625.94140708 c 0
 349.3951866 521.080259695 351.661658037 498.045181158 393.055019723 385.52586062 c 0
 412.269826452 333.294369472 432.549935685 278.874202231 436.888407636 215.431208307 c 0
 442.692228732 170.147642078 459.968650374 124.874104781 460.954741616 72.3813603619 c 1
 478.995097764 3.22666179635 478.995097764 3.22666179635 478.995097764 2.7386946877e-14 c 0
273.004902236 759 m 0
 273.004902236 772.812968658 284.187164025 783.995097764 298 783.995097764 c 0
 306.086271981 783.995097764 328.995097764 776.515530972 328.995097764 756 c 0
 328.995097764 753.894704973 328.731133583 751.789409946 328.203205223 749.738278447 c 2
 145.203205223 38.7382784473 l 2
 142.400693871 27.8498327026 132.544678577 20.0049022365 121 20.0049022365 c 0
 107.187031342 20.0049022365 96.0049022365 31.187164025 96.0049022365 45 c 0
 96.0049022365 47.105295027 96.2688664167 49.210590054 96.7967947771 51.2617215527 c 2
 275.931313831 747.243377547 l 1
 273.980372768 750.905732766 273.004902236 754.952866383 273.004902236 759 c 0
EndSplineSet
EndChar

StartChar: O
Encoding: 79 79 14
Width: 1000
Flags: H
LayerCount: 2
Fore
SplineSet
469.604435138 790.084896794 m 0
 478.715729518 790.084896794 487.1503848 788.816124693 494.954232869 786.995097764 c 1
 523 786.995097764 l 2
 525.058410598 786.995097764 539.583551645 786.475532039 545.900876783 772.03805166 c 1
 619.812510064 758.255866477 699.061250526 713.97565409 736.124424318 561.275882571 c 0
 753.773361735 488.562500654 758.066552272 409.210359268 761.90902286 340.860460379 c 0
 763.389728186 314.521668896 764.78432184 289.836787164 766.734531585 268.018517756 c 0
 771.62422535 246.87129698 774.005890505 226.964401841 774.005890505 208.281371046 c 0
 774.005890505 27.872217983 556.952015765 -0.261346921558 456.397515457 -9.88070532277 c 0
 455.600326134 -9.95696694993 454.800163067 -9.99509776351 454 -9.99509776351 c 0
 453.20828968 -9.99509776351 452.416579361 -9.95776830591 451.627749535 -9.88310939069 c 0
 221.012257649 11.9435278611 21.7638451355 219.90162154 -14.6662784068 442.944629598 c 0
 -14.8854913113 444.286758058 -14.9950977635 445.643379029 -14.9950977635 447 c 0
 -14.9950977635 449.041303536 -14.7469363559 451.082607072 -14.2506135406 453.07453746 c 0
 15.5772187754 572.784862627 119.291400543 704.641294104 404.916435834 775.141139053 c 0
 407.762621789 777.537385794 411.019227535 779.197976438 414.434252537 780.122911513 c 0
 416.91992326 780.796137636 420.058076517 781.837621304 423.711137464 783.072078495 c 0
 432.158729014 785.926722948 444.270144654 790.521792771 459.094608491 790.521792771 c 0
 461.716400523 790.521792771 464.423051182 790.378068338 467.20930107 790.055573485 c 0
 468.012827932 790.075279966 468.811195873 790.084896794 469.604435138 790.084896794 c 0
454.014880826 40.1137342651 m 1
 621.225309691 56.4225862086 724.023211332 101.798377214 724.023211332 208.320347394 c 0
 724.023211332 235.582447304 717.538326726 257.015053378 717.109377485 261.708519544 c 0
 714.9591371 285.235966474 713.518624626 310.98853095 711.998222961 338.033448471 c 0
 702.549387497 506.109412561 688.830449846 694.698835798 539.720046747 722.369678706 c 0
 520.056388338 725.549384015 503.875795354 732.691300373 488.023337968 737.004902236 c 1
 462.59947733 737.004902236 l 1
 451.903472811 734.7602168 441.052851752 732.34354996 430.098242977 729.742903918 c 1
 420.67766953 720.32233047 l 2
 415.799384034 715.444045108 409.399692038 713.004902413 403.000000041 713.004902413 c 0
 397.360683196 713.004902413 391.721366352 714.898867874 387.123041856 718.686798817 c 1
 218.096371384 671.687373629 73.9806963313 589.121578728 35.5400248098 445.908607912 c 1
 70.4587037774 247.723285538 249.36756797 60.7870768845 454.014880826 40.1137342651 c 1
EndSplineSet
EndChar

StartChar: P
Encoding: 80 80 15
Width: 1000
Flags: H
LayerCount: 2
Fore
SplineSet
432.405170601 461.436761368 m 0
 438.339562383 458.357330731 450.987670705 457.677526067 463.457691724 457.007293155 c 0
 475.944252554 457.259532231 489.312077412 458.760407101 503.778399561 460.429209514 c 0
 509.833345099 461.127694369 516.077146196 461.849420812 522.521308082 462.489711909 c 0
 555.491834863 476.093210937 593.166801403 464.000010784 603.704721906 481.104856961 c 0
 605.303127137 483.699341859 611.941219444 492.995097764 625 492.995097764 c 2
 631 492.995097764 l 2
 644.812968658 492.995097764 655.995097764 481.812835975 655.995097764 468 c 0
 655.995097764 456.694022219 648.472016988 447.012246915 637.943188049 443.982500002 c 1
 607.815685569 412.092298801 559.19555646 424.918141927 539.978984638 415.534481182 c 0
 537.23164859 414.192927149 534.28861638 413.384989756 531.305568251 413.110669003 c 0
 524.137957548 412.451536371 516.901192073 411.618866101 509.54769916 410.770583684 c 0
 482.653064515 407.668079072 471.693152919 407.004902236 463 407.004902236 c 0
 462.600384424 407.004902236 429.74869741 407.032901387 411.312425309 416.004902236 c 1
 388 416.004902236 l 2
 375.474975833 416.004902236 327.423289579 433.382690406 313.371849177 438.532913348 c 0
 310.816814915 439.46940069 308.384476724 440.836353754 306.187631542 442.63377254 c 0
 272.215544268 470.429116673 272.215544268 470.429116673 271.32233047 471.32233047 c 0
 266.444044981 476.20061596 264.004902236 482.60030798 264.004902236 489 c 0
 264.004902236 502.812968658 275.187164025 513.995097764 289 513.995097764 c 0
 294.612940772 513.995097764 300.225881545 512.118807662 304.812368458 508.36622746 c 2
 334.559281485 484.027844075 l 1
 353.008812973 477.284146116 371.435086599 470.749847857 390.958071697 465.995097764 c 1
 418 465.995097764 l 2
 423.051065782 465.995097764 428.102131565 464.475652298 432.405170601 461.436761368 c 0
631 443.004902236 m 0
 617.187031342 443.004902236 606.004902236 454.187164025 606.004902236 468 c 2
 606.004902236 591 l 2
 606.004902236 604.812968658 617.187164025 615.995097764 631 615.995097764 c 0
 644.812968658 615.995097764 655.995097764 604.812835975 655.995097764 591 c 2
 655.995097764 468 l 2
 655.995097764 454.187031342 644.812835975 443.004902236 631 443.004902236 c 0
652.995097764 594 m 0
 652.995097764 580.187031342 641.812835975 569.004902236 628 569.004902236 c 0
 616.398080224 569.004902236 606.498601102 576.928572246 603.754137069 587.906428378 c 2
 595.671163983 620.238320723 l 1
 588.586566865 632.358207405 582.259588841 648.286148594 576.402422655 659.362845083 c 0
 556.555644114 690.274783294 537.691344805 698.35238656 523.8111238 701.004902236 c 1
 517 701.004902236 l 2
 503.187031342 701.004902236 492.004902236 712.187164025 492.004902236 726 c 0
 492.004902236 739.812968658 503.187164025 750.995097764 517 750.995097764 c 2
 526 750.995097764 l 2
 526.815674513 750.995097764 577.632582579 750.732014418 619.117438413 685.389200237 c 0
 623.416136252 678.618319431 634.67649323 651.922047027 640.091129477 643.430549185 c 0
 643.52337886 638.047927546 652.995097764 598.539539491 652.995097764 594 c 0
532.995097764 729 m 0
 532.995097764 715.187031342 521.812835975 704.004902236 508 704.004902236 c 0
 499.655621292 704.004902236 497.116833795 705.90899286 484.2429448 715.564409605 c 1
 463.075678272 722.620165115 l 1
 389.074886981 734.004902236 l 1
 301 734.004902236 l 2
 287.187031342 734.004902236 276.004902236 745.187164025 276.004902236 759 c 0
 276.004902236 772.812968658 287.187164025 783.995097764 301 783.995097764 c 2
 391 783.995097764 l 2
 392.925113019 783.995097764 392.925113019 783.995097764 472.825916684 771.70266643 c 0
 474.924321728 771.379834885 474.924321728 771.379834885 503.933177493 761.710216297 c 0
 510.779973924 759.42795082 525.490747033 746.864592026 525.67766953 746.67766953 c 0
 530.555955019 741.79938404 532.995097764 735.39969202 532.995097764 729 c 0
286 -0.995097763512 m 0
 272.187031342 -0.995097763512 261.004902236 10.187164025 261.004902236 24 c 0
 261.004902236 24.9671634622 262.810095454 24.880447317 264.023492174 64.2088326503 c 0
 268.820095075 219.67542003 267.014901857 219.762136175 267.026375858 220.039806986 c 2
 281.941197394 580.978488176 l 1
 261.004902236 751.459748748 261.004902236 751.459748748 261.004902236 753 c 0
 261.004902236 766.812968658 272.187164025 777.995097764 286 777.995097764 c 0
 298.6760517 777.995097764 309.275185534 768.545250833 310.807478286 756.068009857 c 0
 331.995097764 583.540251252 331.995097764 583.540251252 331.995097764 582 c 0
 331.995097764 581.479854646 329.581918062 581.552908477 316.985098143 218.237863825 c 0
 311.563328124 61.8642211804 313.976507826 61.7911673497 313.920939374 61.0687774779 c 2
 310.920939374 22.0687774779 l 2
 309.92121203 9.07232199735 299.089925631 -0.995097763512 286 -0.995097763512 c 0
EndSplineSet
EndChar

StartChar: Q
Encoding: 81 81 16
Width: 1000
Flags: H
LayerCount: 2
Fore
SplineSet
673.995097764 45 m 0
 673.995097764 31.1870313421 662.812835975 20.0049022365 649 20.0049022365 c 0
 642.206947563 20.0049022365 635.507748792 22.7495003352 630.605206795 28.0692799486 c 2
 489.605206795 181.069279949 l 2
 485.205003756 185.843968353 483.004902236 191.921984176 483.004902236 198 c 0
 483.004902236 211.812968658 494.187164025 222.995097764 508 222.995097764 c 0
 514.793052437 222.995097764 521.492251208 220.250499665 526.394793205 214.930720051 c 2
 667.394793205 61.9307200514 l 2
 671.794996244 57.1560316474 673.995097764 51.0780158237 673.995097764 45 c 0
574.786429655 744.965024166 m 0
 575.287586711 744.965024166 576.977862254 744.995097764 577 744.995097764 c 0
 581.618448904 744.995097764 614.31256412 739.651934945 641.109322026 712.85517704 c 0
 687.383131909 666.581367157 690.414113051 587.374696565 692.936131848 521.468409874 c 0
 694.17393482 489.121705065 694.995097764 480.415194937 694.995097764 480 c 0
 694.995097764 477.641993081 686.779304577 346.522287332 658.975165038 246.966674552 c 0
 639.393282392 176.851707553 588.657149682 31.2394638563 439.444357317 14.2336143438 c 0
 426.146045383 12.071047544 413.493392013 11.0232593963 401.498924783 11.0232593963 c 0
 341.502628249 11.0232593963 272.651945483 37.0689637369 247.171672104 146.061976897 c 0
 238.998169609 181.024500721 236.583207392 218.168691211 236.583207392 253.034683208 c 0
 236.583207392 272.781907509 236.583207392 278.637848934 238.491280238 289.86814472 c 0
 261.534446656 425.492722817 295.551309245 624.02202585 424.606401216 698.293018232 c 1
 450.27382474 732.363668796 485.24212679 740.472961267 517.730871035 747.437220099 c 0
 518.134776331 747.523800885 524.432869179 748.785785466 533.46192008 748.785785466 c 0
 549.342395625 748.785785466 562.399663245 744.965024166 574.786429655 744.965024166 c 0
577 662.004902236 m 0
 562.818162853 662.004902236 541.242202876 677.345044261 533.497961654 677.345044261 c 0
 532.715243152 677.345044261 531.91287005 677.081433149 529.760788152 677.016395237 c 0
 502.895342597 676.204497325 479.69495299 670.34132806 459.24423336 660.326016795 c 0
 458.084192179 658.728853119 458.084192179 658.728853119 396.67766953 597.32233047 c 0
 392.872254606 593.516915585 388.141044601 591.195749873 383.206226517 590.358833352 c 0
 325.807797919 505.126573682 304.222157547 378.184504104 286.931568802 276.501020013 c 0
 286.719098758 269.153888213 286.598662767 261.680870809 286.598662767 254.147502308 c 0
 286.598662767 93.9655188354 341.725217054 60.8349860702 400.088502564 60.8349860702 c 0
 409.653496885 60.8349860702 420.209501909 61.7288035719 431.901904843 63.6592622397 c 0
 432.339635246 63.731533137 432.778924317 63.7921396579 433.219268925 63.8410818024 c 0
 601.137929561 82.5044177832 630.852361688 313.999992928 644.924543762 480.111821273 c 0
 644.004772328 492.6245223 643.50534344 505.886354952 642.982774251 519.542317704 c 0
 640.685149091 579.584670554 637.691625485 651.074183028 601.387654151 681.504746539 c 1
 598.8591862 670.21929002 588.81324746 662.004902236 577 662.004902236 c 0
EndSplineSet
EndChar

StartChar: R
Encoding: 82 82 17
Width: 1000
Flags: H
LayerCount: 2
Fore
SplineSet
625.995097764 51 m 0
 625.995097764 37.1870313421 614.812835975 26.0049022365 601 26.0049022365 c 0
 591.168018185 26.0049022365 582.612455582 31.687743033 578.543718987 40.0021178137 c 2
 510.280342249 179.496844193 l 1
 286.213383213 514.103503019 l 2
 283.407729229 518.293279636 282.004902236 523.146639818 282.004902236 528 c 0
 282.004902236 541.812968658 293.187164025 552.995097764 307 552.995097764 c 0
 310.245028635 552.995097764 320.906679026 552.170537371 327.786616787 541.896496981 c 0
 553.719657751 204.503155807 553.719657751 204.503155807 554.456281013 202.997882186 c 2
 623.456281013 61.9978821863 l 2
 625.148825513 58.5392042936 625.995097764 54.7696021468 625.995097764 51 c 0
282.004902236 567 m 0
 282.004902236 580.812968658 293.187164025 591.995097764 307 591.995097764 c 0
 310.126953758 591.995097764 321.237921328 591.19989575 328.103369497 580.411334341 c 2
 347.806375179 549.449468271 l 1
 362.729579368 533.914845361 423.142194312 472.756655218 562.60256793 465.995097764 c 1
 598 465.995097764 l 2
 611.812968658 465.995097764 622.995097764 454.812835975 622.995097764 441 c 0
 622.995097764 427.187031342 611.812835975 416.004902236 598 416.004902236 c 2
 562 416.004902236 l 2
 561.603357829 416.004902236 561.206715658 416.014271746 560.810435701 416.033010764 c 0
 465.314160728 420.548773967 372.997382376 449.660849011 309.779586692 516.881969155 c 0
 308.158529994 518.605680743 308.158529994 518.605680743 285.896630503 553.588665659 c 0
 283.302144992 557.665714319 282.004902236 562.332857159 282.004902236 567 c 0
619 428.004902236 m 0
 605.187031342 428.004902236 594.004902236 439.187164025 594.004902236 453 c 0
 594.004902236 458.922273993 594.004902236 458.922273993 608.418533312 487.749536144 c 1
 595.093196693 623.667969659 l 1
 508.940279754 698.704381187 508.940279754 698.704381187 508.32233047 699.32233047 c 0
 503.444044981 704.20061596 501.004902236 710.60030798 501.004902236 717 c 0
 501.004902236 730.812968658 512.187164025 741.995097764 526 741.995097764 c 0
 531.856498581 741.995097764 537.712997161 739.952442145 542.403539693 735.867130908 c 0
 618.670943398 669.440682519 635.793285023 654.562054036 636.67766953 653.67766953 c 0
 640.930982353 649.424356707 643.33009148 644.014490984 643.87499691 638.456455592 c 0
 658.995097764 484.231426888 658.995097764 484.231426888 658.995097764 483 c 0
 658.995097764 479.161266093 658.117500853 475.322532185 656.362307031 471.812144542 c 0
 639.557130461 438.201791402 639.557130461 438.201791402 636.67766953 435.32233047 c 0
 631.79938404 430.444044981 625.39969202 428.004902236 619 428.004902236 c 0
532.995097764 717 m 0
 532.995097764 703.187031342 521.812835975 692.004902236 508 692.004902236 c 0
 502.721623803 692.004902236 497.443247606 693.664182501 493.018500235 696.982743029 c 2
 459.26680737 722.296512678 l 1
 439.32166419 731.161020758 l 1
 342.259562434 734.015788457 l 2
 328.749169595 734.413152952 318.004902236 745.467785955 318.004902236 759 c 0
 318.004902236 772.812968658 329.187164025 783.995097764 343 783.995097764 c 0
 343.370306085 783.995097764 343.370306085 783.995097764 445.740437566 780.984211543 c 0
 450.67833581 780.838979242 450.67833581 780.838979242 482.168877505 766.843182933 c 0
 486.443658284 764.943280365 524.128485309 736.226853751 525.67766953 734.67766953 c 0
 530.555955019 729.79938404 532.995097764 723.39969202 532.995097764 717 c 0
343 783.995097764 m 0
 356.812968658 783.995097764 367.995097764 772.812835975 367.995097764 759 c 0
 367.995097764 745.612387185 359.613830169 740.024875455 352.314401276 735.158589526 c 1
 306.280892302 662.046545862 l 1
 259.639088582 475.479330982 l 1
 244.995097764 349.541009942 l 1
 244.995097764 57 l 2
 244.995097764 43.1870313421 233.812835975 32.0049022365 220 32.0049022365 c 0
 206.187031342 32.0049022365 195.004902236 43.187164025 195.004902236 57 c 2
 195.004902236 351 l 2
 195.004902236 354.653107702 210.424268008 484.77409538 210.754137069 486.093571622 c 2
 258.754137069 678.093571622 l 2
 259.383658726 680.611658252 260.409882626 683.05056726 261.832808769 685.31050878 c 0
 314.32479515 768.68013421 314.32479515 768.68013421 316.32233047 770.67766953 c 0
 318.087016795 772.442355854 318.087016795 772.442355854 329.146013371 779.815020238 c 0
 333.326090896 782.601738588 338.163045448 783.995097764 343 783.995097764 c 0
EndSplineSet
EndChar

StartChar: S
Encoding: 83 83 18
Width: 1000
Flags: H
LayerCount: 2
Fore
SplineSet
72.0049022365 225 m 0
 72.0049022365 238.812968658 83.187164025 249.995097764 97 249.995097764 c 0
 103.39969202 249.995097764 109.79938404 247.555955019 114.67766953 242.67766953 c 2
 136.588377799 220.76696126 l 1
 287.954064364 127.618846451 l 1
 531.481368658 38.8030060617 l 1
 650.708769593 87.577851899 l 1
 740.596460307 165.867130908 l 2
 745.287002839 169.952442145 751.143501419 171.995097764 757 171.995097764 c 0
 770.812968658 171.995097764 781.995097764 160.812835975 781.995097764 147 c 0
 781.995097764 143.330019146 781.081702977 134.82030163 773.403539693 128.132869092 c 2
 680.403539693 47.1328690919 l 2
 678.297508088 45.2985835006 675.956423487 43.8760907246 673.485823582 42.8653907637 c 2
 541.485823582 -11.1346092363 l 2
 538.453916353 -12.3749349211 535.226958176 -12.9950977635 532 -12.9950977635 c 0
 529.088717533 -12.9950977635 526.177435067 -12.4903344788 523.409378344 -11.4808079095 c 0
 266.045935636 82.381153549 266.045935636 82.381153549 263.905765835 83.6981811187 c 2
 107.905765835 179.698181119 l 2
 105.411622201 181.23303874 105.411622201 181.23303874 79.3223304703 207.32233047 c 0
 74.4440449811 212.20061596 72.0049022365 218.60030798 72.0049022365 225 c 0
757 113.004902236 m 0
 743.187031342 113.004902236 732.004902236 124.187164025 732.004902236 138 c 0
 732.004902236 145.583870341 732.004902236 145.583870341 748.184979762 169.853986629 c 0
 749.728545065 172.169334585 752.40745247 175.321699024 756.613940374 177.721577425 c 0
 759.598098417 182.034175334 761.7793602 187.609929348 764.038959745 195.06571326 c 1
 759.928477636 210.259366398 756.356561096 225.783918668 752.791782727 241.236677133 c 0
 732.433978227 329.484585777 713.806845145 401.591763905 631.623460854 419.586050835 c 0
 620.276619282 422.070474235 612.004902236 432.145766187 612.004902236 444 c 0
 612.004902236 457.812968658 623.187164025 468.995097764 637 468.995097764 c 0
 638.018516535 468.995097764 687.239040816 463.507422734 727.831570006 422.914893543 c 0
 772.495943203 378.250520347 787.512611195 313.155605759 801.496979759 252.535548256 c 0
 805.604741774 234.729040337 809.574489119 217.575073725 814.039846486 201.865051457 c 0
 814.676680671 199.624541145 814.995097764 197.312270573 814.995097764 195 c 0
 814.995097764 191.470143652 808.144977137 153.891846377 786.907453685 137.784663541 c 1
 776.442355854 122.087016795 776.442355854 122.087016795 774.67766953 120.32233047 c 0
 769.79938404 115.444044981 763.39969202 113.004902236 757 113.004902236 c 0
346.15838032 362.660602291 m 0
 258.879459719 362.660602291 180.143261521 414.994987625 180.143261521 501.825224169 c 0
 180.143261521 514.750107019 181.920108312 528.319502839 185.695849341 542.392765621 c 0
 185.506969237 544.749049055 185.350520222 547.368840701 185.350520222 550.227487176 c 0
 185.350520222 565.837053458 189.29305386 571.648392919 193.32233047 575.67766953 c 0
 198.20061596 580.555955019 204.60030798 582.995097764 211 582.995097764 c 0
 224.812968658 582.995097764 235.995097764 571.812835975 235.995097764 558 c 0
 235.995097764 554.375373909 235.424910197 554.276402175 235.424910197 550.640296181 c 0
 235.424910197 546.334165821 235.995097764 542.35565772 235.995097764 540 c 0
 235.995097764 532.029027352 229.816996628 520.891963294 229.816996628 500.631191323 c 0
 229.816996628 441.396866876 292.084338893 412.74757479 347.229540667 412.74757479 c 0
 363.556136606 412.74757479 371.499428428 414.995097764 376 414.995097764 c 0
 381.210930888 414.995097764 388.805542863 412.287732452 405.205546887 412.287732452 c 0
 465.006832537 412.287732452 519.095249723 452.225388657 580.783855719 473.614004216 c 0
 583.439403495 474.534733248 586.219701748 474.995097764 589 474.995097764 c 2
 601 474.995097764 l 2
 604.096632292 474.995097764 604.096632292 474.995097764 643.093571622 465.245862931 c 0
 654.069589491 462.501858464 661.995097764 452.603799975 661.995097764 441 c 0
 661.995097764 427.187031342 650.812835975 416.004902236 637 416.004902236 c 0
 633.903367708 416.004902236 633.903367708 416.004902236 597.903367708 425.004902236 c 1
 593.32806353 425.004902236 l 1
 576.258379408 418.800261332 558.840266273 410.65674261 540.744884327 402.148391031 c 0
 501.477248147 383.684959432 457.289558479 362.252884726 405.599736209 362.252884726 c 0
 395.893509148 362.252884726 385.92275171 363.008594484 375.670367451 364.681575853 c 1
 365.928011659 363.336880809 356.045815209 362.660602291 346.15838032 362.660602291 c 0
775.995097764 735 m 0
 775.995097764 723.25146844 767.178179308 709.983778125 750.157983617 709.983778125 c 0
 736.6058808 709.983778125 727.815040736 716.596722665 724.583775177 718.620418067 c 0
 712.341005087 717.450629256 700.377726832 716.997802411 688.674657564 716.997802411 c 0
 663.71751484 716.997802411 594.750410877 721.988222512 593.801419632 722.033438729 c 0
 585.22545662 722.442054312 571.837535407 731.003906147 543.259023629 731.003906147 c 0
 504.125172629 731.003906147 465.814781748 713.734943073 422.596916704 693.463848994 c 0
 414.951221863 689.877681495 407.218362061 686.249666267 399.376068337 682.701571139 c 0
 357.83179241 659.03430428 313.344576718 640.947726028 270.967308981 625.022148442 c 1
 239.362307031 561.812144542 l 2
 238.258234033 559.603998545 231.756390298 548.004902236 217 548.004902236 c 0
 203.187031342 548.004902236 192.004902236 559.187164025 192.004902236 573 c 0
 192.004902236 576.838733907 192.882499147 580.677467815 194.637692969 584.187855458 c 2
 230.637692969 656.187855458 l 2
 233.357377711 661.627224942 238.146967364 666.153372999 244.264897829 668.427607995 c 0
 288.981375329 685.05018627 334.846320117 703.376806092 375.579659864 726.701983569 c 0
 376.069121805 726.982264703 401.082937374 738.609868554 401.340335823 738.730599834 c 0
 442.878727413 758.213945489 490.138261065 781.077727201 542.985319581 781.077727201 c 0
 561.264704959 781.077727201 580.212589715 778.342272014 599.823444365 771.785296331 c 1
 629.812176654 770.217228006 659.267785628 767.020675444 688.993172001 767.020675444 c 0
 708.569506169 767.020675444 727.143562757 769.010973929 727.529439054 769.010973929 c 0
 737.527653855 769.010973929 742.141002356 766.28341191 752.898099021 759.923465701 c 1
 765.909360528 758.939872915 775.995097764 748.10201624 775.995097764 735 c 0
EndSplineSet
EndChar

StartChar: T
Encoding: 84 84 19
Width: 1000
Flags: H
LayerCount: 2
Fore
SplineSet
790.995097764 720 m 0
 790.995097764 706.187031342 779.812835975 695.004902236 766 695.004902236 c 0
 765.259910809 695.004902236 765.259910809 695.004902236 715.227353979 697.947993815 c 1
 637.967163462 692.004902236 637.967163462 692.004902236 637 692.004902236 c 0
 625 692.004902236 625 692.004902236 625 692.004902236 c 2
 611.187031342 692.004902236 600.004902236 703.187164025 600.004902236 717 c 0
 600.004902236 730.812968658 611.187164025 741.995097764 625 741.995097764 c 2
 636.032836538 741.995097764 l 1
 714.032836538 747.995097764 714.032836538 747.995097764 715 747.995097764 c 0
 715.740089191 747.995097764 715.740089191 747.995097764 767.478785983 744.951645011 c 0
 780.672724459 744.175530983 790.995097764 733.258368208 790.995097764 720 c 0
625 738.995097764 m 0
 638.812968658 738.995097764 649.995097764 727.812835975 649.995097764 714 c 0
 649.995097764 701.402377512 640.660553513 690.849871619 628.285968924 689.220256154 c 0
 612.983839808 687.205110831 597.672289453 686.105638651 582.386048545 686.105638651 c 0
 562.641182068 686.105638651 542.938542536 687.94002685 523.352976853 692.004902236 c 1
 517 692.004902236 l 2
 503.187031342 692.004902236 492.004902236 703.187164025 492.004902236 717 c 0
 492.004902236 730.812968658 503.187164025 741.995097764 517 741.995097764 c 2
 526 741.995097764 l 2
 532.594506104 741.995097764 549.12979834 736.086356476 582.352123333 736.086356476 c 0
 601.90828021 736.086356476 624.57253045 738.995097764 625 738.995097764 c 0
469.255080885 683.482340872 m 0
 461.093576254 683.482340872 453.106075136 682.488550776 445.353148572 682.488550776 c 0
 438.451924128 682.488550776 430.60290898 683.201638659 422.319125946 686.004902236 c 1
 400 686.004902236 l 2
 386.187031342 686.004902236 375.004902236 697.187164025 375.004902236 711 c 0
 375.004902236 724.812968658 386.187164025 735.995097764 400 735.995097764 c 2
 427 735.995097764 l 2
 436.645303393 735.995097764 433.246975967 732.728069994 447.359361566 732.728069994 c 0
 455.100359626 732.728069994 460.90339463 733.526047142 468.981787714 733.526047142 c 0
 471.324187821 733.526047142 473.777021761 733.455688561 476.334712089 733.272017279 c 0
 514.13472752 741.995097764 514.13472752 741.995097764 517 741.995097764 c 0
 530.812968658 741.995097764 541.995097764 730.812835975 541.995097764 717 c 0
 541.995097764 705.241667659 533.856799083 695.233716068 522.651298097 692.647831225 c 0
 480.86527248 683.004902236 480.86527248 683.004902236 478 683.004902236 c 0
 474.903993838 683.004902236 474.625450815 683.482340872 469.255080885 683.482340872 c 0
354.780636536 695.156685409 m 0
 345.538958984 695.156685409 335.789779549 694.769323004 327.250618112 694.769323004 c 0
 313.225960449 694.769323004 297.787122698 695.729917489 281.714143162 701.004902236 c 1
 271 701.004902236 l 2
 257.187031342 701.004902236 246.004902236 712.187164025 246.004902236 726 c 0
 246.004902236 739.812968658 257.187164025 750.995097764 271 750.995097764 c 2
 286 750.995097764 l 2
 297.503307035 750.995097764 295.395840062 744.837266254 329.823197442 744.837266254 c 0
 329.96952486 744.837266254 354.4309555 745.15111405 354.679538726 745.15111405 c 0
 360.661181433 745.15111405 366.189201904 745.15111405 369.651298097 744.352168775 c 2
 408.651298097 735.352168775 l 2
 419.856491668 732.766354874 427.995097764 722.758645748 427.995097764 711 c 0
 427.995097764 697.187031342 416.812835975 686.004902236 403 686.004902236 c 0
 400.13472752 686.004902236 400.13472752 686.004902236 360.762594147 695.090779169 c 0
 358.79954356 695.137545801 356.805851823 695.156685409 354.780636536 695.156685409 c 0
271.995097764 720 m 0
 271.995097764 706.187031342 260.812835975 695.004902236 247 695.004902236 c 2
 166 695.004902236 l 2
 152.187031342 695.004902236 141.004902236 706.187164025 141.004902236 720 c 0
 141.004902236 733.812968658 152.187164025 744.995097764 166 744.995097764 c 2
 247 744.995097764 l 2
 260.812968658 744.995097764 271.995097764 733.812835975 271.995097764 720 c 0
469 20.0049022365 m 0
 455.187031342 20.0049022365 444.004902236 31.187164025 444.004902236 45 c 2
 444.004902236 48 l 2
 444.004902236 49.3945875537 444.004902236 49.3945875537 453.158824957 131.779892037 c 0
 454.560003096 144.390495289 465.218997359 153.995097764 478 153.995097764 c 0
 491.812968658 153.995097764 502.995097764 142.812835975 502.995097764 129 c 0
 502.995097764 127.605412446 502.995097764 127.605412446 493.995097764 46.6054124463 c 1
 493.995097764 45 l 2
 493.995097764 31.1870313421 482.812835975 20.0049022365 469 20.0049022365 c 0
505.995097764 129 m 0
 505.995097764 115.187031342 494.812835975 104.004902236 481 104.004902236 c 0
 468.120254119 104.004902236 457.403619237 113.756906364 456.129815939 126.49493935 c 0
 453.728235261 151.97996185 444.004902236 235.888317403 444.004902236 237 c 0
 444.004902236 250.812968658 455.187164025 261.995097764 469 261.995097764 c 0
 481.742171226 261.995097764 492.379731401 252.447689658 493.829236523 239.88531194 c 0
 505.995097764 131.653488759 505.995097764 131.653488759 505.995097764 129 c 0
505.995097764 234 m 0
 505.995097764 220.187031342 494.812835975 209.004902236 481 209.004902236 c 0
 468.432090234 209.004902236 457.898270045 218.295653627 456.23150263 230.629732498 c 0
 441.004902236 343.306575408 441.004902236 343.306575408 441.004902236 345 c 0
 441.004902236 358.812968658 452.187164025 369.995097764 466 369.995097764 c 0
 478.567909766 369.995097764 489.101729955 360.704346373 490.76849737 348.370267502 c 0
 505.995097764 235.693424592 505.995097764 235.693424592 505.995097764 234 c 0
463 362.004902236 m 0
 449.187031342 362.004902236 438.004902236 373.187164025 438.004902236 387 c 0
 438.004902236 391.29799983 439.105052117 395.59599966 441.305351879 399.433141379 c 1
 444.01888217 480.839050086 l 2
 444.467807534 494.306811008 455.503493543 504.995097764 469 504.995097764 c 0
 482.812968658 504.995097764 493.995097764 493.812835975 493.995097764 480 c 0
 493.995097764 479.58034791 493.995097764 479.58034791 490.98111783 389.160949914 c 0
 490.652318825 379.296979766 485.816153492 374.460814433 480.67766953 369.32233047 c 0
 475.79938404 364.444044981 469.39969202 362.004902236 463 362.004902236 c 0
496.995097764 513 m 0
 496.995097764 499.187031342 485.812835975 488.004902236 472 488.004902236 c 0
 459.987571151 488.004902236 449.806984346 496.49774043 447.492794638 508.068688966 c 0
 444.271893323 524.173195545 444.271893323 524.173195545 444.15069462 525.294283544 c 2
 432.3529443 634.423474003 l 1
 417.004902236 692.746033845 417.004902236 692.746033845 417.004902236 696 c 0
 417.004902236 709.812968658 428.187164025 720.995097764 442 720.995097764 c 0
 453.498374126 720.995097764 463.321694761 713.212897565 466.169156206 702.392544072 c 0
 481.6470557 643.576525997 481.6470557 643.576525997 481.84930538 641.705716456 c 2
 493.728106677 531.826804455 l 1
 496.995097764 515.491849024 496.995097764 515.491849024 496.995097764 513 c 0
EndSplineSet
EndChar

StartChar: U
Encoding: 85 85 20
Width: 1000
Flags: H
LayerCount: 2
Fore
SplineSet
635.004902236 715 m 0
 635.004902236 728.812968658 646.187164025 739.995097764 660 739.995097764 c 0
 671.721000616 739.995097764 681.703738679 731.908132484 684.327789618 720.755915992 c 0
 696.995097764 666.919856374 696.995097764 666.919856374 696.995097764 664 c 0
 696.995097764 650.187031342 685.812835975 639.004902236 672 639.004902236 c 0
 660.278999384 639.004902236 650.296261321 647.091867516 647.672210382 658.244084008 c 0
 635.004902236 712.080143626 635.004902236 712.080143626 635.004902236 715 c 0
672 688.995097764 m 0
 685.812968658 688.995097764 696.995097764 677.812835975 696.995097764 664 c 2
 696.995097764 568 l 2
 696.995097764 554.187031342 685.812835975 543.004902236 672 543.004902236 c 0
 658.187031342 543.004902236 647.004902236 554.187164025 647.004902236 568 c 2
 647.004902236 664 l 2
 647.004902236 677.812968658 658.187164025 688.995097764 672 688.995097764 c 0
694.126308273 514.753853734 m 0
 694.126308273 455.666805683 708.995097764 368.859623262 708.995097764 349 c 0
 708.995097764 254.762920277 669.680074664 167.324735605 659.67766953 157.32233047 c 0
 654.79938404 152.444044981 648.39969202 150.004902236 642 150.004902236 c 0
 628.187031342 150.004902236 617.004902236 161.187164025 617.004902236 175 c 0
 617.004902236 178.933113254 617.926182935 182.866226509 619.768744332 186.446174964 c 0
 644.515764962 234.527643745 658.046251359 292.318851556 658.988815335 348.136066266 c 0
 657.430746916 366.511365145 655.173053693 385.286684857 652.866122967 404.423042344 c 0
 648.609160838 439.735214902 644.074959186 476.384872606 644.074959186 514.104666523 c 0
 644.074959186 530.943040327 644.978530638 547.994669872 647.213697113 565.23577192 c 0
 648.821013827 577.633913983 659.384167852 586.995097764 672 586.995097764 c 0
 685.812968658 586.995097764 696.995097764 575.812835975 696.995097764 562 c 0
 696.995097764 561.526668373 694.126308273 539.726667892 694.126308273 514.753853734 c 0
442.747897216 80.5680267826 m 0
 411.718491476 80.5680267826 393.295099102 96.7071933221 372.994633374 96.7071933221 c 0
 368.073473507 96.7071933221 366.372581096 96.0048984828 362.990108646 96.0049041788 c 0
 319.968548455 96.0217996286 296.004902236 138.374865285 296.004902236 157 c 0
 296.004902236 170.812968658 307.187164025 181.995097764 321 181.995097764 c 0
 332.610474219 181.995097764 342.514372958 174.060173676 345.251139279 163.072427082 c 0
 347.84511881 152.65795014 355.913049765 146.806197491 361.992275455 146.061596986 c 0
 365.593807707 146.462806485 369.078476006 146.642796025 372.443816817 146.642796025 c 0
 404.856020792 146.642796025 424.277876756 130.539579551 442.539360868 130.539579551 c 0
 446.077519981 130.539579551 447.173093927 130.995097764 450 130.995097764 c 0
 458.919873935 130.995097764 498.12995246 116.176256509 538.589226028 113.146327803 c 0
 547.673657838 115.114188673 557.904724323 120.587006805 568.297926223 127.814144215 c 1
 620.850015833 186.205354892 620.850015833 186.205354892 621.32233047 186.67766953 c 0
 626.20061596 191.555955019 632.60030798 193.995097764 639 193.995097764 c 0
 652.812968658 193.995097764 663.995097764 182.812835975 663.995097764 169 c 0
 663.995097764 163.015015243 661.861831008 157.030030487 657.595297497 152.289437697 c 0
 601.759796903 90.2499925918 601.759796903 90.2499925918 599.545911017 88.6633659554 c 0
 585.41840511 78.5385996694 567.110456981 66.8190323898 543.762926049 63.2877244947 c 0
 542.51632439 63.0991763226 541.258162195 63.0049022365 540 63.0049022365 c 0
 512.451885601 63.0049022365 461.116219548 76.9109370148 447.587459267 80.7049334437 c 0
 445.94681992 80.6119679917 444.333550327 80.5680267826 442.747897216 80.5680267826 c 0
346.995097764 147 m 0
 346.995097764 133.187031342 335.812835975 122.004902236 322 122.004902236 c 0
 319.692201818 122.004902236 305.89491159 122.589352713 299.406779094 136.286521317 c 0
 271.467384456 195.269687775 271.467384456 195.269687775 270.88858754 197.391943135 c 0
 252.447549647 265.009082075 252.447549647 265.009082075 252.225585686 266.673811779 c 0
 240.004902236 358.328937653 240.004902236 358.328937653 240.004902236 360 c 0
 240.004902236 373.812968658 251.187164025 384.995097764 265 384.995097764 c 0
 277.582501772 384.995097764 288.126919606 375.682398525 289.774414314 363.326188221 c 2
 301.552450353 274.990917925 l 1
 318.532615544 212.730312225 l 1
 344.593220906 157.713478683 l 2
 346.194472144 154.333059402 346.995097764 150.666529701 346.995097764 147 c 0
265 593.004902236 m 0
 251.187031342 593.004902236 240.004902236 604.187164025 240.004902236 618 c 2
 240.004902236 717 l 2
 240.004902236 730.812968658 251.187164025 741.995097764 265 741.995097764 c 0
 278.812968658 741.995097764 289.995097764 730.812835975 289.995097764 717 c 2
 289.995097764 618 l 2
 289.995097764 604.187031342 278.812835975 593.004902236 265 593.004902236 c 0
292.995097764 336 m 0
 292.995097764 322.187031342 281.812835975 311.004902236 268 311.004902236 c 0
 254.452298308 311.004902236 243.39037738 321.773152417 243.014613218 335.300662243 c 2
 240.047088351 442.131557431 l 1
 228.004902236 541.479592879 228.004902236 541.479592879 228.004902236 543 c 2
 228.004902236 568.146321703 l 2
 227.180454737 574.057209868 226.842579121 579.784671957 226.842579121 585.319469903 c 0
 226.842579121 607.188738063 231.923274641 625.135145468 234.166270483 644.846102433 c 0
 235.597834835 657.426376906 246.243326364 666.995097764 259 666.995097764 c 0
 272.812968658 666.995097764 283.995097764 655.812835975 283.995097764 642 c 0
 283.995097764 632.351813228 276.904799552 603.463279029 276.904799552 584.644187217 c 0
 276.904799552 576.230646889 277.995097764 574.071379503 277.995097764 570 c 2
 277.995097764 544.520407121 l 1
 289.952911649 445.868442569 289.952911649 445.868442569 289.985386782 444.699337757 c 0
 292.995097764 336.349742432 292.995097764 336.349742432 292.995097764 336 c 0
EndSplineSet
EndChar

StartChar: V
Encoding: 86 86 21
Width: 1000
Flags: H
LayerCount: 2
Fore
SplineSet
619 684.995097764 m 0
 632.812968658 684.995097764 643.995097764 673.812835975 643.995097764 660 c 0
 643.995097764 658.908834585 627.284738355 560.936184903 625.382675419 552.482571854 c 0
 598.266630175 431.96681521 598.266630175 431.96681521 598.128997846 431.456765994 c 2
 496.128997846 53.4567659939 l 2
 493.230616845 42.7157069898 483.445632451 35.0049022365 472 35.0049022365 c 0
 458.187031342 35.0049022365 447.004902236 46.187164025 447.004902236 60 c 0
 447.004902236 62.20172887 447.293602209 64.40345774 447.871002154 66.5432340061 c 2
 549.733369825 444.03318479 l 1
 576.489033364 562.947244962 l 1
 594.387397097 664.371306114 l 2
 596.47856566 676.221261306 606.789614572 684.995097764 619 684.995097764 c 0
496.995097764 60 m 0
 496.995097764 46.1870313421 485.812835975 35.0049022365 472 35.0049022365 c 0
 465.60030798 35.0049022365 459.20061596 37.4440449811 454.32233047 42.3223304703 c 0
 378.457634922 118.187026019 378.457634922 118.187026019 377.684577694 119.125738367 c 2
 335.684577694 170.125738367 l 2
 331.898127389 174.72357088 330.004902236 180.36178544 330.004902236 186 c 0
 330.004902236 199.812968658 341.187164025 210.995097764 355 210.995097764 c 0
 358.608963586 210.995097764 367.548918064 210.09073107 374.315422306 201.874261633 c 2
 415.542365078 151.812973981 l 1
 489.67766953 77.6776695297 l 2
 494.555955019 72.7993840404 496.995097764 66.3996920202 496.995097764 60 c 0
379.995097764 186 m 0
 379.995097764 172.187031342 368.812835975 161.004902236 355 161.004902236 c 0
 348.60030798 161.004902236 342.20061596 163.444044981 337.32233047 168.32233047 c 2
 298.32233047 207.32233047 l 2
 296.498400291 209.14626065 295.015442499 211.182871132 293.873457094 213.352643401 c 2
 203.873457094 384.352643401 l 2
 202.74976995 386.487648974 201.956215798 388.751583167 201.492794638 391.068688966 c 0
 153.004902236 633.508150976 153.004902236 633.508150976 153.004902236 636 c 0
 153.004902236 649.812968658 164.187164025 660.995097764 178 660.995097764 c 0
 190.012428849 660.995097764 200.193015654 652.50225957 202.507205362 640.931311034 c 2
 249.799854749 404.468064098 l 1
 336.369387846 239.985951214 l 1
 372.67766953 203.67766953 l 2
 377.555955019 198.79938404 379.995097764 192.39969202 379.995097764 186 c 0
EndSplineSet
EndChar

StartChar: W
Encoding: 87 87 22
Width: 1000
Flags: H
LayerCount: 2
Fore
SplineSet
658 729.995097764 m 0
 671.812968658 729.995097764 682.995097764 718.812835975 682.995097764 705 c 0
 682.995097764 699.988570024 672.852901365 661.494877712 672.710216297 661.066822507 c 2
 583.088477976 392.201607544 l 1
 523.356886241 132.369183498 l 2
 520.778660002 121.153899358 510.766284452 113.004902236 499 113.004902236 c 0
 485.187031342 113.004902236 474.004902236 124.187164025 474.004902236 138 c 0
 474.004902236 139.890001544 474.217639411 141.780003088 474.643113759 143.630816502 c 0
 534.911522024 405.798392456 534.911522024 405.798392456 535.289783703 406.933177493 c 2
 624.986803037 676.024235496 l 1
 633.754137069 711.093571622 l 2
 636.498141536 722.069589491 646.396200025 729.995097764 658 729.995097764 c 0
288.004902236 588 m 0
 288.004902236 601.812968658 299.187164025 612.995097764 313 612.995097764 c 0
 315.613545097 612.995097764 328.47277233 612.331155554 335.14213706 599.617679037 c 0
 431.978218992 415.023897854 431.978218992 415.023897854 432.576442469 413.323683761 c 2
 489.343255799 251.986424824 l 1
 532.992986776 147.22707048 l 1
 546.359485207 128.513972676 l 2
 549.449893578 124.187400957 550.995097764 119.093700478 550.995097764 114 c 0
 550.995097764 100.187031342 539.812835975 89.0049022365 526 89.0049022365 c 0
 522.620297684 89.0049022365 512.515127835 89.8615690658 505.640514793 99.4860273243 c 0
 489.007013224 122.77292952 489.007013224 122.77292952 487.926754003 125.36555165 c 0
 442.656744201 234.013575176 442.656744201 234.013575176 442.423557531 234.676316239 c 2
 386.021781008 394.976102146 l 1
 290.85786294 576.382320963 l 2
 288.955889138 580.007958523 288.004902236 584.003979262 288.004902236 588 c 0
367 573.995097764 m 0
 380.812968658 573.995097764 391.995097764 562.812835975 391.995097764 549 c 0
 391.995097764 545.380067711 391.214692909 541.760135423 389.6538832 538.415543188 c 0
 368.274171653 492.601875589 368.274171653 492.601875589 367.836716942 491.817989658 c 0
 367.49194324 486.402323159 367.329561342 480.589706359 367.329561342 466.402336582 c 0
 367.329561342 464.59290996 367.333246285 462.75370937 367.333246285 460.88761474 c 0
 367.333246285 442.057788851 366.958052129 420.489661071 358.635871349 399.142059477 c 1
 351.974678534 316.268783813 307.261885532 244.431073374 307.261885532 167.72492132 c 0
 307.261885532 153.82615166 308.41774589 164.070169298 307.680515848 126.723943935 c 0
 307.529776975 119.08789058 307.396196436 111.652388168 307.396196436 104.38713574 c 0
 307.396196436 88.3075853519 308.050515506 73.0619723925 310.621287458 58.3218039951 c 0
 310.870494328 56.8929136428 310.995097764 55.4464568214 310.995097764 54 c 0
 310.995097764 40.1870313421 299.812835975 29.0049022365 286 29.0049022365 c 0
 273.772383353 29.0049022365 263.449725222 37.8035232515 261.378712542 49.6781960049 c 0
 258.126719757 68.3243156116 257.369793121 86.2482623279 257.369793121 103.458777428 c 0
 257.369793121 106.47647783 258.001216788 148.548477818 258.002617944 149.003971566 c 0
 257.488117964 155.50127801 257.247878114 161.913372508 257.247878114 168.243875488 c 0
 257.247878114 256.311223723 304.144580246 330.443323128 309.057096834 406.620571966 c 0
 310.005087965 421.320849301 317.280237988 411.580209207 317.339973294 467.613908825 c 0
 317.348308479 475.432502655 317.340269237 483.621170874 317.777669745 492.077118227 c 0
 317.566840101 493.053313058 316.7766022 497.041503577 316.7766022 501.722512771 c 0
 316.7766022 505.92167875 317.820849495 516.847348843 327.911985362 524.368460873 c 1
 346.198490968 563.553830027 346.198490968 563.553830027 349.32233047 566.67766953 c 0
 354.20061596 571.555955019 360.60030798 573.995097764 367 573.995097764 c 0
310.995097764 54 m 0
 310.995097764 40.1870313421 299.812835975 29.0049022365 286 29.0049022365 c 0
 280.077726007 29.0049022365 280.077726007 29.0049022365 256.812144542 40.6376929689 c 0
 253.651802507 42.2178639861 240.171409193 52.4732517473 238.32233047 54.3223304703 c 0
 234.151565993 58.4930949479 231.763730822 63.7759551799 231.158824957 69.2201079634 c 0
 222.116007734 150.605462971 222.116007734 150.605462971 222.085080503 150.99205335 c 2
 216.220555487 224.298616052 l 1
 181.188460347 384.862385445 l 1
 76.8174600035 605.532500457 76.8174600035 605.532500457 76.3722462543 606.82362033 c 2
 46.3722462543 693.82362033 l 2
 45.4606835758 696.467152097 45.0049022365 699.233576049 45.0049022365 702 c 0
 45.0049022365 715.812968658 56.187164025 726.995097764 70 726.995097764 c 0
 80.8703633062 726.995097764 90.2256325096 720.042531255 93.6277537457 710.17637967 c 2
 123.182539997 624.467499543 l 1
 227.599387502 403.700450531 l 2
 229.682677828 399.295779557 265.77307795 231.780965986 265.914919497 230.00794665 c 0
 269.463906213 180.815641485 273.956914217 132.567357608 279.648131592 85.5172831009 c 1
 288.391226542 79.7404326315 297.68767691 77.6676621489 303.67766953 71.6776695297 c 0
 308.555955019 66.7993840404 310.995097764 60.3996920202 310.995097764 54 c 0
EndSplineSet
EndChar

StartChar: X
Encoding: 88 88 23
Width: 1000
Flags: H
LayerCount: 2
Fore
SplineSet
823.995097764 66 m 0
 823.995097764 52.1870313421 812.812835975 41.0049022365 799 41.0049022365 c 0
 792.60030798 41.0049022365 786.20061596 43.4440449811 781.32233047 48.3223304703 c 0
 755.29510983 74.3495511107 755.29510983 74.3495511107 753.788995705 76.7593337114 c 2
 724.808773524 123.1276892 l 1
 228.072815055 697.66566526 l 2
 224.027539843 702.344537795 222.004902236 708.172268898 222.004902236 714 c 0
 222.004902236 727.812968658 233.187164025 738.995097764 247 738.995097764 c 0
 250.662488238 738.995097764 259.227984469 738.082807579 265.927184945 730.33433474 c 0
 765.191226476 152.8723108 765.191226476 152.8723108 766.211004295 151.240666289 c 2
 794.70489017 105.650448889 l 1
 816.67766953 83.6776695297 l 2
 821.555955019 78.7993840404 823.995097764 72.3996920202 823.995097764 66 c 0
289 17.0049022365 m 0
 275.187031342 17.0049022365 264.004902236 28.187164025 264.004902236 42 c 0
 264.004902236 44.4724458165 264.632268344 57.7723689322 277.812144542 64.3623070311 c 2
 301.868114652 76.390292086 l 1
 775.171673707 787.834006641 l 2
 776.96109827 790.523770606 783.582536299 798.995097764 796 798.995097764 c 0
 809.812968658 798.995097764 820.995097764 787.812835975 820.995097764 774 c 0
 820.995097764 769.1707501 819.60617394 764.3415002 816.828326293 760.165993359 c 2
 339.828326293 43.1659933594 l 2
 337.615883673 39.8403720625 334.382434766 36.7349826229 330.187855458 34.6376929689 c 2
 300.187855458 19.6376929689 l 2
 296.677467815 17.8824991473 292.838733907 17.0049022365 289 17.0049022365 c 0
EndSplineSet
EndChar

StartChar: Y
Encoding: 89 89 24
Width: 1000
Flags: H
LayerCount: 2
Fore
SplineSet
622.995097764 450 m 0
 622.995097764 436.187031342 611.812835975 425.004902236 598 425.004902236 c 0
 594.848870411 425.004902236 583.827930264 425.806156378 576.958270587 436.492293654 c 2
 551.729354838 475.737273708 l 1
 316.738577581 689.906083359 316.738577581 689.906083359 316.32233047 690.32233047 c 0
 311.444044981 695.20061596 309.004902236 701.60030798 309.004902236 708 c 0
 309.004902236 721.812968658 320.187164025 732.995097764 334 732.995097764 c 0
 340.034376886 732.995097764 346.068753772 730.826475407 350.827675053 726.489230695 c 0
 588.261422419 510.093916641 588.261422419 510.093916641 588.67766953 509.67766953 c 0
 590.591103473 507.764235586 590.591103473 507.764235586 619.041729413 463.507706346 c 0
 621.677308314 459.407916946 622.995097764 454.703958473 622.995097764 450 c 0
709 774.995097764 m 0
 722.812968658 774.995097764 733.995097764 763.812835975 733.995097764 750 c 2
 733.995097764 744 l 2
 733.995097764 741.628510467 733.660162023 739.257020934 732.990290543 736.962947573 c 0
 725.176919734 710.204910596 720.693143802 677.319614535 708.590150035 646.875176703 c 0
 701.388253968 628.759189758 688.538486658 603.746753954 662.330028577 587.993776177 c 1
 627.116817888 509.441229256 l 1
 576.262203419 374.82607331 576.262203419 374.82607331 576.134609236 374.514176418 c 2
 550.037922832 310.722276318 l 1
 529.663678979 208.851057055 l 1
 521.750745692 149.152049812 513.38644706 89.9044079124 505.800802586 29.8781118567 c 0
 504.244324283 17.426285434 493.656767971 8.00490223649 481 8.00490223649 c 0
 467.187031342 8.00490223649 456.004902236 19.187164025 456.004902236 33 c 0
 456.004902236 34.8654556193 478.952969767 210.232186678 480.492794638 217.931311034 c 0
 501.962077168 325.277723682 501.962077168 325.277723682 502.865390764 327.485823582 c 0
 531.497933723 395.091323243 580.303838427 527.266388677 581.189138581 529.241289021 c 2
 620.189138581 616.241289021 l 2
 628.229414792 634.177289799 645.608305234 623.813735011 662.136304241 665.389038437 c 0
 671.47783862 688.887171886 677.092155819 722.733045748 684.004902236 747.515498302 c 1
 684.004902236 750 l 2
 684.004902236 763.812968658 695.187164025 774.995097764 709 774.995097764 c 0
EndSplineSet
EndChar

StartChar: Z
Encoding: 90 90 25
Width: 1000
Flags: H
LayerCount: 2
Fore
SplineSet
784.995097764 12 m 0
 784.995097764 -1.81296865792 773.812835975 -12.9950977635 760 -12.9950977635 c 0
 757.687009338 -12.9950977635 643.522052385 -6.9006137731 642.35636495 -6.73002536798 c 2
 395.863523792 29.3420977283 l 1
 233.86423914 56.3469859377 l 2
 221.899170462 58.3411640508 213.004902236 68.7054071565 213.004902236 81 c 0
 213.004902236 94.8129686579 224.187164025 105.995097764 238 105.995097764 c 0
 240.083258653 105.995097764 239.573909817 102.740229061 403.890110452 78.6939557969 c 0
 648.489428986 42.8989335724 648.489428986 42.8989335724 648.489428986 42.8989335724 c 1
 761.323620515 36.960291913 l 2
 774.585722058 36.2622865686 784.995097764 25.3149691878 784.995097764 12 c 0
241 62.0049022365 m 0
 227.187031342 62.0049022365 216.004902236 73.187164025 216.004902236 87 c 0
 216.004902236 90.3397213739 216.852313078 100.617263038 226.679549735 107.496328698 c 2
 252.68129214 125.697548381 l 1
 289.503253648 182.346719932 289.503253648 182.346719932 290.031606283 183.046430178 c 0
 391.815458455 317.841261432 401.490287191 330.745556497 402.76990136 332.107726419 c 0
 682.041368368 629.396707427 682.041368368 629.396707427 682.32233047 629.67766953 c 0
 687.20061596 634.555955019 693.60030798 636.995097764 700 636.995097764 c 0
 713.812968658 636.995097764 724.995097764 625.812835975 724.995097764 612 c 0
 724.995097764 605.84662035 722.740098056 599.693240701 718.23009864 594.892273581 c 2
 440.156821572 298.878785089 l 1
 330.496746352 153.653280068 l 1
 290.546125483 92.1907864233 290.546125483 92.1907864233 288.67766953 90.3223304703 c 0
 287.115650587 88.7603115279 287.115650587 88.7603115279 255.320450265 66.5036713023 c 0
 251.035908298 63.5044919251 246.017954149 62.0049022365 241 62.0049022365 c 0
688 587.004902236 m 0
 675.762223306 587.004902236 675.513526961 594.411474315 654.506858044 594.411474315 c 0
 630.016794977 594.411474315 602.607212748 584.743024378 572.836591475 584.035388995 c 0
 514.517265188 576.485087649 436.322822976 548.000729652 380.609344242 548.000729652 c 0
 314.570811497 548.000729652 263.757100806 570.165349901 185.988130606 604.087684409 c 0
 177.126957611 607.952872205 171.004902236 616.797035538 171.004902236 627 c 0
 171.004902236 640.812968658 182.187164025 651.995097764 196 651.995097764 c 0
 201.235292492 651.995097764 201.287027912 651.995097764 217.653990776 644.814375984 c 0
 272.294166253 620.841944363 325.99486419 597.99112001 380.673870374 597.99112001 c 0
 428.239737445 597.99112001 504.815697325 625.893708276 567.868651889 633.799618267 c 0
 568.791643409 633.915347783 569.719873681 633.979690883 570.648690465 633.992647568 c 0
 595.514482601 634.33951709 625.212557887 644.808357932 654.086020536 644.808357932 c 0
 668.881759607 644.808357932 684.403758541 642.198140188 699.701980663 634.097706444 c 0
 702.033312203 632.863262564 712.995097764 626.298603548 712.995097764 612 c 0
 712.995097764 598.187031342 701.812835975 587.004902236 688 587.004902236 c 0
EndSplineSet
EndChar

StartChar: bracketleft
Encoding: 91 91 26
Width: 1000
Flags: H
LayerCount: 2
Fore
SplineSet
652 51.9950977635 m 0
 665.812968658 51.9950977635 676.995097764 40.812835975 676.995097764 27 c 0
 676.995097764 14.7900386735 668.221680578 4.47863964941 656.371306114 2.38739709698 c 0
 605.099146327 -6.66063110078 605.099146327 -6.66063110078 487.825916684 -24.7026664305 c 0
 486.558714241 -24.8976206525 485.27935712 -24.9950977635 484 -24.9950977635 c 0
 470.187031342 -24.9950977635 459.004902236 -13.812835975 459.004902236 -6.66133814775e-16 c 0
 459.004902236 12.4040740677 468.057507424 22.8385778317 480.174083316 24.7026664305 c 0
 536.169879219 33.4950528753 593.031889448 41.4212249938 647.628693886 51.612602903 c 0
 649.07367447 51.8675994767 650.536837235 51.9950977635 652 51.9950977635 c 0
407.390390599 682.515238178 m 0
 407.390390599 704.096938957 421.768284728 711.995097764 433 711.995097764 c 0
 446.8129685 711.995097764 457.995097671 700.812836132 457.995097671 687.000000383 c 0
 457.995097671 685.317597285 457.826528091 683.635194187 457.489388928 681.980432373 c 0
 459.724506166 653.539661816 460.866311228 642.619113 475.525971632 588.796409175 c 0
 487.696583963 544.112204712 493.113750295 517.638273502 493.956706639 502.390067566 c 0
 496.180719066 462.15998957 505.984437208 376.472833113 505.994341033 375.195239751 c 2
 508.995854474 -11.999994134 l 2
 508.995854474 -25.809236797 497.815544128 -36.9950977635 484 -36.9950977635 c 0
 470.261182929 -36.9950977635 459.112124682 -25.9293169495 459.005658967 -12.1952397506 c 2
 456.015316398 373.558951642 l 1
 445.727979571 469.528631074 445.727979571 469.528631074 444.082140036 498.911855216 c 0
 437.694821417 555.80696355 411.57250667 610.677825693 408.044406135 673.589947648 c 0
 407.918807574 675.850790731 407.390390599 678.630983325 407.390390599 682.515238178 c 0
589.642617094 698.518517869 m 0
 594.376667094 698.518517869 595.49360341 699.995097764 601 699.995097764 c 2
 613 699.995097764 l 2
 626.812968658 699.995097764 637.995097764 688.812835975 637.995097764 675 c 0
 637.995097764 661.187031342 626.812835975 650.004902236 613 650.004902236 c 2
 603.975864768 650.004902236 l 1
 598.8177628 648.895376975 593.862309361 648.443276011 589.155725324 648.443276011 c 0
 568.156759072 648.443276011 551.564241588 658.692788743 539.317120869 659.042706478 c 0
 435.280698694 662.015175683 435.280698694 662.015175683 435.280698694 662.015175683 c 2
 421.762932792 662.401397566 411.004902236 673.458387813 411.004902236 687 c 0
 411.004902236 700.812968658 422.187164025 711.995097764 436 711.995097764 c 0
 437.135157779 711.995097764 542.260961359 708.986436894 543.330103939 708.88706258 c 0
 562.47317917 707.107758315 577.652162928 698.518517869 589.642617094 698.518517869 c 0
EndSplineSet
EndChar

StartChar: backslash
Encoding: 92 92 27
Width: 1000
Flags: H
LayerCount: 2
Fore
SplineSet
598.995097764 174 m 0
 598.995097764 160.187031342 587.812835975 149.004902236 574 149.004902236 c 0
 569.581356809 149.004902236 528.622423056 158.82235953 528.171143346 158.949895101 c 2
 391.781405181 197.494821104 l 1
 372.441213927 200.257705569 l 2
 360.197234895 202.00684543 351.004902236 212.499398285 351.004902236 225 c 0
 351.004902236 238.812968658 362.187164025 249.995097764 376 249.995097764 c 0
 378.448797135 249.995097764 401.006005917 246.847867064 403.828856654 246.050104899 c 2
 541.243981923 207.215395584 l 1
 579.651298097 198.352168775 l 2
 590.856491668 195.766354874 598.995097764 185.758645748 598.995097764 174 c 0
616.995097764 315 m 0
 616.995097764 301.187031342 605.812835975 290.004902236 592 290.004902236 c 0
 586.077726007 290.004902236 584.218311028 290.934609726 573.714782696 296.186373892 c 1
 384.225422872 302.016815732 l 2
 370.729556953 302.432073145 360.004902236 313.480362574 360.004902236 327 c 0
 360.004902236 340.812968658 371.187164025 351.995097764 385 351.995097764 c 0
 385.38738851 351.995097764 385.38738851 351.995097764 580.774577128 345.983184268 c 0
 586.285217304 345.813626108 586.285217304 345.813626108 603.187855458 337.362307031 c 0
 605.396001455 336.258234033 616.995097764 329.756390298 616.995097764 315 c 0
550.995097764 186 m 0
 550.995097764 172.187031342 539.812835975 161.004902236 526 161.004902236 c 0
 522.91537295 161.004902236 519.8307459 161.571564633 516.916482149 162.704889425 c 2
 408.916482149 204.704889425 l 2
 407.358976452 205.310586084 393.004902236 211.344563388 393.004902236 228 c 0
 393.004902236 241.812968658 404.187164025 252.995097764 418 252.995097764 c 0
 421.08462705 252.995097764 424.1692541 252.428435367 427.083517851 251.295110575 c 2
 535.083517851 209.295110575 l 2
 536.641023548 208.689413916 550.995097764 202.655436612 550.995097764 186 c 0
553.995097764 312 m 0
 553.995097764 298.187031342 542.812835975 287.004902236 529 287.004902236 c 0
 527.642863092 287.004902236 527.642863092 287.004902236 415.294283544 299.15069462 c 0
 402.649319601 300.517717749 393.004902236 311.192204082 393.004902236 324 c 0
 393.004902236 337.812968658 404.187164025 348.995097764 418 348.995097764 c 0
 419.357136908 348.995097764 419.357136908 348.995097764 531.705716456 336.84930538 c 0
 544.350680399 335.482282251 553.995097764 324.807795918 553.995097764 312 c 0
459.007501826 379.883736629 m 0
 459.007501826 380.451011837 458.287524956 408.276251543 458.287524956 436.606688411 c 0
 458.287524956 453.290713633 458.505874659 470.011006978 459.016592359 486.767283103 c 0
 459.427993452 500.265053622 470.476474516 510.995097764 484 510.995097764 c 0
 497.812968658 510.995097764 508.995097764 499.812835975 508.995097764 486 c 0
 508.995097764 485.506064851 508.278302941 465.081293174 508.278302941 436.611686428 c 0
 508.278302941 409.711667866 508.997799874 380.407957547 508.997799874 379.840197062 c 0
 508.997799874 335.191748205 498.03753028 296.583517942 498.03753028 256.877233138 c 0
 498.03753028 243.640608301 499.995097764 228.289435082 499.995097764 228 c 0
 499.995097764 225.983748081 499.131316911 212.632196994 499.131316911 199.881199666 c 0
 499.131316911 158.185761232 508.740790188 153.469094581 508.989633829 141.524599841 c 0
 511.995097764 -2.73766903635 511.995097764 -2.73766903635 511.995097764 -3 c 0
 511.995097764 -16.8129686579 500.812835975 -27.9950977635 487 -27.9950977635 c 0
 473.386121871 -27.9950977635 462.293692221 -17.124250214 462.010366171 -3.52459984099 c 2
 459.10380483 135.990344564 l 1
 451.006955793 157.624287628 449.034834577 178.798555624 449.034834577 198.971376351 c 0
 449.034834577 208.528928513 449.47751845 217.86168488 449.92125379 226.912027628 c 1
 448.559867445 237.356045016 448.008448264 247.472933797 448.008448264 257.290663904 c 0
 448.008448264 300.886060222 459.007501826 339.876926478 459.007501826 379.883736629 c 0
472 347.004902236 m 0
 458.187031342 347.004902236 447.004902236 358.187164025 447.004902236 372 c 0
 447.004902236 374.86527248 447.004902236 374.86527248 456.647831225 416.651298097 c 0
 457.439279752 420.080908381 458.961435849 423.375419106 461.214299514 426.285368007 c 0
 678.188941454 706.544280513 678.188941454 706.544280513 679.32233047 707.67766953 c 0
 684.20061596 712.555955019 690.60030798 714.995097764 697 714.995097764 c 0
 710.812968658 714.995097764 721.995097764 703.812835975 721.995097764 690 c 0
 721.995097764 684.600250935 720.258632004 679.20050187 716.785700486 674.714631993 c 2
 504.123988489 400.026587329 l 1
 496.352168775 366.348701903 l 2
 493.766354874 355.143508332 483.758645748 347.004902236 472 347.004902236 c 0
514.995097764 408 m 0
 514.995097764 394.187031342 503.812835975 383.004902236 490 383.004902236 c 0
 483.60030798 383.004902236 477.20061596 385.444044981 472.32233047 390.32233047 c 0
 462.267949668 400.376711273 462.267949668 400.376711273 461.350624102 401.540148576 c 2
 338.845435326 556.912583121 l 1
 234.380781441 673.316054593 l 2
 230.130195304 678.052422002 228.004902236 684.026211001 228.004902236 690 c 0
 228.004902236 703.812968658 239.187164025 714.995097764 253 714.995097764 c 0
 259.962315631 714.995097764 266.74389568 712.116448044 271.619218559 706.683945407 c 0
 377.154564674 589.087416879 377.154564674 589.087416879 377.649375898 588.459851424 c 2
 499.732050332 433.623288727 l 1
 507.67766953 425.67766953 l 2
 512.555955019 420.79938404 514.995097764 414.39969202 514.995097764 408 c 0
EndSplineSet
EndChar

StartChar: bracketright
Encoding: 93 93 28
Width: 1000
Flags: H
LayerCount: 2
Fore
SplineSet
497.809004454 633.047356787 m 0
 493.436592744 633.047356787 491.074052942 632.004902236 487 632.004902236 c 0
 486.629693915 632.004902236 486.629693915 632.004902236 384.259562434 635.015788457 c 0
 370.749169595 635.413152952 360.004902236 646.467785955 360.004902236 660 c 0
 360.004902236 673.812968658 371.187164025 684.995097764 385 684.995097764 c 0
 385.370306085 684.995097764 385.370306085 684.995097764 485.362311543 682.054156426 c 0
 489.40704609 682.648507506 493.515094831 682.987044153 497.60681119 682.987044153 c 0
 528.860825719 682.987044153 549.485161906 662.646610277 549.485161906 627.771305303 c 0
 549.485161906 606.405703392 535.730647338 555.638538796 532.980040769 476.129238111 c 0
 532.264584487 455.448189304 526.996860397 419.038787709 526.996860397 390.5011119 c 0
 526.996860397 345.526383793 538.995097764 336.353629148 538.995097764 324 c 0
 538.995097764 321.831478591 538.420743139 317.062753511 538.420743139 304.642093278 c 0
 538.420743139 190.347846495 580.940835252 101.51704012 581.006535697 -11.7097415442 c 0
 583.764899901 -22.2220105694 585.391661989 -31.396505478 585.391661989 -40.2931371742 c 0
 585.391661989 -46.6581503917 584.768483391 -61.7685322739 573.46917543 -73.067840235 c 0
 563.732022297 -82.8049933679 551.842320481 -84.6085699194 543.015763141 -84.6085699194 c 0
 521.631859347 -84.6085699194 499.137736978 -74.505238667 479.018471941 -72.9170189846 c 0
 475.494559911 -72.6388405106 475.494559911 -72.6388405106 424.198069043 -53.402656435 c 0
 414.674711569 -49.8313973825 408.004902236 -40.6484454468 408.004902236 -30 c 0
 408.004902236 -16.1870313421 419.187164025 -5.00490223649 433 -5.00490223649 c 0
 435.985462076 -5.00490223649 438.970924151 -5.53571601265 441.801930957 -6.59734356499 c 2
 486.687554675 -23.4294524593 l 1
 504.945576784 -25.3965007169 516.923548003 -30.0144349008 534.507227735 -33.3089859358 c 1
 532.89063506 -23.3300489808 531.004902236 -20.8985408364 531.004902236 -15 c 0
 531.004902236 -14.7531976084 531.016106778 -13.7228316312 531.016106778 -12.0384271492 c 0
 531.016106778 93.8646646577 488.417149724 183.717586815 488.417149724 304.546362349 c 0
 488.417149724 309.53898719 488.503972403 314.618159219 488.734542715 319.782596332 c 1
 479.548216143 343.703087809 476.818835471 367.469981037 476.818835471 390.292011397 c 0
 476.818835471 419.004134743 481.63968474 451.654452863 483.027709071 478.093850753 c 0
 485.79354968 557.387063742 499.351744103 613.870916293 499.351744103 627.179866472 c 0
 499.351744103 629.841973432 499.142453329 631.792849214 498.945778941 633.012319749 c 0
 498.622138325 633.033724246 498.244907975 633.047356787 497.809004454 633.047356787 c 0
EndSplineSet
EndChar

StartChar: asciicircum
Encoding: 94 94 29
Width: 1000
Flags: H
LayerCount: 2
Fore
SplineSet
322 359.004902236 m 0
 308.187031342 359.004902236 297.004902236 370.187164025 297.004902236 384 c 2
 297.004902236 396 l 2
 297.004902236 396.93443358 297.056903745 397.86886716 297.160906762 398.798564721 c 0
 309.128037857 505.77442876 375.213644055 584.478142327 405.891784989 675.742399821 c 0
 410.671857949 696.908068502 419.993031955 735.756494815 450.585484171 735.756494815 c 0
 475.667904084 735.756494815 492.347880089 710.839399895 508.276382189 630.106922031 c 0
 510.332696922 623.486095417 513.062079955 616.51406478 516.031293077 609.005507527 c 0
 522.45926973 592.750415535 530.856200287 572.673722131 530.856200287 548.554825863 c 0
 530.856200287 539.792513316 529.452579732 535.952718149 529.452579732 512.666914772 c 0
 529.452579732 507.401260015 529.575462699 502.275027784 529.898754783 497.285478941 c 0
 534.214024488 460.156121295 539.326231019 435.788926394 556.965703387 415.289677567 c 0
 560.81524828 410.816030227 560.81524828 410.816030227 568.245862931 381.093571622 c 0
 568.745352819 379.095612069 568.995097764 377.047806034 568.995097764 375 c 0
 568.995097764 361.187031342 557.812835975 350.004902236 544 350.004902236 c 0
 532.398080224 350.004902236 522.498601102 357.928572246 519.754137069 368.906428378 c 2
 515.110792962 387.479804806 l 1
 489.947332673 419.49997561 484.355468102 455.904885301 480.171286271 492.110160788 c 0
 480.147482271 492.316134236 479.447261538 499.879163492 479.447261538 512.831953797 c 0
 479.447261538 533.009790821 480.84113703 547.901913622 480.84113703 548.256432533 c 0
 480.84113703 571.255008029 462.643395127 602.962634034 459.47233704 619.172107327 c 0
 457.454750332 629.485388434 454.68039482 642.343105857 451.473092111 654.514366117 c 1
 419.171339926 562.310020377 357.831297617 486.814869693 346.995097764 394.561951278 c 1
 346.995097764 384 l 2
 346.995097764 370.187031342 335.812835975 359.004902236 322 359.004902236 c 0
EndSplineSet
EndChar

StartChar: zero
Encoding: 48 48 30
Width: 1000
Flags: H
LayerCount: 2
Fore
SplineSet
409.918595017 438.905324837 m 0
 409.918595017 422.763731036 397.635691151 408.97608457 378.353897267 408.97608457 c 0
 373.481942186 408.97608457 359.951641172 411.285857968 355.358148444 412.60805594 c 0
 351.175711013 413.811935127 328.827916537 421.37592431 328.827916537 445.553833398 c 0
 328.827916537 452.516048725 331.358673053 463.469250115 344.991418309 471.974104647 c 1
 348.031273046 482.487055694 357.70545072 489.995097764 369 489.995097764 c 0
 372.694760219 489.995097764 379.360241296 489.995097764 388.173614326 481.181724733 c 0
 390.210925236 480.066217391 394.751318212 477.095569367 397.97593361 471.379405449 c 0
 405.890597885 463.464741174 409.918595017 447.788461313 409.918595017 438.905324837 c 0
580.233588071 429.849786285 m 0
 580.233588071 413.488738218 567.504965564 400.851816168 551.113925495 400.851816168 c 0
 539.768936803 400.851816168 539.335160031 404.203043441 530.997578385 406.385390033 c 0
 523.374431338 408.380734688 502.660782749 413.802493937 502.660782749 436.996891084 c 0
 502.660782749 448.532208559 510.601966814 464.332920528 530.043414828 466.247331573 c 0
 534.656178605 470.0791757 540.328089306 471.995097762 546.000000008 471.995097762 c 0
 546.420933352 471.995097762 576.03703392 469.876901647 577.122968801 443.65414485 c 0
 578.558591167 440.928509124 580.233588071 436.354828724 580.233588071 429.849786285 c 0
567 219.995097764 m 0
 580.812968658 219.995097764 591.995097764 208.812835975 591.995097764 195 c 0
 591.995097764 190.921466907 591.995097764 190.921466907 578.710216297 151.066822507 c 0
 577.56381736 147.627625696 575.650287044 144.388936147 572.969625349 141.619099206 c 0
 567.746064788 136.221770991 554.656583444 121.513762207 546.368538809 113.225717572 c 0
 529.810798732 96.667977495 506.164138679 76.6513642731 474.113087677 76.6513642731 c 0
 420.499390362 76.6513642731 392.157366014 132.389584367 373.713212006 168.662375012 c 0
 371.90767216 172.21320032 371.004902236 176.10660016 371.004902236 180 c 0
 371.004902236 193.812968658 382.187164025 204.995097764 396 204.995097764 c 0
 399.650502502 204.995097764 411.35202075 204.995097764 419.305650618 189.332083221 c 0
 430.347858322 167.586759045 451.384089353 126.677308176 473.584206625 126.677308176 c 0
 491.457288473 126.677308176 509.525215861 146.477670723 525.586880787 164.079401228 c 0
 528.042685495 166.770679675 530.517363404 169.485447141 533.039136141 172.181234806 c 1
 543.289783703 202.933177493 l 2
 546.622611647 212.931661325 556.04380725 219.995097764 567 219.995097764 c 0
227.835868392 329.627853004 m 0
 227.835868392 350.810011346 232.855199688 367.275157327 239.873538663 390.297741199 c 0
 239.774769272 393.713484242 239.727308056 397.108930269 239.727308056 400.485643136 c 0
 239.727308056 424.26063102 239.727308056 441.91870273 255.347271896 526.160009756 c 0
 266.03409706 597.295323651 295.642377894 762.121074731 443.83762853 768.96826038 c 0
 444.224860405 768.986151969 444.612430202 768.995097764 445 768.995097764 c 0
 496.081331605 768.995097764 560.106302583 733.155922864 592.56090661 714.988851293 c 0
 598.183857886 714.863595482 603.772479297 712.85458585 608.294186765 708.961823067 c 0
 614.532264731 708.640826545 614.532264731 708.640826545 634.856052138 696.4465541 c 0
 640.512751315 693.052534594 645.024790786 687.259370917 646.496272421 679.985663089 c 0
 651.871737374 653.414103808 663.234185001 625.785487045 667.737008166 594.595595305 c 0
 677.077387485 526.620915096 716.734805344 435.722896907 716.734805344 403.653765277 c 0
 716.734805344 390.418759687 712.458533896 379.640219728 712.458533896 371.987058051 c 0
 712.458533896 370.306745171 712.995097764 369.295541229 712.995097764 366 c 0
 712.995097764 365.747481761 712.384260326 355.219453458 712.384260326 340.755565219 c 0
 712.384260326 325.452082299 712.995097764 305.631867113 712.995097764 303 c 0
 712.995097764 298.788635271 709.697580252 280.027830644 709.697580252 257.505699702 c 0
 709.697580252 211.102881851 723.661689784 204.001362553 723.661689784 160.323695899 c 0
 723.661689784 56.5981155992 626.088891682 -18.5279338093 524.280307495 -21.8984049403 c 1
 505.333359852 -27.8660882464 487.061156603 -30.5856231287 469.608372802 -30.5856231287 c 0
 368.188650546 -30.5856231287 294.35248601 59.8603341663 265.055949347 157.806494466 c 0
 258.392236039 180.085070917 261.449825993 222.100552601 246.999442733 244.428462957 c 0
 246.618497978 245.017077126 226.923157093 278.295844603 226.923157093 311.605826832 c 0
 226.923157093 316.085141261 227.231352574 320.683380088 227.91090149 325.395358065 c 0
 227.860285685 326.818213117 227.835868392 328.22898302 227.835868392 329.627853004 c 0
662.371983935 372.794003352 m 0
 662.371983935 385.984136158 666.642924703 396.666154013 666.642924703 404.416305505 c 0
 666.642924703 405.173372158 665.724128444 415.101525074 646.11975351 477.288101323 c 0
 635.154912217 512.069416281 623.674116982 548.024901042 618.262991834 587.404404695 c 0
 614.956990533 610.304220858 606.025234687 634.175991032 599.955216692 659.066684602 c 1
 592.344598041 663.633055793 592.344598041 663.633055793 590.744544388 665.004902236 c 1
 586 665.004902236 l 2
 581.775030581 665.004902236 577.550061161 666.067982873 573.76285445 668.194144147 c 0
 533.352441828 690.880799753 485.510097019 717.289438263 445.159469482 718.982146248 c 0
 365.388130635 714.777353534 324.038606486 647.26416773 304.71762993 518.272647458 c 0
 304.650656175 517.825514444 304.650656175 517.825514444 303.671145576 512.550077565 c 0
 296.28635127 472.77713764 289.724422599 436.645701021 289.724422599 400.174178561 c 0
 289.724422599 392.61354942 289.995097764 388.304857065 289.995097764 387 c 0
 289.995097764 376.950790458 277.84096999 352.016488965 277.84096999 329.166208362 c 0
 277.84096999 326.408220283 277.995097764 325.52989888 277.995097764 324 c 0
 277.995097764 319.795154422 276.970942561 318.206038348 276.970942561 312.12150816 c 0
 276.970942561 299.610356504 282.020997749 286.17331057 289.827358854 270.273056753 c 0
 305.173771891 245.773758 307.204013713 219.845879318 309.33477593 199.21581716 c 0
 310.401019379 188.892443557 311.427578474 179.507843228 313.200056497 171.342561074 c 0
 325.213937416 131.639151629 347.342599558 90.468035503 376.221731512 61.5889035495 c 0
 402.234451834 35.5761832278 432.588700527 19.1439491807 468.476982563 19.1439491807 c 0
 495.925789824 19.1439491807 510.843382978 27.8607755577 519.622800608 27.9922731024 c 0
 593.053755518 29.0921171558 673.871451421 82.2331350923 673.871451421 159.442725494 c 0
 673.871451421 194.09231739 659.667126558 204.066073234 659.667126558 257.491675711 c 0
 659.667126558 273.53180672 661.08910706 289.184727624 662.971760478 304.314275577 c 0
 662.385188752 331.837356743 662.385188752 331.837356743 662.385188752 340.684739951 c 0
 662.385188752 348.5673824 662.52175836 356.559694384 662.904898755 364.660330712 c 0
 662.527574789 367.501322021 662.371983935 370.217074312 662.371983935 372.794003352 c 0
EndSplineSet
EndChar

StartChar: one
Encoding: 49 49 31
Width: 1000
Flags: H
LayerCount: 2
Fore
SplineSet
610 81.9950977635 m 0
 623.812968658 81.9950977635 634.995097764 70.812835975 634.995097764 57 c 0
 634.995097764 44.3256650232 625.5481038 33.7285323813 613.074643556 32.1933372743 c 0
 416.543608873 8.00490223649 416.543608873 8.00490223649 415 8.00490223649 c 2
 400 8.00490223649 l 2
 386.187031342 8.00490223649 375.004902236 19.187164025 375.004902236 33 c 0
 375.004902236 46.8129686579 386.187164025 57.9950977635 400 57.9950977635 c 2
 413.456391127 57.9950977635 l 1
 608.456391127 81.9950977635 608.456391127 81.9950977635 610 81.9950977635 c 0
478 14.0049022365 m 0
 464.187031342 14.0049022365 453.004902236 25.187164025 453.004902236 39 c 0
 453.004902236 39.6292401244 453.004902236 39.6292401244 455.967893336 98.8890621163 c 1
 444.398154633 295.574620068 l 1
 440.638620229 301.886460736 434.198210017 312.866703993 434.198210017 327.056774594 c 0
 434.198210017 329.749580121 434.430138666 332.557976254 434.956328869 335.471995404 c 0
 434.621868139 354.40025771 434.40910658 373.36814802 434.40910658 392.375478147 c 0
 434.40910658 392.92289321 434.535802034 441.796378541 435.197876355 447.111301414 c 0
 435.98238837 453.40911538 436.361845204 459.587755396 436.361845204 465.650653982 c 0
 436.361845204 512.135766541 414.055442162 551.817009069 380.98016153 586.241465691 c 1
 371.057912077 546.617675036 358.038176674 507.063485177 329.400061031 482.129839851 c 0
 324.710101757 478.046548108 318.855050879 476.004902236 313 476.004902236 c 0
 299.187031342 476.004902236 288.004902236 487.187164025 288.004902236 501 c 0
 288.004902236 504.670480803 288.918676556 513.182503914 296.599938969 519.870160149 c 0
 317.970864018 538.476658989 327.985563808 579.744862706 335.918462899 612.434459264 c 0
 343.285556644 642.792506119 344.035928135 645.391267194 349.32233047 650.67766953 c 0
 354.20061596 655.555955019 360.60030798 657.995097764 367 657.995097764 c 0
 372.623636141 657.995097764 378.247272282 656.111650368 382.838575702 652.344755578 c 0
 422.893384177 619.48213781 486.34809872 556.213623861 486.34809872 465.553972468 c 0
 486.34809872 445.586223859 484.39981075 459.543775348 484.39981075 392.381980262 c 0
 484.39981075 361.314664725 484.995097764 334.456412844 484.995097764 332.999999999 c 0
 484.995097764 331.143046174 484.7897352 329.286092348 484.379010072 327.466306709 c 0
 488.088957548 318.186924256 493.384397015 314.122001909 493.951645011 304.478785983 c 0
 505.995097764 99.7400891906 505.995097764 99.7400891906 505.995097764 99 c 0
 505.995097764 98.3707598756 505.995097764 98.3707598756 502.963678563 37.7423758625 c 0
 502.29912479 24.4513004012 491.338946985 14.0049022365 478 14.0049022365 c 0
EndSplineSet
EndChar

StartChar: two
Encoding: 50 50 32
Width: 1000
Flags: H
LayerCount: 2
Fore
SplineSet
918.541176153 135.98928303 m 0
 932.133126802 135.697165481 942.995097764 124.608477813 942.995097764 111 c 0
 942.995097764 97.1870313421 931.812835975 86.0049022365 918 86.0049022365 c 0
 917.864547818 86.0049022365 908.675065807 86.2559767669 904.457109008 86.2559767669 c 0
 901.106861811 86.2559767669 897.074613345 86.0049022365 897 86.0049022365 c 0
 896.787416902 86.0049022365 885.805236708 86.5175663559 875.747872816 86.5175663559 c 0
 834.663250003 86.5175663559 800.024283671 79.6845156616 770.946135915 57.9562690407 c 0
 766.528642623 54.6553578379 761.264321312 53.0049022365 756 53.0049022365 c 0
 754.363131012 53.0049022365 738.665267708 53.4153760239 732.670848451 69.0045103025 c 0
 729.452481412 77.374221159 716.307523366 83.336980868 709.634769166 83.336980868 c 0
 708.49320626 83.336980868 707.547027123 83.0049022365 705 83.0049022365 c 0
 691.187031342 83.0049022365 680.004902236 94.187164025 680.004902236 108 c 0
 680.004902236 113.437642711 681.9656168 133.418899216 710.785804454 133.418899216 c 0
 730.432850254 133.418899216 748.833675575 124.552846809 762.371654074 111.721754228 c 1
 797.984477659 131.123285037 836.974307869 136.509858746 875.734654417 136.509858746 c 0
 882.667979368 136.509858746 889.593961554 136.337505124 896.491959228 136.042182435 c 0
 899.188224496 136.242487335 901.793946943 136.310166564 904.323350371 136.310166564 c 0
 907.328649691 136.310166564 918.398961689 135.98928303 918.541176153 135.98928303 c 0
379.469752003 64.9861248189 m 0
 359.075539174 64.9861248189 353.004902236 81.0591243026 353.004902236 90 c 0
 353.004902236 103.812968658 364.187164025 114.995097764 378 114.995097764 c 0
 378.014594745 114.995097764 379.35688407 114.976167823 379.459351726 114.976167823 c 0
 381.650773583 114.976167823 384.14127078 115.204478144 387.961483989 115.204478144 c 0
 393.608538923 115.204478144 397.060671082 114.807543137 399.620258871 114.108081322 c 0
 431.835557764 105.304565601 464.430318147 101.873645585 498.195141675 101.873645585 c 0
 519.437611314 101.873645585 541.143197548 103.231620156 563.50877026 105.464067316 c 1
 582.184987366 113.427303617 599.721633313 116.897721187 615.932930107 116.897721187 c 0
 666.245248707 116.897721187 695.706590706 84.6494264269 735.478616397 84.6494264269 c 0
 738.003838051 84.6494264269 743.914713532 84.9950974938 743.999997424 84.9950974938 c 0
 748.754556483 84.9950974938 749.453702649 83.9850447283 752.383469021 83.9850447283 c 0
 770.081571241 83.9850447283 801.946106006 94.2851668644 823.628381809 94.2851668644 c 0
 826.526256941 94.2851668644 829.583297517 94.0749328314 832.976914944 93.4401901091 c 1
 837.505619389 97.9023695267 851.731415684 111.91919403 871.709159372 111.91919403 c 0
 885.899581482 111.91919403 906.995097764 104.082730765 906.995097764 84 c 0
 906.995097764 70.1870313421 895.812835975 59.0049022365 882 59.0049022365 c 0
 878.524988715 59.0049022365 875.04997743 59.7240721441 871.818543388 61.1624119592 c 0
 857.80953036 50.510054882 850.346184046 29.0049022365 831 29.0049022365 c 0
 828.414721223 29.0049022365 815.467529118 29.6613814225 808.812926275 42.4683907524 c 1
 804.57792469 41.7186152526 799.84532114 40.7907289879 794.938998366 39.8174048374 c 0
 766.622272731 34.1998875661 758.875971425 33.8216038124 752.311366018 33.8216038124 c 0
 748.95919726 33.8216038124 745.473975214 34.0829813496 741.774729345 34.8140617656 c 0
 739.710437874 34.7158037134 737.675342719 34.6686162446 735.668979548 34.6686162446 c 0
 682.428894371 34.6686162446 652.008545542 66.9293601648 615.417372418 66.9293601648 c 0
 593.951599901 66.9293601648 581.902496587 57.1061229907 572.601915152 56.1396907448 c 0
 547.733470944 53.5555870732 522.953939796 51.8755155187 498.188574979 51.8755155187 c 0
 429.453175112 51.8755155187 391.830634606 65.2342932178 388.08963569 65.2342932178 c 0
 386.062199288 65.2342932178 383.207490873 64.9861248189 379.469752003 64.9861248189 c 0
451 80.0049022365 m 0
 437.187031342 80.0049022365 426.004902236 91.187164025 426.004902236 105 c 0
 426.004902236 107.788409701 426.467956874 110.576819403 427.39406615 113.23938357 c 2
 451.39406615 182.23938357 l 2
 452.332172348 184.93643889 453.745407811 187.504367124 455.63377254 189.812368458 c 0
 510.429116673 256.784455732 510.429116673 256.784455732 511.32233047 257.67766953 c 0
 516.20061596 262.555955019 522.60030798 264.995097764 529 264.995097764 c 0
 542.812968658 264.995097764 553.995097764 253.812835975 553.995097764 240 c 0
 553.995097764 234.387059228 552.118807662 228.774118455 548.36622746 224.187631542 c 2
 497.159204862 161.601270588 l 1
 474.60593385 96.7606164296 l 2
 471.186606094 86.9300491315 461.849356833 80.0049022365 451 80.0049022365 c 0
520 179.004902236 m 0
 506.187031342 179.004902236 495.004902236 190.187164025 495.004902236 204 c 0
 495.004902236 208.836954552 496.398261412 213.673909104 499.184979762 217.853986629 c 0
 542.557644146 282.912983205 542.557644146 282.912983205 544.32233047 284.67766953 c 2
 625.32233047 365.67766953 l 2
 630.20061596 370.555955019 636.60030798 372.995097764 643 372.995097764 c 0
 656.812968658 372.995097764 667.995097764 361.812835975 667.995097764 348 c 0
 667.995097764 341.60030798 665.555955019 335.20061596 660.67766953 330.32233047 c 2
 581.442355854 251.087016795 l 1
 539.442355854 188.087016795 539.442355854 188.087016795 537.67766953 186.32233047 c 0
 532.79938404 181.444044981 526.39969202 179.004902236 520 179.004902236 c 0
622 302.004902236 m 0
 608.187031342 302.004902236 597.004902236 313.187164025 597.004902236 327 c 0
 597.004902236 334.583870341 597.004902236 334.583870341 613.184979762 358.853986629 c 0
 614.085320903 360.204498341 615.131104472 361.486443531 616.32233047 362.67766953 c 2
 724.32233047 470.67766953 l 2
 729.20061596 475.555955019 735.60030798 477.995097764 742 477.995097764 c 0
 755.812968658 477.995097764 766.995097764 466.812835975 766.995097764 453 c 0
 766.995097764 446.60030798 764.555955019 440.20061596 759.67766953 435.32233047 c 2
 653.442355854 329.087016795 l 1
 641.442355854 311.087016795 641.442355854 311.087016795 639.67766953 309.32233047 c 0
 634.79938404 304.444044981 628.39969202 302.004902236 622 302.004902236 c 0
776.201886951 541.41778178 m 0
 776.201886951 571.700805478 796.000172559 573.995097764 802 573.995097764 c 0
 815.812968658 573.995097764 826.995097764 562.812835975 826.995097764 549 c 0
 826.995097764 545.24315915 826.318180371 544.276243829 826.318180371 542.221579425 c 0
 826.318180371 535.068989593 829.083061739 526.330332195 829.083061739 515.608244548 c 0
 829.083061739 477.63428698 797.892306935 460.110780735 774.827026485 447.152306708 c 0
 754.396984254 435.674355153 744.648953162 428.817642388 741.390264832 420.1650958 c 0
 737.810156726 410.659107793 728.635865373 404.004902236 718 404.004902236 c 0
 704.187031342 404.004902236 693.004902236 415.187164025 693.004902236 429 c 0
 693.004902236 439.968540041 702.266703786 454.470086281 711.959123336 464.162505831 c 0
 735.47384653 487.677229026 774.1821635 499.261226856 778.22478462 511.735431123 c 0
 778.927155662 513.902718036 778.927155662 513.902718036 778.927155662 515.185387314 c 0
 778.927155662 522.270556686 776.201886951 530.783609995 776.201886951 541.41778178 c 0
817 509.004902236 m 0
 803.187031342 509.004902236 792.004902236 520.187164025 792.004902236 534 c 0
 792.004902236 539.920707732 792.004902236 539.922273993 800.968384654 557.849238829 c 1
 749.75820134 657.574332651 l 2
 747.922668604 661.148791136 747.004902236 665.074395568 747.004902236 669 c 0
 747.004902236 682.812968658 758.187164025 693.995097764 772 693.995097764 c 0
 774.551520552 693.995097764 787.606422794 693.347188772 794.24179866 680.425667349 c 2
 851.24179866 569.425667349 l 2
 853.077331396 565.851208864 853.995097764 561.925604432 853.995097764 558 c 0
 853.995097764 552.077726007 853.995097764 552.077726007 839.362307031 522.812144542 c 0
 838.258234033 520.603998545 831.756390298 509.004902236 817 509.004902236 c 0
790.995097764 675 m 0
 790.995097764 661.187031342 779.812835975 650.004902236 766 650.004902236 c 0
 762.474544109 650.004902236 750.541314122 650.004902236 742.690007429 665.707515621 c 1
 706.434050993 675.340930095 670.377818906 685.764593811 635.669016877 698.004902236 c 1
 634 698.004902236 l 2
 620.187031342 698.004902236 609.004902236 709.187164025 609.004902236 723 c 0
 609.004902236 736.812968658 620.187164025 747.995097764 634 747.995097764 c 2
 640 747.995097764 l 2
 642.862449646 747.995097764 645.724899291 747.507125902 648.451210231 746.531182179 c 0
 685.750924454 733.178918711 725.659843026 721.816600447 766.352710782 711.179603574 c 0
 769.611512705 710.327762261 777.782141624 707.348186272 782.362307031 698.187855458 c 0
 790.882496633 681.147476254 790.995097764 680.922273993 790.995097764 675 c 0
445 647.004902236 m 0
 431.187031342 647.004902236 420.004902236 658.187164025 420.004902236 672 c 0
 420.004902236 678.39969202 422.444044981 684.79938404 427.32233047 689.67766953 c 0
 451.201791402 713.557130461 451.201791402 713.557130461 454.812144542 715.362307031 c 0
 483.596971167 729.754720343 483.596971167 729.754720343 488.972902109 729.974146096 c 0
 636.486217958 735.995097764 636.486217958 735.995097764 637 735.995097764 c 0
 650.812968658 735.995097764 661.995097764 724.812835975 661.995097764 711 c 0
 661.995097764 697.573684005 651.415230652 686.572308302 638.027097891 686.025853904 c 2
 496.403028833 680.245279657 l 1
 480.798208598 672.442869539 l 1
 462.67766953 654.32233047 l 2
 457.79938404 649.444044981 451.39969202 647.004902236 445 647.004902236 c 0
439 708.995097764 m 0
 452.812968658 708.995097764 463.995097764 697.812835975 463.995097764 684 c 0
 463.995097764 673.041866863 456.929795369 663.621989662 446.933177493 660.289783703 c 2
 435.101630129 656.345934582 l 1
 384.724067225 600.930615387 379.270568796 594.915229737 378.67766953 594.32233047 c 0
 373.79938404 589.444044981 367.39969202 587.004902236 361 587.004902236 c 0
 347.187031342 587.004902236 336.004902236 598.187164025 336.004902236 612 c 0
 336.004902236 618.024444679 338.166391634 624.048889358 342.489370429 628.804166032 c 0
 382.629181928 672.957958681 402.683084254 695.038423314 403.32233047 695.67766953 c 0
 407.498904603 699.854243662 407.498904603 699.854243662 431.066822507 707.710216297 c 0
 433.63658544 708.566803941 436.31829272 708.995097764 439 708.995097764 c 0
358 636.995097764 m 0
 371.812968658 636.995097764 382.995097764 625.812835975 382.995097764 612 c 0
 382.995097764 606.077726007 381.743133164 603.573796807 377.780397439 595.648325358 c 2
 351.972579602 532.562548424 l 1
 343.437588555 492.732590203 l 2
 340.994278893 481.330478445 330.892918668 473.004902236 319 473.004902236 c 0
 305.187031342 473.004902236 294.004902236 484.187164025 294.004902236 498 c 0
 294.004902236 500.665700158 294.004902236 500.665700158 303.562411445 545.267409797 c 0
 303.845518057 546.588573989 328.032582965 607.97763545 335.637692969 623.187855458 c 0
 336.741765967 625.396001455 343.243609702 636.995097764 358 636.995097764 c 0
EndSplineSet
EndChar

StartChar: three
Encoding: 51 51 33
Width: 1000
Flags: H
LayerCount: 2
Fore
SplineSet
425.453887651 415.008490279 m 0
 433.647003123 415.008490279 442.861886938 411.742483426 466.111630142 411.742483426 c 0
 497.812941411 411.742483426 530.001643792 418.660694647 561.775991037 431.239983637 c 0
 577.755285735 437.566098358 618.745400727 435.127184405 622.049473421 442.331862579 c 0
 623.303820878 447.781845194 623.888959261 452.967855323 623.888959261 458.004518344 c 0
 623.888959261 479.340186616 613.389056021 497.995924408 598.779747335 522.684794501 c 0
 593.234956591 532.055163853 587.276457223 541.997954424 581.967900823 552.928642018 c 1
 550.579872051 554.022165695 521.654637136 572.666727687 512.304313435 584.599065446 c 0
 488.023699539 615.584568757 468.211289724 622.598927484 452.045559569 622.598927484 c 0
 407.01965255 622.598927484 353.511048972 571.837272619 285.106915767 566.093194584 c 0
 284.405954826 566.034333019 283.702977413 566.004902236 283 566.004902236 c 2
 277 566.004902236 l 2
 263.187031342 566.004902236 252.004902236 577.187164025 252.004902236 591 c 0
 252.004902236 604.812968658 263.187164025 615.995097764 277 615.995097764 c 2
 281.883319524 615.995097764 l 1
 338.225854038 621.309808638 389.814311497 672.547524287 451.834425287 672.547524287 c 0
 488.458930198 672.547524287 521.221827664 653.623716688 550.351500937 617.101276897 c 0
 560.305745726 608.285207363 572.315316039 602.86648562 585.283156862 602.86648562 c 0
 591.719827554 602.86648562 593.695356698 603.995097764 598 603.995097764 c 0
 608.736037186 603.995097764 617.988286743 597.214140992 621.494237022 587.553709422 c 0
 635.181740382 549.83863104 673.835123082 512.68613479 673.835123082 457.728102961 c 0
 673.835123082 393.706219329 630.730770833 388.763426134 596.762838957 386.235738734 c 0
 588.897642176 385.650457513 582.278902496 384.953348439 578.695357305 384.158756791 c 0
 548.467992356 372.34708587 516.928629944 364.624469685 484.922152376 362.411276998 c 1
 574.814508539 316.140665649 684.640028699 251.329982572 712.479353191 116.068576341 c 0
 712.823182906 114.398029675 712.995097764 112.699014837 712.995097764 111 c 0
 712.995097764 107.261599223 712.162776893 103.523198445 710.498135151 100.088064998 c 0
 693.22714323 64.4478665449 648.451168517 1.30344645477 547.980637807 1.30344645477 c 0
 547.50521048 1.30344645477 514.124743302 1.9949518818 500.67989485 6.09418217547 c 0
 494.370321179 8.01792238146 488.0101063 8.83561548644 481.38317897 8.83561548644 c 0
 450.672577301 8.83561548644 422.272961376 -7.02049858297 382.335840934 -7.02049858297 c 0
 309.994721705 -7.02049858297 272.336179196 39.2727252944 240.462729505 78.4543994648 c 0
 222.644512223 100.358134096 206.40183139 120.127533103 185.690384957 134.038974753 c 1
 172.422619956 134.729867586 162.004902236 145.679450827 162.004902236 159 c 0
 162.004902236 172.812968658 173.187164025 183.995097764 187 183.995097764 c 2
 193 183.995097764 l 2
 197.437293791 183.995097764 201.874587582 182.822482788 205.804747516 180.477252837 c 0
 220.736694538 171.566966749 233.424921064 160.84711551 244.638368152 149.633668423 c 0
 269.255377068 125.016659506 288.031364608 96.7369621218 309.009362525 75.7589642054 c 0
 329.278791108 55.4895356217 349.236407779 42.9665635589 382.015875696 42.9665635589 c 0
 413.367966311 42.9665635589 443.167642338 58.9326302345 480.875986615 58.9326302345 c 0
 491.372343994 58.9326302345 502.3819855 57.6664937635 513.792798564 54.3599200114 c 0
 525.845055874 52.2540940251 537.434452079 51.2121043241 548.499920025 51.2121043241 c 0
 573.846082498 51.2121043241 629.352580411 56.4464225808 661.618052942 114.436349225 c 1
 633.827826563 229.29632901 533.573454449 281.907875945 432.307213606 333.040988585 c 0
 395.433886854 351.659710427 380.38743337 359.25722757 376.32233047 363.32233047 c 0
 371.444044981 368.20061596 369.004902236 374.60030798 369.004902236 381 c 0
 369.004902236 399.355227248 387.100637387 415.008490279 425.453887651 415.008490279 c 0
EndSplineSet
EndChar

StartChar: four
Encoding: 52 52 34
Width: 1000
Flags: H
LayerCount: 2
Fore
SplineSet
464.987435459 618.950975316 m 0
 464.853132837 626.878459933 464.317577878 639.443252272 464.317577878 648.711062087 c 0
 464.317577878 671.550523957 465.986116637 677.341455697 472.32233047 683.67766953 c 0
 477.20061596 688.555955019 483.60030798 690.995097764 490 690.995097764 c 0
 503.812968658 690.995097764 514.995097764 679.812835975 514.995097764 666 c 0
 514.995097764 663.318077309 514.328670597 660.000265057 514.328670597 648.730788464 c 0
 514.328670597 638.537820264 514.995097764 623.560763487 514.995097764 618 c 0
 514.995097764 615.320894021 514.228484783 610.826241245 514.228484783 601.884864321 c 0
 514.228484783 569.885479459 523.995097764 555.794968164 523.995097764 546 c 0
 523.995097764 545.504379874 523.386783231 521.611651263 523.386783231 496.441720719 c 0
 523.386783231 483.310972105 523.537578059 470.212465299 523.88823853 457.146000372 c 1
 527.550596638 444.629379058 528.839295357 432.500627462 528.839295357 420.940627522 c 0
 528.839295357 391.536362438 520.25672997 363.832108944 520.25672997 337.628773463 c 0
 520.25672997 332.641460545 520.995097764 324.136487601 520.995097764 324 c 0
 520.995097764 309.153053919 513.924579226 271.121843226 513.924579226 246.478872314 c 0
 513.924579226 238.74497635 514.995097764 228.18509855 514.995097764 228 c 0
 514.995097764 224.806275782 514.347847291 223.503645611 514.347847291 215.256907341 c 0
 514.347847291 206.730319298 515.029550246 198.447756697 515.029550246 189.253087369 c 0
 515.029550246 185.114823633 515.029550246 185.114823633 496.874214244 0.535574282404 c 0
 495.619618704 -12.2194803736 484.896075577 -21.9950977635 472 -21.9950977635 c 0
 458.187031342 -21.9950977635 447.004902236 -10.812835975 447.004902236 3 c 0
 447.004902236 6.44756886195 465.03698676 185.164945955 465.03698676 189.068371923 c 0
 465.03698676 197.282950565 464.322032595 206.268502574 464.322032595 215.225545625 c 0
 464.322032595 219.231611817 464.457948447 223.449253465 464.858263285 227.867313297 c 0
 464.170709337 234.416278524 463.885758338 240.811644557 463.885758338 247.052957002 c 0
 463.885758338 274.163349683 469.263774462 298.718988547 470.92230136 323.464016311 c 0
 470.430197358 328.516567507 470.219381429 333.458060468 470.219381429 338.284988592 c 0
 470.219381429 368.542355705 478.695811202 395.765408658 478.695811202 421.378573011 c 0
 478.695811202 440.152784704 474.249031495 444.361984145 474.015878704 452.256500361 c 0
 473.579712505 467.02501811 473.395924746 481.755697806 473.395924746 496.448282681 c 0
 473.395924746 511.687651962 473.593646363 526.886038264 473.912552592 542.04315507 c 1
 467.433989239 561.541676445 464.246086738 581.741408065 464.246086738 602.002230659 c 0
 464.246086738 607.651688219 464.493945561 613.305895591 464.987435459 618.950975316 c 0
230.470015823 712.499999778 m 0
 230.470015823 736.104562824 246.80689609 741.995097764 256 741.995097764 c 0
 269.812968321 741.995097764 280.995098354 730.8128359 280.995098354 716.999999824 c 0
 280.995098354 715.493381867 280.859914333 713.986763912 280.589546296 712.499996731 c 0
 280.809715453 711.289293031 281.684626278 705.889893783 281.684626278 699.203385746 c 0
 281.684626278 666.353285356 262.097805447 643.592103593 257.549549697 622.860316915 c 1
 266.645351235 591.553136652 270.246696201 559.977640383 270.246696201 528.772383028 c 0
 270.246696201 489.510955655 264.545823341 450.835610703 256.914510084 414.018131722 c 0
 256.403609108 403.367225417 253.212882549 392.469785469 251.241036547 378.984740529 c 1
 253.701150751 379.269450295 256.168159387 379.399184316 258.628137538 379.399184316 c 0
 260.953931918 379.399184316 263.273441874 379.283217425 265.57489913 379.072616017 c 0
 266.43706082 379.107458374 267.28526863 379.123963987 268.119493327 379.123963987 c 0
 284.518916537 379.123963987 297.102975055 372.419540617 306.469395956 372.419540617 c 0
 308.667612784 372.419540617 309.568379984 372.995097764 313 372.995097764 c 0
 315.192313013 372.995097764 316.210445134 372.696406699 320.093907424 372.696406699 c 0
 342.043640492 372.696406699 367.677602357 382.802805068 395.912553748 382.802805068 c 0
 404.969237968 382.802805068 414.497223409 381.795720705 424.355414433 379.086362242 c 0
 425.475500863 379.10184451 426.579409979 379.107987793 427.66711601 379.107987793 c 0
 428.125795017 379.107987793 438.107353284 379.031789261 438.212813007 379.031789261 c 0
 473.861365705 379.031789261 463.839983169 387.148191859 479.710220152 387.962050165 c 2
 589.837919771 393.609624505 l 1
 607.400698767 405.318143836 608.416129659 405.995097764 616 405.995097764 c 0
 629.812968658 405.995097764 640.995097764 394.812835975 640.995097764 381 c 0
 640.995097764 377.764322388 640.172677662 367.064107117 629.853986629 360.184979762 c 0
 606.162080229 344.390375495 606.162080229 344.390375495 599.289779848 344.037949835 c 2
 488.413286296 338.351975806 l 1
 472.61564625 330.021911516 456.472343686 328.956465918 443.570063314 328.956465918 c 0
 443.411322821 328.956465918 429.160559467 329.113222325 427.69678806 329.113222325 c 0
 424.285474482 329.113222325 421.06697664 329.004902236 421 329.004902236 c 0
 413.040816373 329.004902236 410.618200454 332.669421298 396.451848374 332.669421298 c 0
 373.502159829 332.669421298 348.764817503 322.669321025 320.835165893 322.669321025 c 0
 318.585891218 322.669321025 316.303020207 322.732062996 313.986694545 322.868267443 c 0
 311.174578852 322.513938445 308.462503189 322.361902045 305.861483739 322.361902045 c 0
 289.01591975 322.361902045 275.041931835 329.104115611 267.44599996 329.104115611 c 0
 266.985284017 329.104115611 266.365163251 329.004902236 265 329.004902236 c 0
 262.411027425 329.004902236 261.591538324 329.35807359 259.188851339 329.35807359 c 0
 253.754825282 329.35807359 252.464518497 325.601427278 239.635924275 325.601427278 c 0
 226.572703204 325.601427278 200.392628465 332.279785868 200.392628465 368.834458192 c 0
 200.392628465 389.405704474 206.931548092 409.828717913 207.006174463 417.253149669 c 0
 207.078771313 424.475668313 220.171673231 472.702803653 220.171673231 528.846368319 c 0
 220.171673231 585.919516357 207.004902236 611.332489476 207.004902236 621 c 0
 207.004902236 648.553754455 231.663123428 679.352230779 231.663123428 699.545872023 c 0
 231.663123428 704.479182816 230.470015823 705.815293721 230.470015823 712.499999778 c 0
EndSplineSet
EndChar

StartChar: five
Encoding: 53 53 35
Width: 1000
Flags: H
LayerCount: 2
Fore
SplineSet
699.004902236 171 m 0
 699.004902236 171.223658133 699.013676334 172.087387815 699.013676334 173.497484875 c 0
 699.013676334 214.311130323 691.392164707 248.099569159 675.17531106 284.561059032 c 1
 610.340040328 376.411025903 l 1
 407.135319603 416.479562384 l 2
 404.310672148 417.036535122 404.310672148 417.036535122 308.69590076 460.217399619 c 0
 299.998452679 464.145279398 294.004902236 472.903703082 294.004902236 483 c 0
 294.004902236 496.812968658 305.187164025 507.995097764 319 507.995097764 c 0
 322.519015837 507.995097764 326.038031675 507.257598636 329.30409924 505.782600381 c 2
 419.689327852 464.963464878 l 1
 629.864680397 423.520437616 l 2
 633.379329115 422.827408291 640.369636895 420.583598031 645.439992711 413.400593959 c 0
 718.80176643 309.471414523 718.80176643 309.471414523 719.774552532 307.321900794 c 0
 739.037190955 264.758272789 748.911573468 222.208960123 749.002661785 174.010670666 c 1
 751.527013867 163.25344964 752.773602683 152.804876892 752.773602683 142.767592882 c 0
 752.773602683 49.6640017765 650.153255143 18.8592350811 574.432970395 -3.87062075858 c 0
 544.333336226 -12.9059848986 528.539309737 -18.3825775857 528.063099236 -18.480479845 c 0
 513.602562745 -21.4533651372 496.865190704 -22.7657050592 478.384430645 -22.7657050592 c 0
 367.607704777 -22.7657050592 144.879704912 25.3896126449 144.879704912 136.710784891 c 0
 144.879704912 167.61464752 162.54339775 194.394467951 184.777124441 216.230119845 c 1
 197.268623616 237.409883399 220.75021302 246.493787303 240.957521197 254.311028398 c 0
 241.246730667 254.42290971 264.943838811 261.995097764 271 261.995097764 c 0
 284.812968658 261.995097764 295.995097764 250.812835975 295.995097764 237 c 0
 295.995097764 225.680597845 288.453183846 215.98530993 277.897879805 212.969508776 c 2
 258.012983352 207.288109789 l 2
 255.939916562 206.475657473 230.34679124 196.350582193 227.76693354 190.661280584 c 0
 225.99172799 186.746460093 225.99172799 186.746460093 218.757553456 179.512285558 c 0
 207.053016476 167.807748579 194.851031307 151.89695265 194.851031307 136.434036854 c 0
 194.851031307 80.0821531053 361.161321547 27.291187823 477.270814047 27.291187823 c 0
 492.999262007 27.291187823 506.49620006 28.3204903453 516.312241097 30.1614531411 c 0
 551.97095529 42.8104422469 600.198758751 54.0247839744 638.602399589 71.1697170043 c 0
 692.006115223 95.0112879622 702.867296665 120.049453689 702.867296665 142.707930021 c 0
 702.867296665 156.868726648 699.004902236 164.273983011 699.004902236 171 c 0
350.895610725 727.008922667 m 0
 369.410236982 727.008922667 376.995097764 712.540772483 376.995097764 702 c 0
 376.995097764 698.998397626 376.231285898 687.431477442 364.928777405 680.597250505 c 0
 364.922983768 680.473102013 364.251765304 671.072736582 364.251765304 668.187343246 c 0
 364.251765304 664.138066046 364.995097764 664.236818332 364.995097764 660 c 0
 364.995097764 658.165971384 360.473580006 613.528898795 346.870184061 477.49493935 c 0
 345.596412818 464.757226917 334.880067629 455.004902236 322 455.004902236 c 0
 308.187031342 455.004902236 297.004902236 466.187164025 297.004902236 480 c 0
 297.004902236 481.799728176 300.375627761 514.963178875 314.788513715 659.092038415 c 0
 314.321503274 662.413626951 314.163723279 665.493485342 314.163723279 668.291111409 c 0
 314.163723279 671.538979977 315.007304762 683.747106774 315.012405892 683.903376693 c 0
 314.441705026 686.621909097 314.026475613 689.746798322 314.026475613 693.078401825 c 0
 314.026475613 709.908711017 325.892193246 727.008922667 350.895610725 727.008922667 c 0
362.136895609 736.140784399 m 0
 364.525782099 736.140784399 371.835394896 736.140784399 381.478147391 729.995097764 c 1
 412 729.995097764 l 2
 415.52908949 729.995097764 424.934640137 729.105145151 431.760890984 720.317360029 c 0
 467.571015133 674.217138514 558.296678578 663.891701129 559.694926497 663.891701129 c 0
 572.670701768 663.891701129 593.387762223 669.995097764 601 669.995097764 c 2
 697 669.995097764 l 2
 697.790256138 669.995097764 762.721285793 667.485977748 775.967940612 666.976491024 c 0
 789.381182822 666.460597093 799.995097764 655.448398027 799.995097764 642 c 0
 799.995097764 628.187031342 788.812835975 617.004902236 775 617.004902236 c 0
 774.214585191 617.004902236 713.452551171 619.353490061 696.515834614 620.004902236 c 2
 603.108710405 620.004902236 l 2
 599.875119757 619.442402127 596.547422867 618.787893929 593.079537202 618.102774345 c 0
 583.566971056 616.223460554 572.710385524 613.886270384 560.183787308 613.886270384 c 0
 557.914309475 613.886270384 554.386737943 613.952777945 552.129117404 614.304293112 c 0
 504.388742585 621.737546629 441.505003189 636.023175419 400.487404713 680.004902236 c 1
 380.427404082 680.004902236 l 2
 379.504511509 679.92822027 378.599031975 679.892914134 377.7143536 679.892914134 c 0
 370.653360981 679.892914134 363.807354971 682.05529301 356.991421196 686.326124012 c 0
 344.962885469 688.267459893 336.004902236 698.661592166 336.004902236 711 c 0
 336.004902236 724.051132777 346.208146462 736.140784399 362.136895609 736.140784399 c 0
EndSplineSet
EndChar

StartChar: six
Encoding: 54 54 36
Width: 1000
Flags: H
LayerCount: 2
Fore
SplineSet
508 374.004902236 m 0
 503.715111388 374.004902236 495.342473891 376.148726983 479.585243643 376.148726983 c 0
 447.872738488 376.148726983 418.306506315 366.705437062 393.705428847 348.778644454 c 0
 392.549685138 347.936454602 391.337800368 347.205699928 390.084631257 346.586380431 c 0
 381.145712413 342.168743038 372.588359698 334.505035881 362.186201938 324.687495853 c 0
 358.066761743 320.799574718 353.649756213 316.556057873 348.716824736 312.331471227 c 1
 352.818209074 211.847554939 l 1
 378.800207974 139.097958018 l 1
 515.497510739 46.2469599137 l 1
 651.944765841 159.523926413 l 1
 656.354220848 211.512948775 657.014369471 219.296332763 657.014369471 240.24477176 c 0
 657.014369471 241.327720939 646.838339032 296.420272524 606.973658274 336.284953282 c 0
 583.253829607 360.00478195 553.761089939 374.3838667 518.824578207 374.3838667 c 0
 514.694112876 374.3838667 508.108312099 374.004902236 508 374.004902236 c 0
505 737.004902236 m 2
 504.976566072 737.004902236 503.531655025 737.023650762 502.656682228 737.023650762 c 0
 465.79807195 737.023650762 407.730233769 721.18001687 355.814895219 597.559376036 c 1
 347.907086695 378.776673544 l 1
 353.270707557 382.920906502 359.227192904 386.922071945 365.965133408 390.424867562 c 0
 399.119976608 414.038010864 438.67469574 426.115625573 479.809830451 426.115625573 c 0
 489.481150887 426.115625573 499.239832203 425.448009369 509.023239417 424.105731867 c 0
 512.240649069 424.27979421 515.430453457 424.365475049 518.591663143 424.365475049 c 0
 615.107968044 424.365475049 687.000502714 344.890966944 706.501595083 247.959279658 c 0
 707.004838688 245.457868414 707.004838688 244.044618309 707.004838688 240.167243879 c 0
 707.004838688 214.942174044 704.844837067 190.667375769 702.80996687 167.439841647 c 0
 702.146049882 159.861395351 701.492242312 152.393870762 700.91887694 145.042150597 c 0
 700.388930592 138.247151374 697.145154429 132.060158339 691.950693257 127.747775479 c 2
 532.950693257 -4.2522245206 l 2
 528.338992017 -8.08080668254 522.669496008 -9.99509776351 517 -9.99509776351 c 0
 512.094037477 -9.99509776351 507.188074954 -8.56169736537 502.967507115 -5.6948965691 c 0
 342.009781876 103.634879065 342.009781876 103.634879065 340.32233047 105.32233047 c 0
 337.621403101 108.023257839 335.668177837 111.190561712 334.462654677 114.56602656 c 2
 304.462654677 198.56602656 l 2
 303.181790926 202.152445061 303.181790926 202.152445061 300.514882222 267.491708307 c 1
 297.769484316 266.50050426 294.884742158 266.004902236 292 266.004902236 c 0
 278.187031342 266.004902236 267.004902236 277.187164025 267.004902236 291 c 0
 267.004902236 296.417478659 268.752789777 301.834957317 272.248564857 306.329525277 c 0
 295.174134763 335.805258014 295.174134763 335.805258014 297.647857139 337.733822858 c 1
 297.004902236 353.486217958 297.004902236 353.486217958 297.004902236 354 c 0
 297.004902236 354.455020221 297.004902236 354.455020221 306.021337044 603.909716562 c 0
 306.127378135 606.843520073 306.74657003 609.762154612 307.87891273 612.518809729 c 0
 328.061266694 661.652158941 383.733471964 787.013185135 502.73828654 787.013185135 c 0
 503.553840039 787.013185135 504.372030012 787.007177273 505.192856336 786.995097764 c 2
 511 786.995097764 l 2
 524.812968658 786.995097764 535.995097764 775.812835975 535.995097764 762 c 0
 535.995097764 748.187031342 524.812835975 737.004902236 511 737.004902236 c 2
 505 737.004902236 l 2
EndSplineSet
EndChar

StartChar: seven
Encoding: 55 55 37
Width: 1000
Flags: H
LayerCount: 2
Fore
SplineSet
700.995097764 432 m 0
 700.995097764 418.187031039 689.812835965 407.004902671 676.000000018 407.004902671 c 0
 671.99186482 407.004902671 667.983729625 407.961664365 664.349356418 409.875187778 c 1
 632.217020926 398.978527409 600.882636057 404.423973072 574.879032284 401.293162738 c 0
 566.377836404 399.721908038 558.092221983 399.069944556 550.050797156 399.069944556 c 0
 513.33380295 399.069944556 480.41875094 412.845824899 451.162099182 416.165338549 c 0
 438.577658007 417.593192447 429.004902236 428.240720915 429.004902236 441 c 0
 429.004902236 454.812968658 440.187164025 465.995097764 454 465.995097764 c 0
 473.474643855 465.995097764 520.29514208 449.170905876 550.937314635 449.170905876 c 0
 567.40507675 449.170905876 558.024378618 452.123430071 602.753072986 452.500847636 c 0
 624.79108524 452.686802827 642.009245304 453.46777342 655.821034641 460.366749854 c 0
 659.329012767 462.118981794 663.164506383 462.995097764 667 462.995097764 c 0
 674.583870341 462.995097764 676.7019991 461.583011925 689.853986629 452.815020238 c 0
 692.544883823 451.021088776 700.995097764 444.400694203 700.995097764 432 c 0
220 635.005514258 m 2
 206.183632681 635.005514258 195.004902236 646.189734307 195.004902236 660 c 0
 195.004902236 673.812968658 206.187164025 684.995097764 220 684.995097764 c 2
 249.824417334 684.995097764 l 2
 383.186572354 685.924820746 508.011830836 740.232771935 645.884169423 740.232771935 c 0
 667.35802898 740.232771935 689.199270823 738.923495271 711.469070819 735.892190952 c 0
 729.082380881 734.782305115 745.399961772 730.949215497 757.686952388 718.662224881 c 0
 763.444061759 712.905115509 770.835925021 702.225006741 770.835925021 685.338238555 c 0
 770.835925021 621.024052038 636.295190711 508.414856224 608.405687036 442.663792393 c 0
 603.071446562 430.088022312 606.33179826 428.534745645 602.239299769 420.56946771 c 0
 594.561520819 405.626116262 586.254995863 391.425080506 578.202219412 377.634332527 c 0
 558.929564406 344.629029365 541.846649613 314.41703396 535.059459259 283.304794751 c 1
 538.426237619 278.361501425 539.417444529 273.296586699 539.417444529 269.013786046 c 0
 539.417444529 266.695876781 539.127108145 264.607058102 538.765895784 262.890597298 c 0
 535.802405598 227.440768161 515.02251628 202.169032127 499.998768605 182.646592659 c 0
 491.669470999 171.823180828 488.616467989 167.497323752 488.496492668 167.348192053 c 0
 480.758622517 157.729866295 474.692711276 152.154385848 467.663868005 145.852124535 c 0
 462.88634664 141.568462642 459.758893746 138.701387957 455.768646628 134.524600867 c 1
 422.564608914 83.2092698548 422.564608914 83.2092698548 420.67766953 81.3223304703 c 0
 415.529160116 76.1738210566 410.360241296 71.0049022365 400 71.0049022365 c 0
 386.187031342 71.0049022365 375.004902236 82.187164025 375.004902236 96 c 0
 375.004902236 99.2351943701 375.004902236 106.360241296 383.435391086 114.790730145 c 1
 416.189012989 165.409963996 416.189012989 165.409963996 417.692033833 167.024460368 c 0
 429.499103803 179.707233005 440.236898521 187.249428061 449.079221362 198.127125384 c 0
 452.826130812 203.349298914 456.646964135 208.305270837 460.33879724 213.102581726 c 0
 472.727613687 229.201089529 482.382815764 242.812612005 486.680395251 256.171306264 c 1
 484.924305643 258.812518138 482.169780745 264.047859106 482.169780745 270.910863235 c 0
 482.169780745 274.348783473 482.782904262 276.993722007 483.64006788 279.563921971 c 0
 490.197429137 327.28359567 513.814522804 366.542939306 535.008380831 402.83839051 c 0
 542.239997903 415.22286763 549.300466047 427.33381432 555.632971396 439.343866696 c 1
 563.90504127 497.136234599 656.92042469 583.210372282 702.173927879 648.845135403 c 0
 713.15896291 664.777607397 719.34950396 678.197901487 720.556077598 683.933459587 c 0
 717.045749223 685.133269212 683.72050073 690.194179685 646.459831655 690.194179685 c 0
 514.810479557 690.194179685 390.62179742 635.984623164 250.175582666 635.005514258 c 2
 220 635.005514258 l 2
EndSplineSet
EndChar

StartChar: eight
Encoding: 56 56 38
Width: 1000
Flags: H
LayerCount: 2
Fore
SplineSet
188 377.004902236 m 0
 174.187031342 377.004902236 163.004902236 388.187164025 163.004902236 402 c 0
 163.004902236 412.464662396 169.44587212 421.508104209 178.69414176 425.207412065 c 0
 213.163356007 438.995097764 213.163356007 438.995097764 218 438.995097764 c 0
 231.812968658 438.995097764 242.995097764 427.812835975 242.995097764 414 c 0
 242.995097764 403.535337604 236.55412788 394.491895791 227.30585824 390.792587935 c 0
 192.836643993 377.004902236 192.836643993 377.004902236 188 377.004902236 c 0
151.004902236 474 m 0
 151.004902236 487.812968658 162.187164025 498.995097764 176 498.995097764 c 0
 180.05110103 498.995097764 184.10220206 498.017713783 187.767391985 496.062945823 c 0
 236.035251809 470.32008725 236.035251809 470.32008725 238.67766953 467.67766953 c 0
 243.555955019 462.79938404 245.995097764 456.39969202 245.995097764 450 c 0
 245.995097764 436.187031342 234.812835975 425.004902236 221 425.004902236 c 0
 216.94889897 425.004902236 212.89779794 425.982286217 209.232608015 427.937054177 c 0
 160.964748191 453.67991275 160.964748191 453.67991275 158.32233047 456.32233047 c 0
 153.444044981 461.20061596 151.004902236 467.60030798 151.004902236 474 c 0
242 531.995097764 m 0
 255.812968658 531.995097764 266.995097764 520.812835975 266.995097764 507 c 0
 266.995097764 506.213750562 266.995097764 506.213750562 263.9460615 457.429170345 c 0
 263.12394362 444.275284263 252.224233293 434.004902236 239 434.004902236 c 0
 225.187031342 434.004902236 214.004902236 445.187164025 214.004902236 459 c 0
 214.004902236 459.786249438 214.004902236 459.786249438 217.0539385 508.570829655 c 0
 217.87605638 521.724715737 228.775766707 531.995097764 242 531.995097764 c 0
779 453.995097764 m 0
 792.812968658 453.995097764 803.995097764 442.812835975 803.995097764 429 c 0
 803.995097764 416.342608942 794.573095069 405.75559828 782.121888143 404.199197414 c 0
 756.567526719 401.004902236 756.567526719 401.004902236 755 401.004902236 c 0
 741.187031342 401.004902236 730.004902236 412.187164025 730.004902236 426 c 0
 730.004902236 438.657391058 739.426904931 449.24440172 751.878111857 450.800802586 c 0
 777.432473281 453.995097764 777.432473281 453.995097764 779 453.995097764 c 0
782 510.995097764 m 0
 795.812968658 510.995097764 806.995097764 499.812835975 806.995097764 486 c 0
 806.995097764 482.660278626 806.147686922 472.382736962 796.320450265 465.503671302 c 2
 766.320450265 444.503671302 l 2
 762.035908298 441.504491925 757.017954149 440.004902236 752 440.004902236 c 0
 738.187031342 440.004902236 727.004902236 451.187164025 727.004902236 465 c 0
 727.004902236 468.339721374 727.852313078 478.617263038 737.679549735 485.496328698 c 2
 767.679549735 506.496328698 l 2
 771.964091702 509.495508075 776.982045851 510.995097764 782 510.995097764 c 0
691.004902236 507 m 0
 691.004902236 520.812968658 702.187164025 531.995097764 716 531.995097764 c 0
 719.379702316 531.995097764 729.484872165 531.138430934 736.359485207 521.513972676 c 2
 751.359485207 500.513972676 l 2
 754.881713416 495.582853184 754.881713416 495.582853184 758.742294431 468.558786073 c 0
 758.910829986 467.37903719 758.995097764 466.189518595 758.995097764 465 c 0
 758.995097764 451.187031342 747.812835975 440.004902236 734 440.004902236 c 0
 721.499839471 440.004902236 711.006907985 449.196797014 709.257705569 461.441213927 c 2
 707.118286584 476.417146816 l 1
 695.640514793 492.486027324 l 2
 692.550106422 496.812599043 691.004902236 501.906299522 691.004902236 507 c 0
211.004902236 444 m 0
 211.004902236 457.812968658 222.187164025 468.995097764 236 468.995097764 c 0
 239.838733907 468.995097764 243.677467815 468.117500853 247.187855458 466.362307031 c 2
 361.187855458 409.362307031 l 2
 363.396001455 408.258234033 374.995097764 401.756390298 374.995097764 387 c 0
 374.995097764 373.187031342 363.812835975 362.004902236 350 362.004902236 c 0
 346.161266093 362.004902236 342.322532185 362.882499147 338.812144542 364.637692969 c 2
 224.812144542 421.637692969 l 2
 222.603998545 422.741765967 211.004902236 429.243609702 211.004902236 444 c 0
743 477.995097764 m 0
 756.812968658 477.995097764 767.995097764 466.812835975 767.995097764 453 c 0
 767.995097764 445.766450332 764.89331005 438.837348601 759.252898945 434.00271051 c 0
 737.412160269 415.282077359 737.412160269 415.282077359 736.513972676 414.640514793 c 2
 652.513972676 354.640514793 l 2
 648.187400957 351.550106422 643.093700478 350.004902236 638 350.004902236 c 0
 624.187031342 350.004902236 613.004902236 361.187164025 613.004902236 375 c 0
 613.004902236 378.379702316 613.861569066 388.484872165 623.486027324 395.359485207 c 2
 706.587839731 454.717922641 l 1
 726.747101055 471.99728949 l 2
 731.412063046 475.995828339 737.206031523 477.995097764 743 477.995097764 c 0
421.004902236 537 m 0
 421.004902236 550.812968658 432.187164025 561.995097764 446 561.995097764 c 0
 463.699921188 561.995097764 493.10776805 535.899729132 513.168464916 534.9679781 c 0
 517.247582073 534.778517003 519.315568056 533.687588804 520.005698277 534.200210835 c 0
 520.114858428 547.932287287 531.263083901 558.995097764 545 558.995097764 c 0
 553.086271981 558.995097764 575.995097764 551.515530972 575.995097764 531 c 0
 575.995097764 521.878029212 573.415408986 518.877808909 564.886097453 508.95807989 c 0
 555.930299179 498.542339804 543.563354651 484.159380752 519.583198496 484.159380752 c 0
 515.99793763 484.159380752 512.369884721 484.494107228 508.774982789 485.152456527 c 0
 477.748886101 487.346092113 457.738842978 505.672334451 436.979542297 513.680464708 c 0
 427.576191608 517.307911427 421.004902236 526.430064947 421.004902236 537 c 0
433.122863435 577.868508975 m 0
 413.85097627 577.868508975 402.735342975 591.303542719 402.735342975 606.739577432 c 0
 402.735342975 623.437834061 407.665051188 639.064233612 424.835109679 642.846261876 c 0
 428.603759934 644.945485801 432.801879967 645.995097764 437 645.995097764 c 0
 438.207961059 645.995097764 470.995097764 643.51669257 470.995097764 618 c 2
 470.995097764 614.429341501 l 2
 471.317974069 612.750297367 471.685738846 610.389182573 471.685738846 607.000279111 c 0
 471.685738846 586.867368307 456.453291519 577.462556987 443.335150135 577.462556987 c 0
 440.969126707 577.462556987 438.798162054 577.72194649 436.949638224 578.062140299 c 0
 436.068054552 577.998571195 434.838025601 577.868508975 433.122863435 577.868508975 c 0
576.475863483 615.068173508 m 0
 576.475863483 593.338429712 556.917712029 574.172995623 534.119050337 583.440749823 c 0
 526.171360624 586.671519932 504.904178957 595.316720904 504.904178957 619.214517283 c 0
 504.904178957 626.019719254 506.949019066 630.707798847 509.002107483 634.010965589 c 0
 512.054000578 644.505063031 521.719173736 651.995097794 533.000000012 651.995097794 c 0
 537.097854879 651.995097794 541.195709745 650.995023613 544.894137286 648.994875254 c 0
 544.929424729 648.995023573 544.964712427 648.995097732 545.000000125 648.995097732 c 0
 555.360241327 648.995097732 559.529160121 644.826178939 568.67766953 635.67766953 c 0
 571.719354795 632.635984264 576.475863483 626.114414573 576.475863483 615.068173508 c 0
600.004902236 477 m 0
 600.004902236 490.812968658 611.187164025 501.995097764 625 501.995097764 c 0
 627.491849024 501.995097764 627.491849024 501.995097764 644.931311034 498.507205362 c 0
 646.737678937 498.145931781 652.328106633 497.027846242 657.953444202 491.402508672 c 0
 701.441374014 447.91457886 727.439524856 383.272575367 739.507250195 322.931086862 c 0
 739.832481907 321.304851172 739.995097764 319.652425586 739.995097764 318 c 0
 739.995097764 280.096593692 727.75320789 154.429799831 636.956324029 63.6329159691 c 0
 611.719259666 38.3958516062 581.791569573 17.6427864169 547.338099004 3.80551038264 c 0
 544.349206315 2.60510495187 541.174603157 2.00490223649 538 2.00490223649 c 0
 535.467899832 2.00490223649 398.265325277 10.5548563869 305.808424297 103.011757367 c 0
 265.863755501 142.956426163 238.313338388 195.488734171 234.060589802 259.326143502 c 0
 234.05448161 259.417832709 233.925117266 262.000489071 233.925117266 268.514388939 c 0
 233.925117266 302.638443733 236.65012794 432.878114857 357.696263433 526.771465997 c 0
 362.185757318 530.253887175 367.592878659 531.995097764 373 531.995097764 c 0
 386.812968658 531.995097764 397.995097764 520.812835975 397.995097764 507 c 0
 397.995097764 503.474855654 397.106466512 494.056656275 388.303736567 487.228534003 c 0
 360.567335408 465.713897102 283.913847071 399.66546069 283.913847071 268.647803917 c 0
 283.913847071 246.520759478 289.523826262 190.007033521 341.163763356 138.367096427 c 0
 388.997664879 90.5331942185 462.38117553 61.2171749943 534.317283136 52.5641043922 c 1
 634.797208555 96.4327548071 686.449984335 214.386070332 689.92880315 315.831700768 c 1
 679.463828939 366.084216189 657.30836977 418.209782416 627.385990701 451.029334291 c 1
 616.233134046 453.259905623 612.672660636 453.972000304 607.32233047 459.32233047 c 0
 602.444044981 464.20061596 600.004902236 470.60030798 600.004902236 477 c 0
330.829360645 589.585511511 m 0
 330.829360645 685.01762387 417.261177757 749.090635254 514.387047362 749.090635254 c 0
 521.673861393 749.090635254 528.990016494 748.728011163 536.298028664 747.995097764 c 2
 553 747.995097764 l 2
 566.426396132 747.995097764 577.427874823 737.415083433 577.974159657 724.026765592 c 1
 589.35590909 717.141043208 599.75121644 708.691662374 609.034640451 699.408238362 c 0
 637.733265096 670.709613025 657.681200512 632.723323367 664.483446082 596.077347208 c 0
 666.68859948 586.338237987 667.722874754 576.734846318 667.722874754 567.350396631 c 0
 667.722874754 493.012491741 602.761587355 429.67000274 528.543283104 422.133667667 c 0
 527.697889707 422.047824046 526.848944853 422.004902236 526 422.004902236 c 0
 475.142518561 422.004902236 330.829360645 459.32817406 330.829360645 589.585511511 c 0
525.239544481 472.064769279 m 1
 571.588261159 477.674393539 617.733453205 518.046658649 617.733453205 567.240133121 c 0
 617.733453205 615.668629539 571.964911525 689.156378933 519.382328164 692.004902236 c 1
 506.360241296 692.004902236 l 1
 453.67766953 639.32233047 l 2
 448.79938404 634.444044981 442.39969202 632.004902236 436 632.004902236 c 0
 422.187031641 632.004902236 411.004901744 643.187164061 411.004901744 657.00000011 c 0
 411.004901744 658.182020854 411.088110547 659.364041598 411.254528151 660.536476211 c 1
 395.054861803 644.95629816 380.622476935 622.194286797 380.622476935 590.553642182 c 0
 380.622476935 579.770202365 380.622476935 548.585210541 408.901299003 520.306388473 c 0
 436.832191618 492.375492454 484.327480308 474.359473945 525.239544481 472.064769279 c 1
EndSplineSet
EndChar

StartChar: nine
Encoding: 57 57 39
Width: 1000
Flags: H
LayerCount: 2
Fore
SplineSet
523.995097764 462 m 0
 523.995097764 448.187031342 512.812835975 437.004902236 499 437.004902236 c 0
 495.903367708 437.004902236 495.903367708 437.004902236 471.354777901 443.142049688 c 1
 338.881792786 449.029737915 l 2
 333.5264055 449.267755128 328.233186487 451.216583034 323.895837037 454.876221633 c 0
 227.080491571 536.56416937 227.080491571 536.56416937 226.32233047 537.32233047 c 0
 221.444044981 542.20061596 219.004902236 548.60030798 219.004902236 555 c 0
 219.004902236 561.326020802 221.388210943 567.652041604 226.154828356 572.508595194 c 2
 385.321536511 734.678448786 l 2
 390.199822 739.556734275 396.60030798 741.995097764 403 741.995097764 c 0
 416.812968658 741.995097764 427.995097764 730.812835975 427.995097764 717 c 0
 427.995097764 710.673979198 425.611789057 704.347958396 420.845171644 699.491404806 c 2
 280.723652853 556.726083773 l 1
 349.622985391 498.592271943 l 1
 478.645222099 492.857950312 478.645222099 492.857950312 481.093571622 492.245862931 c 0
 511.781444297 484.573894762 511.781444297 484.573894762 516.67766953 479.67766953 c 0
 521.555955019 474.79938404 523.995097764 468.39969202 523.995097764 462 c 0
529 14.0049022365 m 0
 515.187031342 14.0049022365 504.004902236 25.187164025 504.004902236 39 c 0
 504.004902236 40.7911395018 504.195965808 42.5822790037 504.578092952 44.3400638631 c 2
 591.303602448 443.277407549 l 1
 591.174083316 443.29733357 l 2
 590.86918436 443.344241101 590.86918436 443.344241101 392.369304346 478.896458417 c 0
 389.852537702 478.794802529 387.322393361 478.743978493 384.781980554 478.743978493 c 0
 312.050046194 478.743978493 237.907349686 520.033185754 219.856897568 587.509262877 c 0
 219.28890068 589.632544972 219.004902236 591.816272486 219.004902236 594 c 0
 219.004902236 594.642504244 219.146224312 620.663102781 241.850935651 643.367814119 c 0
 265.257437538 666.774316006 300.980584668 677.242110754 333.574806396 686.788815142 c 0
 343.66962315 689.745542632 365.360393324 696.566038162 365.691314955 696.623571893 c 0
 414.111274215 705.041821431 463.022631286 736.004982078 524.239867778 736.004982078 c 0
 537.009057342 736.004982078 600.661516942 731.574521992 630.177147949 645.354843471 c 0
 630.444412402 644.574123072 643.995097764 604.730511017 643.995097764 564 c 0
 643.995097764 561.138646096 643.384291959 527.343237692 643.384291959 499.110733823 c 0
 643.384291959 494.452807446 643.399281588 489.801313269 643.432765045 485.156243616 c 0
 645.114975587 484.472590881 658.995097764 478.336718397 658.995097764 462 c 0
 658.995097764 461.130366846 658.780119392 443.4366945 641.343980647 438.101474688 c 1
 553.421907048 33.6599361369 l 2
 550.951187864 22.2946278877 540.867189059 14.0049022365 529 14.0049022365 c 0
593.391312929 499.170287033 m 0
 593.391312929 525.482614399 593.999610829 563.132186854 593.999610829 563.778295575 c 0
 593.264229749 586.607311517 586.477685499 679.801971333 524.731336088 686.013604545 c 0
 524.599829248 686.014025262 524.468327939 686.014235194 524.336831833 686.014235194 c 0
 475.596356917 686.014235194 428.977763294 657.423979489 376.455574394 647.760588344 c 0
 353.676131352 639.780994053 323.852005819 633.07834923 301.521297172 623.227350196 c 0
 273.648135895 610.931346107 270.56987227 599.237502305 269.628015472 595.639881487 c 0
 284.846752355 551.602067566 341.284984351 528.752472199 385.400000135 528.752472199 c 0
 388.730960306 528.752472199 393.913965783 528.995097764 394 528.995097764 c 0
 396.236173645 528.995097764 396.236173645 528.995097764 593.398345392 493.682469988 c 1
 593.393586994 495.512688461 593.391312929 497.341960954 593.391312929 499.170287033 c 0
EndSplineSet
EndChar

StartChar: a
Encoding: 97 97 40
Width: 1000
Flags: H
LayerCount: 2
Fore
SplineSet
474.774256233 505.30571405 m 0
 485.23310629 505.30571405 517.995097764 503.213611662 517.995097764 477 c 0
 517.995097764 463.187031342 506.812835975 452.004902236 493 452.004902236 c 0
 483.718085395 452.004902236 486.134412213 455.209949114 473.512046454 455.209949114 c 0
 468.30638011 455.209949114 464.278099393 454.818889257 459.019010692 454.818889257 c 0
 457.470914584 454.818889257 455.843508624 454.85341434 454.134560899 454.943979725 c 0
 350.32032303 446.775805642 252.907229422 372.274506224 252.907229422 264.3282194 c 0
 252.907229422 255.195500282 253.995097764 243.213559453 253.995097764 243 c 0
 253.995097764 236.457257146 251.403936357 233.189914695 251.403936357 226.150223608 c 0
 251.403936357 214.526057162 262.391624043 200.15146311 318.743920723 191.198271348 c 1
 345.073494767 210.347043607 380.612116972 241.592843382 399.254557104 281.181314716 c 1
 400.230626844 308.671742035 402.613463944 335.709078896 405.115124652 362.353517061 c 0
 406.317415147 375.158752658 417.063216707 384.995097764 430 384.995097764 c 0
 435.590418497 384.995097764 442.477911296 383.168029109 449.08970223 376.556238175 c 0
 459.553488402 366.092452003 461.747229119 352.801977763 461.747229119 333.626416262 c 0
 461.747229119 310.881815444 456.953815192 289.557505127 448.945666189 269.829961744 c 0
 448.840147065 265.121002267 448.783985041 260.421590152 448.783985041 255.731206006 c 0
 448.783985041 235.461301849 448.783985041 228.550955385 459.935906297 217.399034129 c 0
 462.374506912 214.960433514 487.206914664 191.468245693 542.768629838 187.139754447 c 1
 577.499494587 193.551585112 606.135949914 221.426018118 629.781826327 249.409305365 c 1
 639.145756338 277.501095397 639.145756338 277.501095397 643.32233047 281.67766953 c 0
 648.20061596 286.555955019 654.60030798 288.995097764 661 288.995097764 c 0
 674.812968658 288.995097764 685.995097764 277.812835975 685.995097764 264 c 0
 685.995097764 259.921466907 685.995097764 259.921466907 675.710216297 229.066822507 c 0
 674.755616988 226.203024582 673.269104895 223.478254179 671.250680016 221.047446499 c 0
 639.46718655 182.770292454 600.687197747 145.367700224 547.797415976 137.292965594 c 0
 546.539532897 137.100923356 545.269766448 137.004902236 544 137.004902236 c 0
 534.610203408 137.004902236 438.966924981 143.878665474 407.918556091 204.813196878 c 1
 393.158614281 187.835163043 370.975637314 166.276120046 339.15262116 144.387214778 c 0
 334.905160294 141.465673084 329.952580147 140.004902236 325 140.004902236 c 0
 323.128419 140.004902236 292.528639541 143.340662314 266.28451771 152.120496676 c 0
 236.490843456 162.087815325 201.483891305 182.974767041 201.483891305 226.096977419 c 0
 201.483891305 232.298774058 202.241483276 238.649322899 203.714028499 245.038555425 c 1
 203.188911155 251.452572831 202.93196097 257.793888654 202.93196097 264.056590774 c 0
 202.93196097 397.010860917 318.270753045 495.312773534 452.196318059 504.930424276 c 0
 452.796702609 504.973539934 453.398351305 504.995097764 454 504.995097764 c 0
 455.853988286 504.995097764 455.926335836 504.833844705 458.740923569 504.833844705 c 0
 463.912781571 504.833844705 469.231189097 505.30571405 474.774256233 505.30571405 c 0
EndSplineSet
EndChar

StartChar: b
Encoding: 98 98 41
Width: 1000
Flags: H
LayerCount: 2
Fore
SplineSet
180.004902236 252 m 0
 180.004902236 265.812968658 191.187164025 276.995097764 205 276.995097764 c 0
 207.472445817 276.995097764 220.772368932 276.367731656 227.362307031 263.187855458 c 2
 229.63748984 258.63748984 l 1
 330.187855458 208.362307031 l 2
 332.396001455 207.258234033 343.995097764 200.756390298 343.995097764 186 c 0
 343.995097764 172.187031342 332.812835975 161.004902236 319 161.004902236 c 0
 315.161266093 161.004902236 311.322532185 161.882499147 307.812144542 163.637692969 c 2
 199.812144542 217.637692969 l 2
 192.36251016 221.36251016 191.264560202 223.558410076 182.637692969 240.812144542 c 0
 180.882499147 244.322532185 180.004902236 248.161266093 180.004902236 252 c 0
418 186.995097764 m 0
 422.975625318 186.995097764 430.570917929 184.445511604 447.582344791 184.445511604 c 0
 512.261782103 184.445511604 586.79989697 225.107994779 594.136499812 296.571021273 c 0
 594.453586051 299.659636368 594.556415215 300.661255703 594.556415215 303.376100255 c 0
 594.556415215 341.772951137 555.229534995 377.638512509 519.636919904 396.695452156 c 1
 481.688942243 389.092868937 436.666118938 387.729640517 402.900967675 377.0041942 c 0
 360.481152214 363.529607638 366.795155912 347.004902236 346 347.004902236 c 0
 332.187031342 347.004902236 321.004902236 358.187164025 321.004902236 372 c 0
 321.004902236 382.40094329 326.814312274 388.210353328 329.901454919 391.297495972 c 0
 365.270251209 426.666292262 417.338604467 433.160276578 465.644880467 439.185053225 c 0
 484.444443208 441.529741657 502.204882661 443.804098986 517.267013473 447.333173401 c 0
 519.15041408 447.774456309 521.07520704 447.995097764 523 447.995097764 c 0
 526.66541936 447.995097764 530.33083872 447.19495698 533.710407512 445.594675414 c 0
 555.263697485 435.388837104 579.01631858 419.841016092 599.492002814 399.365331858 c 0
 623.516435217 375.340899455 644.577993376 342.630065925 644.577993376 303.809161799 c 0
 644.577993376 287.906221824 640.768292696 238.158714671 596.727127324 194.117549952 c 0
 558.14428146 155.534704088 502.713548849 134.353831616 448.544818397 134.353831616 c 0
 438.1129447 134.353831616 427.727875484 135.139376802 417.518957871 136.737457385 c 1
 412.564476091 136.180140757 407.679434188 135.925116453 402.874353471 135.925116453 c 0
 377.132343169 135.925116453 353.68522763 143.244341731 334.150696297 150.615163339 c 0
 331.32387894 151.681785677 328.652108554 153.278298732 326.289437697 155.404702503 c 0
 295.794645108 182.850015833 295.794645108 182.850015833 295.32233047 183.32233047 c 0
 290.444044981 188.20061596 288.004902236 194.60030798 288.004902236 201 c 0
 288.004902236 214.812968658 299.187164025 225.995097764 313 225.995097764 c 0
 318.984984757 225.995097764 324.969969513 223.861831008 329.710562303 219.595297497 c 2
 356.148522555 195.80113327 l 1
 372.295635052 190.002647144 388.382250473 185.969424341 403.461634798 185.969424341 c 0
 411.58343649 185.969424341 414.212599733 186.995097764 418 186.995097764 c 0
373.995097764 81 m 0
 373.995097764 67.1870313421 362.812835975 56.0049022365 349 56.0049022365 c 0
 336.987571151 56.0049022365 326.806984346 64.4977404304 324.492794638 76.0686889661 c 0
 321.195487932 92.5552224998 321.195487932 92.5552224998 321.079060626 94.0687774779 c 2
 315.046314756 172.494473779 l 1
 285.004902236 674.246732409 285.004902236 674.246732409 285.004902236 675 c 0
 285.004902236 688.812968658 296.187164025 699.995097764 310 699.995097764 c 0
 323.246876888 699.995097764 334.160606607 689.689360824 334.950074413 676.505248465 c 2
 364.937312643 175.718370027 l 1
 370.804512068 99.4447775002 l 1
 373.995097764 83.4918490241 373.995097764 83.4918490241 373.995097764 81 c 0
EndSplineSet
EndChar

StartChar: c
Encoding: 99 99 42
Width: 1000
Flags: H
LayerCount: 2
Fore
SplineSet
576.528307881 2.91598897433 m 0
 414.921471981 2.91598897433 262.852459992 75.5473429657 262.852459992 240.441107581 c 0
 262.852459992 243.560075747 262.908157768 246.709802921 263.020638334 249.890175408 c 0
 265.703242537 338.362260151 283.281427856 497.362122084 413.244652102 574.506653305 c 0
 417.162575012 576.832282944 421.581287506 577.995097764 426 577.995097764 c 0
 439.812968658 577.995097764 450.995097764 566.812835975 450.995097764 553 c 0
 450.995097764 550.046140352 450.243484634 538.312559808 438.755347898 531.493346695 c 0
 370.029676191 490.698654523 317.790505581 406.78098884 312.979361666 248.109824592 c 0
 312.882840189 245.380693109 312.835089668 242.690660964 312.835089668 240.038977052 c 0
 312.835089668 189.163481333 330.412379552 152.404229642 358.360095734 124.456513461 c 0
 406.830201565 75.9864076293 490.471090411 52.9524635023 576.987592972 52.9524635023 c 0
 605.375963656 52.9524635023 631.44903516 55.9950977635 632 55.9950977635 c 0
 635.417246072 55.9950977635 643.376678188 54.4854481713 658.535977032 54.4854481713 c 0
 716.36339569 54.4854481713 773.999035353 77.8815064411 829.021736684 108.955942888 c 1
 837.442869539 125.798208598 837.442869539 125.798208598 840.32233047 128.67766953 c 0
 845.20061596 133.555955019 851.60030798 135.995097764 858 135.995097764 c 0
 871.812968658 135.995097764 882.995097764 124.812835975 882.995097764 111 c 0
 882.995097764 105.077726007 882.995097764 105.077726007 870.362307031 79.8121445418 c 0
 869.658834187 78.4051988531 866.888018632 73.0328291295 860.498783779 69.3431259786 c 0
 801.020635014 34.9952394461 732.857143236 4.45749567961 659.095347866 4.45749567961 c 0
 650.144479512 4.45749567961 641.111173844 4.90717646244 632.000947105 5.8542976689 c 1
 614.033727355 3.9355185077 595.425155285 2.91598897433 576.528307881 2.91598897433 c 0
427 521.004902236 m 0
 413.187031342 521.004902236 402.004902236 532.187164025 402.004902236 546 c 0
 402.004902236 556.360241296 406.173821057 560.529160116 415.32233047 569.67766953 c 0
 417.041087045 571.396426105 418.948703451 572.812399646 420.978639081 573.925590152 c 0
 515.940466343 626.001430909 515.940466343 626.001430909 518.066822507 626.710216297 c 0
 530.921466907 630.995097764 530.935769496 630.995097764 535 630.995097764 c 0
 548.812968658 630.995097764 559.995097764 619.812835975 559.995097764 606 c 0
 559.995097764 595.041866863 552.929795369 585.621989662 542.933177493 582.289783703 c 2
 536.059533657 579.998569091 l 1
 448.139934321 531.784595262 l 1
 442.375071852 526.019732793 437.360241296 521.004902236 427 521.004902236 c 0
701.916439129 648.525065366 m 0
 705.215704993 648.525065366 711.899054901 648.995097764 712 648.995097764 c 2
 718 648.995097764 l 2
 731.812968658 648.995097764 742.995097764 637.812835975 742.995097764 624 c 0
 742.995097764 610.187031342 731.812835975 599.004902236 718 599.004902236 c 2
 713.157149251 599.004902236 l 2
 709.141439718 598.654638784 705.251982893 598.508577188 701.492309627 598.508577188 c 0
 681.576473494 598.508577188 664.392499164 602.699006712 648.493904719 602.699006712 c 0
 629.333951656 602.699006712 612.721674697 593.001095712 588.303695508 592.967271533 c 1
 558.491849024 587.004902236 558.491849024 587.004902236 556 587.004902236 c 0
 542.187031342 587.004902236 531.004902236 598.187164025 531.004902236 612 c 0
 531.004902236 624.012428849 539.49774043 634.193015654 551.068688966 636.507205362 c 0
 583.508150976 642.995097764 583.508150976 642.995097764 586 642.995097764 c 0
 586.767923935 642.995097764 586.974617072 642.96460278 587.780294492 642.96460278 c 0
 603.416209302 642.96460278 621.824129075 652.739594626 649.042446151 652.739594626 c 0
 668.087489581 652.739594626 685.244854338 648.525065366 701.916439129 648.525065366 c 0
EndSplineSet
EndChar

StartChar: d
Encoding: 100 100 43
Width: 1000
Flags: H
LayerCount: 2
Fore
SplineSet
526 299.004902236 m 2
 523.544318651 299.004902236 512.462059154 300.177986421 494.902513749 300.177986421 c 0
 445.176316751 300.177986421 347.891437678 290.086187644 302.40276118 216.149263852 c 0
 302.363458918 215.305111403 302.344010246 214.485426574 302.344010246 213.688599697 c 0
 302.344010246 190.173496851 321.087262142 177.778266775 371.547709086 158.413779989 c 0
 383.102664466 153.979499392 394.887156292 149.530488144 406.091344025 143.948363276 c 1
 626.421616381 104.603671784 l 2
 638.247102579 102.49197782 646.995097764 92.1921777525 646.995097764 80 c 0
 646.995097764 66.1870313421 635.812835975 55.0049022365 622 55.0049022365 c 0
 619.770369104 55.0049022365 619.770369104 55.0049022365 393.578383619 95.396328216 c 0
 391.077894918 95.8428440555 388.632517307 96.6713792397 386.336552043 97.8819337686 c 0
 356.158098352 113.793613432 309.028378072 122.172381906 277.673982619 153.526777358 c 0
 262.520786161 168.679973817 252.460635351 189.761409171 252.460635351 215.088299496 c 0
 252.460635351 220.280458244 252.460635351 229.666091805 256.256193705 236.34701489 c 0
 299.172627432 311.888309758 386.113985291 350.229017703 493.484502333 350.229017703 c 0
 504.866632633 350.229017703 516.029928457 348.995097764 526.933062092 348.995097764 c 0
 586 348.995097764 586 348.995097764 586 348.995097764 c 2
 599.812968658 348.995097764 610.995097764 337.812835975 610.995097764 324 c 0
 610.995097764 310.187031342 599.812835975 299.004902236 586 299.004902236 c 2
 526 299.004902236 l 2
578 35.0049022365 m 0
 564.180793334 35.0049022365 553.002983179 46.195997343 553.002983179 60.0000236921 c 2
 557.001015889 383.840673147 l 1
 549.004902236 703.685219232 549.004902236 703.685219232 549.004902236 704 c 0
 549.004902236 717.812968658 560.187164025 728.995097764 574 728.995097764 c 0
 587.574728899 728.995097764 598.648334443 718.18531357 598.987230926 704.629454275 c 0
 606.997016821 384.23801848 606.997016821 384.23801848 606.997016821 383.999976308 c 2
 602.993178573 59.6890782768 l 2
 602.824199731 46.0017920633 591.694711693 35.0049022365 578 35.0049022365 c 0
EndSplineSet
EndChar

StartChar: e
Encoding: 101 101 44
Width: 1000
Flags: H
LayerCount: 2
Fore
SplineSet
306.004902236 354 m 0
 306.004902236 367.812968658 317.187164025 378.995097764 331 378.995097764 c 2
 481 378.995097764 l 2
 494.812968658 378.995097764 505.995097764 367.812835975 505.995097764 354 c 0
 505.995097764 340.187031342 494.812835975 329.004902236 481 329.004902236 c 2
 331 329.004902236 l 2
 317.187031342 329.004902236 306.004902236 340.187164025 306.004902236 354 c 0
643 102.995097764 m 0
 647.443027921 102.995097764 648.325589172 102.033307828 652.367915976 102.033307828 c 0
 658.342142051 102.033307828 666.433063481 104.194425043 678.542124097 108.396482473 c 0
 682.337279769 109.713468373 686.422309174 111.141914197 690.832614879 112.499158482 c 1
 707.747101055 126.99728949 l 2
 712.412063046 130.995828339 718.206031523 132.995097764 724 132.995097764 c 0
 737.812968658 132.995097764 748.995097764 121.812835975 748.995097764 108 c 0
 748.995097764 100.766450332 745.89331005 93.8373486005 740.252898945 89.0027105103 c 2
 719.252898945 71.0027105103 l 2
 716.36597957 68.528208189 713.046676281 66.8193807766 709.562570573 65.8762282731 c 0
 705.199745847 64.6952052484 700.341444051 63.0309266452 694.986952716 61.1728237903 c 0
 684.201898623 57.430219589 670.046811905 51.9186870579 653.297149832 51.9186870579 c 0
 649.610373443 51.9186870579 645.797893433 52.1857132553 641.867979321 52.7974048614 c 0
 635.369743246 52.2541826854 628.947424363 51.9892234599 622.604612515 51.9892234599 c 0
 458.020002188 51.9892234599 344.250239084 229.665410133 339.039452146 382.539470841 c 0
 338.677351284 387.002144895 338.500328505 391.432937491 338.500328505 395.82666328 c 0
 338.500328505 495.240210142 429.60147624 579.297981065 529.732313914 579.993967296 c 0
 535.013902603 580.882386129 540.220523019 581.303679865 545.330274948 581.303679865 c 0
 605.488478683 581.303679865 656.222733272 522.651035839 656.222733272 462.170856483 c 0
 656.222733272 459.957981659 656.155695687 457.739147312 656.019508021 455.516693998 c 0
 656.04667009 454.396837915 656.060176963 453.279720318 656.060176963 452.165519647 c 0
 656.060176963 380.252963419 599.949909878 321.61512563 530.533795171 321.61512563 c 0
 524.900428789 321.61512563 519.179792369 322.003360618 513.395992793 322.806238819 c 0
 510.873888028 322.595494874 508.414685893 322.501146874 506.022291502 322.501146874 c 0
 495.889900279 322.501146874 495.889900279 322.501146874 466.38138563 329.004902236 c 1
 457 329.004902236 l 2
 443.187031342 329.004902236 432.004902236 340.187164025 432.004902236 354 c 0
 432.004902236 367.812968658 443.187164025 378.995097764 457 378.995097764 c 2
 469 378.995097764 l 2
 477.230219763 378.995097764 493.685123816 372.527421291 506.50818716 372.527421291 c 0
 510.218250888 372.527421291 511.038352755 372.995097764 514 372.995097764 c 0
 518.336104563 372.995097764 521.803849089 371.590151816 530.7113177 371.590151816 c 0
 573.043283118 371.590151816 606.069137878 408.7115462 606.069137878 452.212455055 c 0
 606.069137878 453.404687657 606.004902236 455.962119104 606.004902236 456 c 0
 606.004902236 457.831046024 606.212683098 458.7132198 606.212683098 461.675221135 c 0
 606.212683098 493.68804018 578.561447725 531.30018398 545.309708591 531.30018398 c 0
 538.615645384 531.30018398 536.680769069 530.004902236 532 530.004902236 c 0
 531.990263107 530.004902236 531.396597806 530.00804384 531.026315775 530.00804384 c 0
 459.038776365 530.00804384 388.496894253 468.778527477 388.496894253 395.70554009 c 0
 388.496894253 389.742679448 388.92520098 386.583166823 388.982155151 384.807330173 c 0
 392.902550891 262.569005906 484.43591507 101.971204994 622.435975316 101.971204994 c 0
 631.232275947 101.971204994 642.79410501 102.995097764 643 102.995097764 c 0
EndSplineSet
EndChar

StartChar: f
Encoding: 102 102 45
Width: 1000
Flags: H
LayerCount: 2
Fore
SplineSet
526.995097764 387 m 0
 526.995097764 373.187031342 515.812835975 362.004902236 502 362.004902236 c 0
 498.746033845 362.004902236 499.828961728 366.940291007 439.608267335 377.567472371 c 0
 338.628693886 395.387397097 338.628693886 395.387397097 338.628693886 395.387397097 c 2
 326.778738694 397.47856566 318.004902236 407.789614572 318.004902236 420 c 0
 318.004902236 433.812968658 329.187164025 444.995097764 343 444.995097764 c 0
 346.59836661 444.995097764 450.328614407 426.449137697 451.392544072 426.169156206 c 2
 508.392544072 411.169156206 l 2
 519.21460112 408.321246457 526.995097764 398.496627563 526.995097764 387 c 0
387.585139373 425.563505669 m 0
 387.585139373 454.427216141 384.895444569 450.368262365 384.895444569 472.96122797 c 0
 384.895444569 582.537510312 482.904488758 669.119285067 592.769980787 672.937567637 c 0
 598.163329672 673.690468362 603.397948479 674.008010015 608.469728812 674.008010015 c 0
 633.12872927 674.008010015 654.845349629 666.377275956 676.025687722 663.812639312 c 0
 688.522304999 662.29947732 697.995097764 651.691759796 697.995097764 639 c 0
 697.995097764 625.187031342 686.812835975 614.004902236 673 614.004902236 c 0
 660.468162888 614.004902236 627.531849019 623.943555487 607.713365413 623.943555487 c 0
 601.030492957 623.943555487 599.067475375 623.107976229 595.697871504 623.014572531 c 0
 514.239102404 620.756577064 434.869848816 557.248795272 434.869848816 473.163462622 c 0
 434.869848816 454.366248453 437.589084068 458.193452084 437.589084068 425.176032503 c 0
 437.589084068 377.971237309 430.291704503 332.477569697 430.291704503 287.455288869 c 0
 430.291704503 275.240759086 430.995097764 264.234658334 430.995097764 264 c 0
 430.995097764 261.849058406 430.322183053 247.119872767 430.322183053 234.496300892 c 0
 430.322183053 217.352693664 431.479416043 201.750414854 435.893450554 187.360545005 c 0
 436.605967553 185.037720648 448.995097764 102.461057453 448.995097764 99 c 0
 448.995097764 98.0328365378 448.995097764 98.0328365378 445.920939374 58.0687774779 c 0
 444.92121203 45.0723219974 434.089925631 35.0049022365 421 35.0049022365 c 0
 407.187031342 35.0049022365 396.004902236 46.187164025 396.004902236 60 c 0
 396.004902236 60.9671634622 396.004902236 60.9671634622 398.862024879 98.1097578097 c 1
 387.541451766 174.523626321 l 1
 381.603033078 194.782095266 380.236006874 214.479348811 380.236006874 233.040017896 c 0
 380.236006874 240.390331065 380.236006874 240.390331065 380.980381049 263.62764176 c 0
 380.492770375 271.792277625 380.284948319 279.869270205 380.284948319 287.862000437 c 0
 380.284948319 334.951460176 387.585139373 380.475523045 387.585139373 425.563505669 c 0
EndSplineSet
EndChar

StartChar: g
Encoding: 103 103 46
Width: 1000
Flags: H
LayerCount: 2
Fore
SplineSet
436.997453356 244.339809802 m 1
 393.034335479 220.74873205 358.969836722 196.720245856 339.970301527 160.983228165 c 1
 340.399237324 135.209504818 348.109162539 108.698829886 362.260754263 88.309814475 c 1
 409.781012977 121.703785162 427.760877704 180.176186027 436.997453356 244.339809802 c 1
501.995097764 581 m 0
 501.995097764 570.146804665 494.115201342 555.975446721 475.861986128 555.975446721 c 0
 462.090830441 555.975446721 452.561632375 562.038369615 448.0462904 564.505159979 c 0
 446.828376415 565.170522314 445.859804581 565.672318694 445.130622503 566.037230516 c 0
 443.46095845 565.542598276 441.749651013 565.225715492 440.026629858 565.086582163 c 0
 376.300491588 559.940719776 330.813324774 503.203344114 330.813324774 441.404291803 c 0
 330.813324774 438.587057573 330.995097764 434.074065227 330.995097764 434 c 0
 330.995097764 433.743183208 330.99141417 433.650615742 330.99141417 433.334581548 c 0
 330.99141417 425.310231041 333.78552314 419.418178845 340.151667795 413.05203419 c 0
 351.172414799 402.031287749 373.431925815 393.01362015 393.604020571 388.121796773 c 1
 430.416387647 405.616010629 457.029144955 449.439555453 457.996385049 487.876237641 c 0
 457.791326963 495.489597329 457.721945384 524.058390053 457.721945384 524.423876748 c 0
 457.721945384 528.300349256 457.721945384 529.788707401 457.793155935 531.348544854 c 0
 457.784674362 531.670700981 457.727318261 531.735310293 457.727318261 532.016594446 c 0
 457.727318261 540.90143348 466.640154574 555.439747785 482.844528087 555.439747785 c 0
 498.648752662 555.439747785 507.831535456 541.673382667 507.831535456 531.173612436 c 0
 507.831535456 530.940409882 507.811579559 530.884205652 507.811579559 530.884205652 c 1
 508.335699144 519.187977549 511.482452435 511.139459331 511.482452435 484.532347234 c 0
 511.482452435 442.102111197 501.828128266 399.487590017 498.926908238 360.148008015 c 0
 498.905213376 359.853832884 497.799804204 349.895612935 496.118842552 330.784569604 c 1
 556.823078569 363.832568344 590.35766139 395.185209272 592.897933653 452.221344928 c 1
 569.004902236 544.806841669 569.004902236 544.806841669 569.004902236 548 c 0
 569.004902236 561.812968658 580.187164025 572.995097764 594 572.995097764 c 0
 605.539124559 572.995097764 615.391352551 565.157671028 618.199223388 554.277171536 c 0
 642.995097764 458.193158331 642.995097764 458.193158331 642.995097764 455 c 0
 642.995097764 432.09876134 637.355170456 382.293453554 593.86161147 338.799894568 c 0
 564.567970416 309.506253493 527.431241623 289.860200328 490.763066068 271.585195985 c 1
 481.658280926 184.318099421 461.624420697 81.7323807619 368.447256828 33.7693011891 c 0
 364.86701891 31.926368554 360.933509455 31.0049022365 357 31.0049022365 c 0
 346.617151257 31.0049022365 340.809192461 36.8128610322 337.939068991 39.6829845029 c 0
 304.692404569 72.929648925 289.959101856 119.504745765 289.959101856 163.080274413 c 0
 289.959101856 168.608363365 289.959101856 172.612645362 292.459897794 177.824900732 c 0
 323.773453658 243.089821878 388.780675425 276.773228013 443.613949717 304.019093389 c 1
 448.456972077 358.22599246 448.456972077 358.22599246 449.104533793 364.275431082 c 0
 449.135951251 364.695668021 449.167982302 365.115678487 449.200611234 365.535461774 c 1
 430.49184928 349.183913409 406.823294035 337.004902236 396 337.004902236 c 0
 395.001304268 337.004902236 339.017120517 343.475903349 304.796328736 377.69669513 c 0
 291.172981352 391.320042513 281.00166961 410.416042233 281.001693236 433.475698231 c 0
 280.880302093 436.1642718 280.820163372 438.84506856 280.820163372 441.516436938 c 0
 280.820163372 528.889194486 345.20367494 605.660303434 432.436552715 614.589669932 c 0
 436.766239176 615.952858443 440.943784848 616.49923259 444.871306196 616.49923259 c 0
 457.780326004 616.49923259 467.98830164 610.596684052 472.019601198 608.39433239 c 0
 474.461237435 607.060434967 476.065250022 606.286199004 476.745602375 605.993812581 c 0
 476.830399706 605.994669125 476.915200577 605.995097397 477.000001447 605.995097397 c 0
 490.812968858 605.995097397 501.995097764 594.812835801 501.995097764 581 c 0
EndSplineSet
EndChar

